<mxfile host="app.diagrams.net" modified="2024-06-08T09:09:11.814Z" agent="Mozilla/5.0 (Macintosh; Intel Mac OS X 10_15_7) AppleWebKit/537.36 (KHTML, like Gecko) Chrome/123.0.0.0 Safari/537.36" etag="QZOjc1mpVrsHFH5hyU4D" version="24.1.0" type="device">
  <diagram name="Page-1" id="97916047-d0de-89f5-080d-49f4d83e522f">
    <mxGraphModel dx="3655.5" dy="1358" grid="1" gridSize="10" guides="1" tooltips="1" connect="1" arrows="1" fold="1" page="1" pageScale="1.5" pageWidth="1169" pageHeight="827" background="none" math="0" shadow="0">
      <root>
        <mxCell id="0" />
        <mxCell id="1" parent="0" />
        <mxCell id="2" value="OCR Technology &#xa;Application" style="rounded=1;fillColor=#787FF6;strokeColor=none;shadow=1;gradientColor=none;fontStyle=1;fontColor=#FFFFFF;fontSize=20;" parent="1" vertex="1">
          <mxGeometry x="240" y="150" width="200" height="60" as="geometry" />
        </mxCell>
        <mxCell id="3" value="Response have &#xa;content" style="rounded=1;fillColor=#787FF6;strokeColor=none;shadow=1;gradientColor=none;fontStyle=1;fontColor=#FFFFFF;fontSize=20;" parent="1" vertex="1">
          <mxGeometry x="560" y="150" width="220" height="60" as="geometry" />
        </mxCell>
        <mxCell id="4" value="LLM Model" style="rounded=1;fillColor=#787FF6;strokeColor=none;shadow=1;gradientColor=none;fontStyle=1;fontColor=#FFFFFF;fontSize=20;" parent="1" vertex="1">
          <mxGeometry x="910" y="150" width="200" height="60" as="geometry" />
        </mxCell>
        <mxCell id="5" value="Content Validation" style="rounded=1;fillColor=#787FF6;strokeColor=none;shadow=1;gradientColor=none;fontStyle=1;fontColor=#FFFFFF;fontSize=20;" parent="1" vertex="1">
          <mxGeometry x="1240" y="150" width="200" height="60" as="geometry" />
        </mxCell>
        <mxCell id="6" value="Invoice Entries" style="rounded=1;fillColor=#787FF6;strokeColor=none;shadow=1;gradientColor=none;fontStyle=1;fontColor=#FFFFFF;fontSize=20;" parent="1" vertex="1">
          <mxGeometry x="1880" y="210" width="200" height="60" as="geometry" />
        </mxCell>
        <mxCell id="7" value="Advance vision&#xa; LLM" style="rounded=1;fillColor=#787FF6;strokeColor=none;shadow=1;gradientColor=none;fontStyle=1;fontColor=#FFFFFF;fontSize=20;" parent="1" vertex="1">
          <mxGeometry x="240" y="440" width="200" height="60" as="geometry" />
        </mxCell>
        <mxCell id="8" value="Score Validation" style="rounded=1;fillColor=#787FF6;strokeColor=none;shadow=1;gradientColor=none;fontStyle=1;fontColor=#FFFFFF;fontSize=20;" parent="1" vertex="1">
          <mxGeometry x="1472" y="270" width="200" height="60" as="geometry" />
        </mxCell>
        <mxCell id="13" value="Manual Validation" style="rounded=1;fillColor=#787FF6;strokeColor=none;shadow=1;gradientColor=none;fontStyle=1;fontColor=#FFFFFF;fontSize=20;" parent="1" vertex="1">
          <mxGeometry x="1890" y="380" width="200" height="60" as="geometry" />
        </mxCell>
        <mxCell id="18" value="Content Validation" style="rounded=1;fillColor=#787FF6;strokeColor=none;shadow=1;gradientColor=none;fontStyle=1;fontColor=#FFFFFF;fontSize=20;" parent="1" vertex="1">
          <mxGeometry x="1240" y="700" width="200" height="60" as="geometry" />
        </mxCell>
        <mxCell id="23" value="Failed Files" style="rounded=1;fillColor=#787FF6;strokeColor=none;shadow=1;gradientColor=none;fontStyle=1;fontColor=#FFFFFF;fontSize=20;" parent="1" vertex="1">
          <mxGeometry x="1890" y="700" width="200" height="60" as="geometry" />
        </mxCell>
        <mxCell id="29" value="" style="edgeStyle=elbowEdgeStyle;elbow=vertical;strokeWidth=4;endArrow=block;endFill=1;fontStyle=1;strokeColor=#23445D;" parent="1" source="2" target="3" edge="1">
          <mxGeometry x="22" y="165.5" width="100" height="100" as="geometry">
            <mxPoint x="22" y="265.5" as="sourcePoint" />
            <mxPoint x="122" y="165.5" as="targetPoint" />
          </mxGeometry>
        </mxCell>
        <mxCell id="30" value="" style="edgeStyle=elbowEdgeStyle;elbow=vertical;strokeWidth=4;endArrow=block;endFill=1;fontStyle=1;strokeColor=#23445D;" parent="1" target="5" edge="1">
          <mxGeometry x="22" y="165.5" width="100" height="100" as="geometry">
            <mxPoint x="1110" y="180" as="sourcePoint" />
            <mxPoint x="122" y="165.5" as="targetPoint" />
            <Array as="points" />
          </mxGeometry>
        </mxCell>
        <mxCell id="31" value="" style="edgeStyle=elbowEdgeStyle;elbow=vertical;strokeWidth=4;endArrow=block;endFill=1;fontStyle=1;strokeColor=#23445D;" parent="1" source="3" target="4" edge="1">
          <mxGeometry x="22" y="165.5" width="100" height="100" as="geometry">
            <mxPoint x="22" y="265.5" as="sourcePoint" />
            <mxPoint x="122" y="165.5" as="targetPoint" />
          </mxGeometry>
        </mxCell>
        <mxCell id="32" value="" style="edgeStyle=elbowEdgeStyle;elbow=vertical;strokeWidth=4;endArrow=block;endFill=1;fontStyle=1;strokeColor=#23445D;exitX=1;exitY=0.5;exitDx=0;exitDy=0;" parent="1" source="8" target="6" edge="1">
          <mxGeometry x="22" y="165.5" width="100" height="100" as="geometry">
            <mxPoint x="22" y="265.5" as="sourcePoint" />
            <mxPoint x="122" y="165.5" as="targetPoint" />
          </mxGeometry>
        </mxCell>
        <mxCell id="34" value="" style="edgeStyle=elbowEdgeStyle;elbow=vertical;strokeWidth=4;endArrow=block;endFill=1;fontStyle=1;strokeColor=#23445D;exitX=1;exitY=0.5;exitDx=0;exitDy=0;" parent="1" source="5" target="8" edge="1">
          <mxGeometry x="22" y="165.5" width="100" height="100" as="geometry">
            <mxPoint x="22" y="265.5" as="sourcePoint" />
            <mxPoint x="122" y="165.5" as="targetPoint" />
            <Array as="points">
              <mxPoint x="1570" y="180" />
            </Array>
          </mxGeometry>
        </mxCell>
        <mxCell id="ICoC3vKATYcrF40Dt-nO-55" value="&lt;span data-metadata=&quot;&lt;!--(figmeta)eyJmaWxlS2V5IjoienkySGJxSGVHUHU0ZTBnYjRCM2xUcSIsInBhc3RlSUQiOjQ2NTQzNTAsImRhdGFUeXBlIjoic2NlbmUifQo=(/figmeta)--&gt;&quot;&gt;&lt;/span&gt;&lt;span data-buffer=&quot;&lt;!--(figma)ZmlnLWtpd2k/AAAAmkkAALW9C5hkSVXgH3FvZj26+jHvFzPDa3iIiPNieIhIVuatquzO1+TNrJ4ZdZKsyltdSWdllnmzerpZ10VERERERERERP6IiC4iIiIiIiIiIiIiIiIqIsuyLMuyrMu6LPv/nYi4j6zuYd1vv+VjOiJOnDhx4sSJEydORN76mFeP4rh/Jupc2I+UuvZks9rohZ1Su6P4X6NZCXrljVJjPQgp6m4YtHNlz2AHjQp5P6yuN0o1coWwc28tIFM0mV4YCK0Fg2so98JT1VavHdSaJWm52Gh2qmv39sKNZrdW6XVb6+1SRdovuWyv0mxIeTkpt4O1dhBuADoSloNG0APc2ujd3Q3a9wJcyQPbQasmwKOV6toa6bFyrRo0Or3VNr2XS6HwdjzH28lmt804AuHsRNhpB6W6raF8mSvbEV9ebXSCdqncqW4yyFoVxqxoqLuiHZSbjUZQZrA5ZhIOr7x0dcLrVYYfeulVG+V2UIffUo1a1waMq83MwFenG2a9XlM6P4yZlnvIKyGkS9vbTC8g+K70mg1DXpnC6Xa1I410YzKIWrv9OAKN3kodM3aQ6s1Nk9Wnh+PBcHymfTASnEazcV/QblKhmhVTLxSs/jyGygCQqjTLXeGbrC6XGpulkJy33m52W2T8tXapLniF1WazFpQavWYLUXaqzQbA4iaDbLbJLTBCSRdrVUN2KajVqq1QssuIo8O4jaYdaQfr3Vqp3Ws1a/euGyIrdNWoBBURW4p3tBPcIywdY7rKAjge3ltfbYrWnqg26KxhoMxztXxKRHV5uFFqBb3T1c5Gz7W9ws2CYfDKsszDaq1ZPkXpqtPVyrrR9quhVZeRXlMPKtUSmWs3qusbNf6T6utCCNjBXu+yPYTdrpWk0xtOl8KNaq9Dz5QesllqV0urhv8bOy5zk8n0ysiD0s0JiltrD2V4ZgU9rBSG1ZAJ7UG52ZW6h1+stUHNqBiVj0gJCTdtKgE+st6sdE2vt1j8dSooPcqW2s3TFB4d7vb3o9PD2W4nOj+zynBzeHe31A6oVfDp5k0jjnrTLCCvQ2cyM6x5in5arDRPi2gKl5rCYqvULtVqGA/WTL3XdhJdmAfXgjWBLgaN9V6lhLBKpvMlKbMIu1JYlsJa1VA9YvLNWiWQWV3psByD+5pmmEdb7aASrKGAlV6r3SwHoajyMWYoqEn98UTVe2HV8XgiBdW7tU61ZYCX1UuNLsu42miZibh8I7inZHX1ivJGsNk22StbNHPgq5oM22ZFn4Sza1q1rnR/bamN3JNhXmdLiSyuD7v1Orz0TnYbzLMhcINR14eErSAob/RWu6tMMoAbjTZg77AlzXbJWJGbVkfReFBnTQs7aFCvs8FMrIu9ZUdo142V15VS+1QgpD03SFFdXxYq63AVI0qxUG7WmmmpaNTftFkIsTQmZ5Y2LSpNlg7lJdskKS6LIqK8ZI+EzbVOz9CgtLJRaqPWrmSse9AO7Po9FtxTRk525Mc3zGyfCLGVqYm5zPRC5vJaF1E1w2pHurii1R+OnfYuhU30G6BCoypVpoXehFUgOgVJauSBbSMrIDRVbBEwP4WB5JS+UK1bMRexryerZBY2WUZiThere2zE4XZ/FFnps5O2g07ZCH6tKuPU6KvprWP11g92dqJtx3GhimFqs4+WWEBUqkq72cqKeq2JmWQm2VdWa11h0FstlU/Ng3xZv2WzGyw00agqygFYdVtYaFJda542GVjoWB5CNKLWK5daopmFrMSCapfNDlIUopVoezLtz4aTMW2SfYKemV/kSl4z3OqpINM2rxb1ZePpTId7lJI20O5tBG7mdeNgbyuadsfDWQzddkmGqlrVe4JaSEbDNTusYHrlyTieTbMZXmTmgSupN0PS9ZJsnR58OLH7YRlfgExhDYqVnm1RdAWDvRDOppOzUWk0PDOmQUpMsaEwsWQ0ltdlPYtc7u+jkcl4GK5RDZ3aS88uaJGLDMK3xeDubrXG9oyhA1hwOiUmzLorRcSH8mFAU9BCftdZzPaV3m2Ul3Ll2ykv58p3UD6SK99JeSVXfiLlo7nyXZSPlavtcr7343a0JydDkUwdf6MNVK0Gm4GMQCcD91Ynk1HUHzf3o0RBCt2GXamIkWaySZLXYXcV22zy3j1mARt9NcLfmEyHz56MZ/0RzZ1lzM0tumyk4J3ssr2vVQ2HWevNaDobsvQE1mxRlWu62ux0mnVyXn1yEEflg2k8mSIPtoUSto8KVW43Q1ZatU1eB/cGsvRQPUoe3pnpqlViKNjCMipOuYClJymSlKs1cgt1sajSZJEpxtMmt5TOnyku1zDHYiqObLLqJ9P6cDoVTtLlZKafVJsMpggTydbWEV32Kv141xoWr8x2DEhlmq6N8bELo9BqrANSJ1uBpDrclMRrVcSB9oPz+5Pp7PBi8nGLsO3sgm7FqASAU2T61wkgXbterX9hcjBbnw4HlkjBrq+c6DMGPbvc/KxNqz+bRdMxVWBVW2apYKyN0dZmYg9mk3YUD58N6VREhh0jmZQPneY8adaZHoy3nR56lWooDpHQVHjkbKtkdDi7MIrCyI2dOWyHTWcoO5wQSHQZNbNKw2EFn6NRlh3G7wT1FjutOQYUEjIIcxalkrxo4yGrk20DC9LfPmunMR3TBpb6PqRrONDsmPivJm+xjYLT3UXStSL1VtE2sTXkfdOgPDmAoalrt/Bg7RC7mxy/1O2IXhZypIqG1MmDeDbcuUDxQam0SmWc0M3Ank58W14NOqeth4CUoBPaWTSWFyDHk7B6X9DrNDE3RkBzAJSOSa7WW/j5lKQGHCuN1iQeyuSysQByjKvSKmLv2hORQTs9FSPNpsNJqdQCrFxqq/MictMHdkLt8Bg0KGOWLN3aSV5Opg6bYB0wOdFR1t22mbhVdmZSv1xrGte1gGvfS9xzysVuC8c26JnzRa/dbXSq5kS1wCqrVMXNMQqwmG/Ww5MXnKUq/E77OXYu4wCCTTBdqtIaLPWEHhsXZV1vcvDHcSXv2byt8Gm1IQ4a+YKtwNUQtKItGb9+ASx8aOM2L7phL1VwNkmXqTsV3Js0O0Jxs2mPZivk7eA2zAQfTcssQ8rHbBeJNh23RQ6Tm9L6RGfaH9t5tiO8ge2YQ0Snx/7BxiwCAk2xvJl300SvEVsg9ey5Zq3dTM8Rfg6U7COFHMzuGMUcJN0yFlrdcMPCHLHFDJLQWspAltRyBkgpHZHzuIU5SisZJKF0NANZSogpAaSUjltGmUSQEmIn5oAJvcvmoJbk5XOwlOoVpicHdUSvzMMSmlflgZbk1XlQSvEabF61jNaa+bkWz5IATamBKTTr9DoOEU18zQxyfdCPWdZ2xo8TQyl3V6tlKpSQTgq62sgXPbFX1l+nhay7tKogeHOQom07B1uwpj4tL4attt0nltZRT9ZdClh2qCngiM2ZBcJKtatjZR7YOS025egh4AYHKMDHwu3pZDSqDKfWvMC0W2PfYFdAwsZq27bYpplYg2iAZZtF1Af3tNggraEtQ0FcLlPS6122Ju3FRJXojPyi0qMJfpPJeuXJCH9EF6ZqWekz/ONt8Y/f55+CdVlofJ6SvsA/XhsQ2BngAf7xd/mnYCiFs8k+DbYlr56p9L4z3SDYrgRhsz9Vnr8tRcExGYG9s6C8XAO/3p9Nh+eVXti79VbKeu/W20i8vVtvJ/H3bhNgYe82ARb3bhPgQqs/xa5Xx4OIdt6Zg+FA3Z/jYkV59vRB5bn+6CCijT4wJ5EblbeGWBv9vUhpf6e/NxxdAF/HsuOTEc5m8fZ0uD+j5AsuPA/7NDnYi6bD7bXhmYMpc8Ee707cCj1FAchoAhUmtkredDPfNNzvb7MK5toSucDtEKtnypqQiDukXoLAmmiDDDBPActLLMLk8crQf6MQ+dbl/n6M9mdNWLDmtKpJeknBawWcHIV1H0AvLYnHTzxWskVADHad7EKOfiuRe54tTgT8y8EAH4yM4Sc0QmZyUqwqi8CsTR1Ge5Aabp+Ohmd2Z3NIBAJlSClKlaPEcHsOJaPDWcXsLGtRf2Ym6h91i4MpVap8e8uguNF45VYocF9GRWoGSlp0UdQF4kbiWC8225UG6VJprS31y5WGsYJHGt26DG2Fc4BEEo+yUYtojlVselwOCKQnOEdLelmpZM4kl5dtegWHMkmvDG35qvamCcdcLRaB9JrwtImlX1sOT0t6HZMs8OvLZRPCvCG0Pt5DNgglkt7ovKmbmu2G8HezCIX0oWysIr+HVTrm6P3wtVpJxvGI+npb/IpHhugs6S0ccqT/R63hipM+esOmj9mw/T62Y8vfdLdNH9ey6TfLwY308bW1VSl/S7Nl0ie0Oyb91pZtf2vrVEPkdFsNu0V6O6nweUe7U5PynaRSfmJptb1JeldpdVPKTyIVvp+8aek8ZROGSJ+6Wjst8/NtpIL3NFLB+/bSqQ0Zx9PLJ82B9DvKa2ZBPaPcMuVSudsWvFV8DCmXsaqSVtYs/YCYovCzRno76TrpHaQbdCv9VUmF/skNOx56Wxd+ahvNk6I3+NPGMWpU8WBImydbT3oyaetk68lC5+6TrafcSto+2br1TtKwdrIu7TpEqwW/y3Yq87IpXhXpaVLh4576qbrA723UjD94X6N7qkP6new8wtd3kYak372JwEnvb4UdgfdIBf7M9qm2lPvt1oakW+3uqsz7dog7TjroWD6iTsOclHaYJpm/M5tE6Eh3N239cNOO+1mbp4y+nN1sd9qkI9LbSffCEAuu1JhUyhPSO0j3Se8k/R7SJ5JOSe8ijUmfRDojFTkdkD6F9FwYYvuVeoBU6J0nFXoXSIXes0mF3r8iFXrfSyr0/jWp0Ps+UqH3b0iF3nN0GN4uBL9flzcNh8+VjJD8AckIzedJRoj+oGSE6vMlI2R/SDJC9wWSEcI/LBmh/EIyhtUfkYxQfpFkhPKPSkYov1gyQvnHJCOUXyIZofzjkhHKL5WMUP4JyQjll5ExPP+kZITyyyUjlH9KMkL5FZIRyj8tGaH8SskI5Z+RjFB+lWSE8s9KRii/mswdQvnnJCOUXyMZofzzkhHKr5WMUP7/JCOUXycZofwLkhHKr5eMUP5FyQjlN5C5Uyj/kmSE8hslI5R/WTJC+VckI5T/rWSE8pskI5R/VTJC+c2SEcq/Jhmh/BYyTxTKvy4ZofxWyQjl35CMUH6bZITyb0pGKL9dMkL5tyQjlN8hGaH825IRyu8kc5dQ/h3JCOV3SUYo/65khPK7JSOUf08yQvk9khHKvy8ZofxeyQjlP5CMUH4fmScJ5T+UjFB+v2SE8h9JRih/QDJC+Y8lI5Q/KBmh/CeSEcofkoxQ/lPJCOUPk3myUP4zyQjlj0hGKP+5ZITyRyUjlP9CMkL5Y5IRyn8pGaH8cckI5b+SjFD+BBljov5aMkL5k5IRyn8jGaH8KckI5b+VjFD+O8kI5b+XjFD+tGSE8j9IRih/Rh+OUuGizdiu1Z1KJ66aJ85svb+/L86S9namkz1x72YT/vVWR5MtpfXWhVkUK1/b8JjyfC5Kd6U8Fs8OP27Qn/UN7qLyN4eDaKI8L8GJ7+hOR4LU6sezKJwcTLch4cVTvDscFHEHp9sNCeXQISAO5WXxXkuDZxE1UXppJozjU8a7/cHkgZist4vbQsxhFx8Tr3UQzfrDEblCxHhjcUTwXs8Rk4iIjZFfmEV7JqpqqxbPDbc4GMPGModOkYvt1j0CUN6R/7ddbuOdTREG+eWtqdAc0zOlI4YZ5V1rJukyZd149UzlTcSbncnpwD83jIdbCE6rAom7ozquijGngFjt6AVoj+OdyXRPPUstDs2MvVCrJZPr7OKqj4V1QMv9MUBOPFWpEshlFoJ7iffL1C6qyynnr2OuUEcsZHdyMBqUhb96fwwAfq6ZTjg60Rg2V2JpQubojpGtwXRT+hKtju3LSNdMFZZYHY/2Js8alumhRZwcGS/qE+eMIr1IqyuIaZ8ZjjleSc+nh4PZLpxdOQfdsJ7sorpqW3rCWZajz9VGKFLY1deKU1xn3iooq/KKZ6MLal/pHaC14TghwEwLpDI8E8Gpz6mFknWlv1cVpOB85iIXIJSgPbRj9vz++WHc6Z+BCS3ZhkgQvU9Wmgmz286v3N7ty/EimsZg6LRkOqpWZPheLPnmuWhKkDfq9Jlr9S5P+yMT+TWBwC00gDuqEdzHbB+6eGZ0YX83Zt/QC4P0nilm19CLW5xPz37PwUQW8hu0vsyS2YQBUOB4aYfBpNJ5udbLO/3RaIsY3xoVsdrXR3ZRyimdnV2dnIfKq7VeoUTuDb4+OkvDxRyfp+60WFTHHDwapPI9PpqckTsGg9KZlJOxN3d24miGJVLL+sTeMIknpu0u36MEfdv7a7S+YsAx7Vw0qBkm3ujrKysWkMn5qB2mk5aek5aXSYvlPCctFtactIo78JIXzsLFslh0I4XGnASWHDwngeV/gQSOHB7tysAOrmb4Z7RHN3I8KK+wRSx2EKsBh29rb91J3d9N8DhAFAlRpoRZBFmjOGOaEAZ2Jcn7QxbQCFIYnD3b9hRLZ1EVV504lbeEDbSnUqT8gFmgLCSpu5eML5l09AUpleJtSFFaxGROplEtd8eJhdwZTuNZKhfpC4by5YV1mTw63p7s7fUZwqrdfbKwxJayK4hBMwaZQKMF9H8x8f7gnLPNCxfboUUDMkYmjGbqKwXitqm6sJFNCd8gQY0Ek+5k33T6g1k45y7VVjFDSNGA6/0p0+Zkn2fUxoeMnklLKTSi2QMT0N0IEdce8/FsAlX8k47zYkshGzu3Q0hJiyrE6n6twwt7W5ORIx+bAv2y39t8QiQWAh5BHNlGQniP1hAWWxGTmZBFT43P4HnoBhT2geFqEihAeuvRWDY/JOT6muQp64M4WkML1sUpYRwXxiZUo3Ekhjs7zfHoQhuhn+uPDLZfsZpf3ds7mMnozN5k6XrzdCk4e+aV4jiaVQdwyfjRtekQnLdrrV1FAOgCBPpSFIXGDpt8dYCD6tq3ox1QztrahDhLy1SC6C2KZGX0fYEI+jtoy1qaMbjJwX51gG+rfDND5N/NGrKSpvAejccg2wdDovherRaSYmiov18TRc2T8pI1Pd9d6Kg/WHXS4YPUb7pOUYT/DUYTEYiwq4P/HWbIACoPhoQjcUB3gwer7+xGe9+Am7URmtfBqCl8SkLfeLoqqK+aSJwOsVR4ORBwCjKTPMQ+qOdmMMNrTXERlLcwk8JmioGDnA3FzIU3Y19xso6ZSo1l7AAqi8NR748P2DAvhNGIRRuxzlVhGK9OpgPn+1wCoRgfbEn0c4stSzp3A1zIeJvX3o+hvXN1ARWiwzMpw6SM0eTtmD4CzyF2TlaYqAD0I0K5GDpveQff+5TV69hUIiL873N2/Bt9fHcisiL/Vj9d6zHHRDZHdxoojob4tNMLYhA6k9CNBTQBcJTXCxjn/ck4Grv1tXgw3hnJdbXcOuZJLg3jblJlJLNs2S4n7et9jg6JVdxOoJaq3j/YGg3jXYhJx8JuZ9KJ+nu1jD3pxDvciV/lWCR2P1HrcCbDzmyVkGruhA/AKdbHIYuJwy+fY2HeCl2a7ubt/yLKbBz9UZibkaSJJW1fOinv2Ez0/yrhBN0yJwTjPLAd+FO20gM5ThSyo0KRJD0qLMT706g/AGMx3p08gKw55KxGSHAgthv0JUtjkx0LL3rZdOIKR2xjV1o57zJHL7jMsY4cP8weXB3vyEHQsLqp9ODA7gj066Ggs4lUVKJzw+3kxUVyZyOxNfM8RJeJdpr4r2dgXONI9J4ym4I0bCcnDrYd17hcPt0z52l9qBN8JClwLEbn3dbJWJBadcBUDneGeAMoPa0szc+yhpuIHyey5dyKjhBQS+n1veLmLrnm05JPazwpJZd9PndNjCPBLLhiilx0gAR/wT6TJLfoGFjFEz/DNiB+GUuB3Rhu6CUdtdyQc3NmL7DlEtE9ttIXEbBjSFsSN61WeslTwIvRS+govpIoqOdtpWBD5YuIMgOVRU1EFxt9TsJGhgZLFRulTcL25oZDcY/Ztm8ZdXja3BV4kva4TjEIvrvQNG8ICgHHa4lgQJnpFKsFRvKyFAQVttfN3Qfx5RZke607ept3AvBsy5DzOJYBA38kPtjZ4eoLizEUZ86wxqLcxumfiSMyIyCp/PjcGbEz5vDG/FOsVsy6+SqriFLzYCYOrBh+6jFxTAeOojgtlBfBWJsQ4QjNoy/s1tkY8BIOT2krnowOZpFz+zBy2/lRfUWrI47lzXXXpfKqa71GELhLyFLtdOnekIyumWONPP9JTMFdbJKcOZWHDU9XvT8+2AuxF0xErHD9nY0gUhFbaCjLAK/3zAFWcepKi4Yv5nFpX4zldKyerJZzlNxCP2KpudJKbGuFhgMdzag6yLF19hPUyJyUYVVbEvSZ7PR+C8sIwgPYIqbNPLZfUli5OS8fB0t2YeMwh5LtiAjk0s2qtLy9I+GGrt08JRDPPVv3g7U1+4iuwD1Esy25onsstYAdZM8x9HI7pe3L2vnEgXDbY7K5CgIzzVhFc+A+FohrEjOjifWg7Mlk2yp38YzhZbkgcABG82WGGcI9QaV3eiNgRW9Ua5Vec61nq7kS7CW/HGCErPZ7XY009ErT7ZQLTnQIsTQ+gxSJZrED5IrecIyP3jaGnqJvN50a50TaHkyHcKgHw3h/1L9gFsOKeOemaHQf/lujAwIwrrd9U0CSNMNzJ+JBg7N2oC1T145GfY7Cu7ZBYd8AbYO9yEbeaOKmmizuVQVnyfpKhfrBaDaU3qPp2jAaDTbtVDBB2ywoZI8y6PyNvFeeMEA5tdT7EpZTainRD/dASQw2ieessm+NMLlCYoeLqYVekDa9uccEi2kHwXiwL8dFxBC5rGyksIHvup9M/hbX7JaTl3rKTxuTwVaMWtKK0eTQ7YqmGSgWVyQfkpN6/OhqpVIzj72wnUaXuQ5LQPZ9UPLkyjatDy1zdBMDFCqv8PKrMMVGDTBhaDFiCWqrzdPWArGgSk40bM1t+8uYrJVdhl66eZnrclSVnC6Nx25fxeIRkJhdsNjXu8UqtO1i1dx0mpcZXvoi0eear5eAC1JIq4r10j1pFfvmPVnVoiWZ1i6VuawN2j1u2qpdWSzLqTk4IgYCMdrnBCumxCX3Oh3lp/zoGrneWqleNa/0jpmiuwk+bgqnk85PsFCDjJfLakEHTerJmzhWMJDLmTR26gxwhQW0ShX3wPJKC3Dv1a6yJcOV2/yubkpjc598TblZb6HeBn6tYSUZzXUXi155eibSfw2zn9WiFqP+ViTBI71vMeXY8VpCARlSPepLuFsiQaLjoRh0VbArSaUrSLs15SUryb8kBQI4xuxruXYQcuS92cTl/ARqOnm9pwqzSdjfs0V2Y2PAmkZ5xbbMCBKgxAvsjAl4bXge68GWZmmGJnxgthh87SV3QKhPzkXOVZ2MBqeMySKagT1fS221l8PdGBJVnl6oEuGnSWwuNIR61YzElsuHDgh4oNFIJGoYNVG8s9jAsW1GfztZVyPqnMWVyNnZrgnnFU4PB2cithLWL8bOIw5k2tJlMBgSuZMBFGZDTOmsv7dfjSdPvot7V0jje0xBFMoMSpCjQUlC5f42nnxSKEhFsoSLlUB+yci8qdMb1U6w2iy1Zalr8+hNlo5XCTZ78qi7aX5Q6IdgCbzARnjWEvFLtdaG3F3LuzNZDeS0+aWJ+4WZCwQ47AbaC1CFKD8mLHkJan5Xk5S8EDuDCoVoErtW1mi1yx5JqmUZsNSsYZrDdhKKTUG9A80XcXT3B4igOx6e7ySiQxge5y0Os/vSGsH5qQgLDaRO7HDMZuW93JyPZQYktZH/J+7v9uNILSjPZCzwrn38hOQJ1Uj5uaJFeNJMZHAEBSe1oCePrQoUJbWgpwzjlj3rihqzAt6k5/l8lzfK1NSM942eek4e6HRX/Yqnf9rtzr9rXJKSRFgkrvE2rf6X9XnYvhbVbS5rOYiGcTjZmbltOZQq2Hiz5rJjMraidKz9GrC14WiU4PwsZesTJ5CfB9I8Zw+3ksoGldR91XLQQRrwz424KVbmBvu7iTdG/pc1MrmEK/Y8j4Weq8r8uud63IbLtBLYxCnaTEn9mH/IY3u3N3kWJ9rwgNWLQk0jY/eMDyL0/4qt9Fx9MhmPhtwjjS4k/X4S/2qXwCU2yEkBed7PTYED54RhKl6bVKRyMOBfTMDubJBWvCGtMCGBrOKXkgo5HmTgNybgHD+cVCwb1P+Wjg1wAFBQCHCpD9ppMDCLmNT8Sa5GGBbYh3Iwy5RA/zQHFY4E9uHcObLVx6DF6mVa/56+JIerKSpcvgelCVnBNiSqtPp72E6KLbtnEYnA/WxK5I3Ny9dfTDTAOLiZCnxcq2dDzUDn19W/Ipc2yAeqvjdfkenM91lwavRzGvgJrV7hImzz6vsSfZBEo6Ce7+R13EmyhXQfpPozScALMYmB+Jjbcmp2lZ8yi/pHfIdk5v4v5QBlWbPVH0eM5dsZ6V8lxKLUoV6BZ3u1Wp5v9LWMiki6Eu3E6rm+fiEOeA6MfGP1NU//iOdGLVJ4k1bfkxWtLZH5Ycd2whQ49kv/a263MC1JTKwdxRwfg7FMjBwDXpiE0IjY2IZmgD82zxrGjGslcTBi9Rxfv4gwD/HQ0jRaPdhyhH4tDayFEp1Tn9T6q3oORMDuU1r/s7HticswSQp2CPtJg5ps76qofs/by7a0t3vq6+YyOWQIOCFXJ3nbuMou0D8z7e/vykaAL7SsrjkEsognU2jypnVZXXsYZlFPzViLpRGDz/0O7LHqYZcA2wadtGaTlSO3VOpx6uEXAS1yV+BldjV1jXpEkrdVm1LMXYtdpx45D7Fop/FnkpvAsXpsVrLV3yUSarDfcTH/TUneVn23ISdK8kqtHpcUbN39TpM6DqpepdW/M5In7jDsjwkf7e1NxjWJSeF4Suzl38zV4lGdnx30OfxmGM9hFaYolSFLN5JxsMLyWN+fx7Kbq8grj/LcPApWSZ4sAP6BPDjEFWEJ3hdNJ1Q9L1/VOLCvke1L6Kn6wUtUOh1QM6LuF9dyXWbcIHVO/VC+uiwvlc+rF+Rh6b73bPXDmk0eM5YQH6tfsJipnfgAGH3GY69tb1Dv8cQxotzimI88DSGt/iwB15AP5T/nGHy+xtRLTOpv2T4Nd6w555f93TzI+DHv9NQ/eDJLXbbsmol+JXwsqj/WUsMGORpuswkfqn2RP5ucIeQxaI6bnTUcXuSI4dL6T3RSwZ3jXM2HdHpnrt7rq7/VYkqE2vt99dFMsQQUY9718wxrq8PBMOv2pwysYy//BfQ0ztq4hBv9QbtT61CHKF7nRYcvl3/Ij+0Vj3uos4FmIOsX5N79LLis1f6ncmVw1ti0RZuz4G/LngwtuayteBot06uA5bRgK789xj4RcliR1IK+g+Bo+p7oaFqwlc8YwB4GET0Zq2V9LFe0CKU9zgPwdpmkFlSRbDVu2kAqdVfMASzSmsCMGX2bp34n5y807VgY1pUXAW3TdWwOB8M0snVVvmxRNmLjzbinPMvqhnzZojQsyJhB9TB1U65oEe62EFaReoS6OS3YyrYtmx/93qIempVsdbiDi5N5Po/Oirb+PtvAggTjMXmAxfnOyPhYsfo7rb/Z5W1NLxNM2YVybz8Esog70u96NNmL5B7x61rfkQdYnDO25wQoWHfOgyzerryDYJ2jlpP9WrSDWc2kjoh/XOcR2iLoQxgvzTBWJ7PZZO8SVH7iMM6lCL0sQ8pqhrKl7qPsLGV07icP43Qm+BLUZigvN0EQnG5Wb8wmwagRv1lpPyVHh9LWoYD+c72tiXg1jG/DeCjAfs7BLLcp+DUOLENMgT/vgGZMKfS1Dsrkcl5A0WXJvN4B6coqLcP+RQezXaXgNziwdJUCf8kBTVcp9I0OGpr5tWDsb14ov+ztssVZFyKVyUzdrG68FNyqRiuW34qKkVGrij3AFWzls0xZxsUOAQ9n82WLMjKgVn8gew0oe/myRaFDQGVmAtNjFqlaU+cN8OSB/e3thrpgyra2oj6sTXEjZdsRpIM/s1UYc+P9ZBUfsRWEYvAHT6o/t0XrwlD+qC232A7xE8Lhs6XVSfWPc2DTf5XgUQxLn7VVecZtVUX9O1e1OxwNXNP16UR+G/Y5W+PYMlMI9N/PQa0SAP68BRsyhn4YjXYQzhcsPNnwaaJq6kc5rAFs485O4+g+mfrzTPqPWbD5MXBD/b4tOZ7dTNHTe7294ZhBR+r9BfUHssknhffNtTBcoCMcbWaqpf7SkwN3xCZ0DjqGT/rlvhb3QL+cS4BwjOKv9/dYaP2prL6Pe2iXu2OWs7g5AvyIrFZ73RvKxUda8aKsYhUmzmRGELv4ozojZRyNT2v10zlYh1bcXb8yB6pk19g/owllwrTBuge3M8Nq4UpE03NRaO54YPo3OKIQrzSOjcFvE2rJQPKD5xX1mxmvRAyRAXOt3q5ZScmVb4cq1VG/netKAleTA1GBd+Yx630K/GcM1u9oCklNbgTvkggSl0SmzBbMvI/6cpH57lwHoXnrG6KBs5J5HywW6E8zVqsZ6Vi91defzqrMVCAhE7ZU7/LVf9f23sf46S/y9AddWeKiuEr2cujFnv7rRDYSeYCGepmnvpzBAqIBQP5LBqkxUhM0UK/yuExN4aY1+zKb9H/NoLS3sH/KYGVUkskyrMbq5Z7+n1md+Gvp7ckrPfW/clUMU73aU//V66ch7hjPTv9nbw/1wKcU7zHGDuvn+AQKDn0g6qj6z9pAu+iLsyTL6r8xL+ZMc4lHb2/VbMIPWr3JyoUD9RJPfcQbswgOPcV7i1ZfgvlBxF3q9tkaO+ABzqd6la9+wBvh8KK454bRAwb3Qz5iMMw5P5Y1qRm+88/LCEyGlm5VP8Pd8yCatFChLZYaBwICjbHEVA25D/rq3yZt6SYm4ChL7p8K6sveAya6LS8BiQggxEh9wFM/ngOX7fdGFrk8s8CKlUB4sDWbRsnnSN7vqZ9w9eX+NkeqEgRjZkm92UNhbE11vH8wS69dX+Krn3UV4gNwychCfLWDbEzOYeKMWr2POKQ3jE8beMjGcFbkzqh/ARHJAkEMjo24ObZopjkon3Pk6tGsPxBRvNRXz3ew4JzIUL3Y1z/kIC3cDraeC/VofGB3g1f6+oddpWFetKfBHBoNeoWvftw3StCePJDY85gApHqrZ8AYu4O98VzNb9gaGliVw4v08LQN0KKflj3OgH+TSKZb4NgzOZww8TtD80xCZum/XFTfYslxFNvnQJkgfcUjmuWe7X1IM/5YEMP9CNs+bUxEs1bUD/rm9Rpm+4Na/Q/PoHQEYqh8WKv/mYMRE2PDVc+3lDrR3j7hMglQunuUH/YHQwmR7MENEq4O2Av+A1cgcjpsTyYzip93xUQ0tPoCl9ymVc3UyAMEw/M/eeqLSZUjaDbHr3rqPyVw26TVP4ixuf/sqS+hLi0WV2Uoy0L04GtWVEQAgvHB3hrGA+VUr/bV/7D2mQoZalLxGl99P9E1dk30/ojJWHfn6X3zUZcxax6qx7OSrV6V1Wc3uiANnZ24CGiRy5GJLDOnZjE37UOWyy+GWvQgxqBWsX1T8y4YW3XdPMSi1faGjKc2JAHlehJXstX1GRrcQWfOsjmA8JB82aI0t1iNc99DerS65TDMot7DKkPh8p4nHumjLoZa9HuJRwy4JzDfDaI/9QT1+EMgi/hMK4SQOAiwmM1Cf8s8yOKhdwTMzCTE4vI8VT1hHmLRtkZGQSQKHqt/1vpbc2WLsW1ffIsOELBXt2ZFWz/YQc3Q/PgsESkzh0xVfBHQImMWTd+TNeZAKzaitGgRztmxrCJ1qxdJe7AfkEgni/JrWr9QIzmjm6IF1L1Yx8aryT63cJ/6OfYUOUaFeyytXUTDpL7G4RFfiQlubKnXa9tjR4QTh5vrkoHgrzpEJop52sYZDM0W8F3sVtsZDO4h8uvclXKraxzFaTROFtcK+6Klklr253vqHbrv3sO8wFO/n+yaNnIs4JqZgU23ZxbVe/WYtgTvKJp1/2Wt/sDEhUeHHgF+Xqv3JRXivIjxSxDg8g+Tuky6VZEiIxGEL2j1/osxStlTuy9p9UcGAeUwBu1+9RdGFn38nCmXUSJHd8Mmh7XSGJ9WJkB26E9a374MTbpEbjIfJ9XfZATkOksoPAiBT+mz0QWiemfOINn3+IQYzk3wRgPZqlq7U8K+yPsftHAqmysRn93VaGcyxWslaCgDvF//B3ftUcOpiNULPf0f9YzpliCgSF69zlf/iQmB0d0mlyKsUxjFj5lgF4mIkoeRH8QniWfZGeMFBMy2ooEh8AEfR5H45m49wgAb0OsL+D0oBfMsswx7TpPYgX7Si4fsERwFk8uFVn8cjWS4r/L624zEBNU2OvWaLI8PFNSbPInytbE46oMF9as5pJp7JvFm75ygADHdv7Og3pJCylidgz1GJq74Prdj6tfTOjn+rl4IcQio+ahHeDOpERiVsXpXQb89D2VTfL9Wv5WC2hHRB3TZKOMbCwROkxphxVyBxerdBfXbKbzDLI8bmAoY/1QKDbcn+2C+t6D/nq2GLfkCKnKeM5b6rGceQYTmdolFr57HxbV7N/lWT/2ov4WOMS2bCSWYHAiT/907VAP4ZUV2RC6dWJ/WZgTn2VgGUssEfL8/xWwk6KdQ9xWulsQmT3Z2QmbwIBZJfbag/r0HC7RLlpqAP+OpP3TgxMES8Oc93MG9ITuzIFoq6kMF9UfwkbvFpvsPeGgQGzrO6Fs89cfIgdMhXtgOzoT6aEH9hWf1FG0yKs143qPVx7xtsUFtGwPPjOHHC+oTKKGBWidhRf21N5hsE44n6p6n/bGC+htoc3nEJOTfhsQon/609XZKkD1nfR7u+KxwPmNUszSbTYdbhKDw0wrqH80ozHyaoXyuoP4j7vYeXlj6pY/vw5FJQO7LHs/R6r8hEfSJC7SYnphHxf2EP4h2+gej2VwFI78fV3Wah/F/sxdyU44zjW8UCtdMmP3Bg4gAMyRy/gl/y9lm9r+CepnfHwawHA3Ely0z3Wfw37hXbxD7FkO0qH/Sb1+yK8+bDWcIcEVhQjD76bWqt0nf2QnE8/tswvsU6V7vRRiK2kQ+p6M8Dk6GKb8uUBEyBNSyPCJW/K9V6obytER3muvyHkXgvQTo1e1H0vxuw+UKDk2KvRRaNB/5Xmu2T9v3MwumvFoqn3KARQMwrxGX8Ljx782RwZ44vAWUhOjTEAeMoKbWsbHUGSD/s2DkvpZiIydGVgAW5ppYaHEYN20zW16w/Vbc1jh3nPJQFiweoQF5C8L2YTYUsl7uOaastexHKh/0tJ6vDKi5AKmzRnOzx6HJcq+49ZrR+DA0DtUGVEHEH6MpRkdgAlIZjhjf1KhZjI94yt+cg6hH1quhPDBC3urwa0AtX09eb8s3yLNHeV4GrDYq9nmdn7wrTB73FezTvKxV0QLcU77k2b98yDsHtW/mFueByXu5pXlw+rBuebMaVldrolz2zWKl1JE3VivJI8ej6ZPDY+kXo6Urw0Tv8JiPz+OY3i9COpEhWT4uTeuyi9AuTe7y1Wa7AkA6TEV4hQO6lin8Sgc3PabQqxzUdpCCrzbf+Gt0evKhp6DdqQbS3zVWlOVmV97y5mbp2no1e1V6nTwdTQrXS00qyBukKi09xDyuTN+A3miKyVvLm0zJsNGpNhvS/c3ZI82Hmlr3XvRhtcMvQh8hj+Syjm5JdFccgtRbyFbJx3KrJI8SUM9SSRcDUJYv+3K6XgQb0P3KK5OzOz4Nc7Q/Ae25uoAKIcqqnuHo7an3FYSeW8odoUowgc2N0EF+b85IfgqSD4oXgCTkhwO4yp5MX0Ra3ELQc2Q/fRFZhxOAkJGMAWImvZJxE1quA9BypD4LqYvqAyozMvuuQjizqNVZtGdcIuW5R4pqtWa/hO+I5X2SrLMvpJ3l6gMqs84ESNQh6SnBY18Y940XZx/xfg4MTuDY8AYzZubVnxET5kyOF/AlTxXOEV8xhS97qrh3ELP3S+krnlqwpDspuqdnkq9F4zNccWBjLcJmQsHjJDDDt2UjyGrrKUk2jAleT0WYi2Fq1oFanZ1ceZV8kCSNq4jU7BPOjv2Un3Z4+SCLTn4eMid/h2gJuqiLkIOIutesfFQ49yqoHe0orzhGRnYzgH1cHHhlHTx7src1jNbwV8RtaFjx+tv55o204dcRaf63CcXypfFUITPWKm+stfwGql2tsJ/0QvO3F3qwAfPVxkbQrmJdqrWatSm2wp/rIXvepLxCMgS3GJ/nm11w0xTYEv1RdKa/fcHt7p0oeyFTmKNZEeEsWyGP7fCJVSHr/sjSgvDhl5GFfTNHrnlV2hZnMqnP99VCXkCL+1N5dceZzNCK1Qt8tZTncnmOFwv2fAn22Dy2awbrtvBKbX8uZEso+1zjjjAgv7AznwMzYifRye/bEDHbQaMc9ORHZwDmW7cOMYo+s1zlJGOKK1oP3eFRfrzpoC/0tVfNgeeJQGMmPL3IV3KqRm7fALkjmMqTV8wsC+NtKPjFp5QP1Au/2rprgRzFcTTsB1/dl2OV+fEfqZZh94IKqmR/B+KVOmyCG0EFrQJFvoOb/MkUqcaj6bJFSk/pn1IRuHt0bmLOq851B9t9A5gl222US52ArH2nLRsYBc82ywzW3K+DbH4TBx81MiAX2m5YvfNPm5JMBwG8NApuRbNYKsvGSicqDMQ365hpzea3wtbvxOEbYC8MajgmptZ56eSKsCqSct5vvjMuSDnJTaYSlUDPPbxsk4H1GRqJZ0vWDdFIpoNqyqq3HHo4EeuBuD0N3ET3EXjVrpbTP57ipjDfpwyQ9bfvQE4S+f6GYJgOXsZCHG4bfgqWMy6rfF2MDdvRoGlg1LIEO/aBE+tncRc9A7iEiWOj5E58ssd2yXRqWX14D3PXQeqyzr2tICy3q+ZrfarckgnX7iN2XjkU8+qfLG2WUpyCRE5IiydDMz8Lxmu+W0CLrXs7Gwa4tC7meTk04CPh6apxjFdONeUHAuSOtruhQI6tlsznGI9z7JKPQxu5najK6YM4ZDDOgucYU/vyP6msoHFJJbsZibHGJaJ78tHqB30rzETvOyBysuZUVrwn01sjCiWEMbgjsmgt1LYOCGbYW7zXY3aH7FV4SyL95D2o/H4japjTLKXCatZAFYwHa5Wj28gKOj1msJX1avarib7lYWxPOt6REVlD5lcwKrEcFrG+RXXkEiywIUv8Jg1PcOZngG/y1fJgHvRm9GoeJBLFyLzFV4XB5IExmy0OYdpZER2MkUU03r6QQRdEPIh5OmvaqG9RLcovAaax4b+5U6MenVuqZDuSVNiB6XkGhCcttWasqmiUAXEoJ65EPDoVYALxjA92d7dpjJO/EZSoJlcILyUNlXy5XdXMxxV123yjFA9jHs2z1cpW46nkq520sO51+8F1UFRwT5rPfo4umEkg2CsOZd/UzBaN34Ya2YpYvdPXfn4TLcRMLI6tfGxrD2RnQBFwMaUcGCre4jDroQNYdRT7VgqaexmA2qYVuYcBPltVJwsA40JeFP8tEpdHA6SBeHk4YbRb2JNoygZXDIAoL6a8bbrDR8e4qqw2Bv5eNvYxxseu0NGwH6u3c4wvT8aEhaDbH5UMY7IR910OuRCIcAjiPGQfEygZFOXdlHHWgDqrFQlnsA6oahOnOYXkB86dPRu+wblHFTIcGZAdY27gobn5PfQ0Qn4ULm8DqDdk2vKT6gRiH3osSZRndMmbg+WLbyCOZB3iLsRz70pWLL9r3M9LvVrWR1lS075FcItwSx2bGbEnk2BEcnwetikWT/1KQZ0wc+iE+V5PXQY5132b3mc2xJZwzF0hVnPcnY6q40b0AGcxQFfMk1Zv99WV8yCz4Jm9q0xn4dnhfmciIka+V6eg1QulPXPUWFbXIEI756hAQV+bFjMdeYevrzvEqpVCjtfrDyFUE+0/F6WOoFwJ3DDPbQimOUM/ZB6enqRvnIeDf8r4ejelyhmCIcHLlnlDQiTL7fGH4pf7Ca84Qm4BViLzFEgVTwX3Jr/EY8841cDNydwMsUz6ntXmPT08R/JeK7yTxGeT7eB7EBKhVIArR5UldTa6IFu/PLRieRio6+vdGKINmLZvoD3vwPwG0fwWgsF6daQEj9aY0lX+b8A0W/f2Kl0xe4lnaJHFLEljvWfL0aCLJlcH0PVS0OqFFOjvECE/ZYRYiG1H7/M5viaoFrGKLE+I1XHQhICFLwZsvfa2yDvmxhBPt7sml4aQ/Vny2NpWFB6Qtw/oXHHXRs0xa5EQ6iAR6hdT/Ko83HYvtJd2WLdoZR4mDt05VotcTx7hYvnMEHWVLY/yCoLPTfxR08OmNepGAMfQGPdyxvMPzKiAyvkbLQpdXFZAnFFAzMYOyK8xb9iK9CmPt3RgxqaTQYuzk7BGqD/PSuGS4yteYnwL85inndwOCyiR4tIm7Mi1I27Udn98rh/LzV7kHtCyG+1zsztybLMIPVOuRLJgTZDbNlq3Wlioy98hYgfdtsHqxytt6w3R2mS7b8azpbwcOGQ/ZbXb798NDlO0lDbMe6Y2hpXmixzvuSY5SxACHGIG+2b9QjU8ZFvMayuouGvo1PR6HSaepYVrfo4FJVcR5ldM5Fy/ency45Zj5opezLnQ5RMbkDa2s1mc2JLD+kYEmGdrgKqJqZuMXV3BNVvF8O9zzJ1VB/Irp2LaZ5hZtJJpaHs3v1vGx17D30QXO5P9vQle3zYXB6KR8IOty1lDYCjcPMxQQvWm7h4zgYtFxe3mqHYJJqTy/4YRSFmLcogZoQs+7MzDwQeM2S9sslQmoXhgZXNPZfsvWvSGbU53w7jFrMCKaG9aCEXBgfjol0RMZJ8jJqYLfTMWedht3ItY1jE6VgzEFgyiQSuZO9ud0TDbUZyuf0JrrJgYsohKGARvqx+LhyBSqAi20xbiuoQqOukOmDqwmPDskkq1A8JT5p5LI1FzkJCBbBEZs4PHlE/wekxnn8FFH0cPpAXvIp2qiE755BLtA4LuDeMNi1kdN6IHDg0BJRykzH1WwklJyGQm8yIPDoTqYjUDJzPDrMRSMr3ow90m7IVzdOAuTujkwAXzG271JbYdMdplYx0wxvG8EXFmxy0q87ufBhPlyubsFiYtEF2c5GmNGgxwZ79heymHSZu2GeIWNhqoYDWn5clYvHn0rLrj2qCXDKMcjUZExasCWUghnPoNZHF+TltmqMqX7+lzeWHOoqrEPYvNEmCp16tcWEjBm2/KkjJPkJDMvqGCwOQJ8BnmVH6PwUab6DY2PJTJIdYtP2hlBceGsUTi5jf5idJZ6upzKNXF4BAy3Od/mVNrnnwBtcf4pvT9rXk9TJZClZOyfN3Uiw1+aqz9ZGj21+xM18VdC0eXYDRMOXJEHROx+ieOcnNMmj2EKHu2R3Erm1BbE1lakqyDBRql8orVV3y9SB2xNfvFHIKLKAKWC4GzbbIjdmzZ25QTWxaCkzOTHEGiQZkQEBpAkxKCGXFySBRbdjjAsyk7t3sjCAfeRoTnuhX1Z8w8ZiKQUKSJKqpVLtbSku7ifcCb8O3dkhioCkLO+hZyzvElui7hp2diCcRJsOeiouz8xkP4MIt+j+FE6iO+ytaMul8vTbboSH4sgAldHkR4JVHD0jyCycCKmA07Vh/19YqdiWST5tLMl28Vu52laXUhVh/39TG6msLtijpupjbB2bD2ggVzYg7eSkxzVWYyZ2E4LTmUhHxFJgDLe/k+pUy3YvVVX1+xnZvMf+aUdG5u2r7mq6uwDqenhP+Q3dXyFfI1ziohSoGuaXVNznIlFjBWn/f1tTP0wE3sF3x1nRTDVIpf9NX16aSUzIYUMlE37Ey2D+LmuAOya8uRZzed/+cUOOgkwwuzfbJkqFaE40/6+qZzw0tsln/n65u3R0OmBzGtqIearqAij0WqAwT3sEtRlp05R/1Tvn54f15rv+6rR0SX3C8/7etH9mmLuKSTODBYQjXFo9tb0gl0eMEokuOEZR0LBZdWMXR/PBlfEKXsJiC7I1cg42PsOD7Gtmv8lwY1IoODOKFkkfF075enHFJj7sze6YkvGZnP4e7v3n0QTS/kYu1zR6tGhwAYl8W9lv07iLpV666bkNhhCopdCudEjgoNeoVBDpr7GFlM3lZC/QUF5UutZTBOtc7TWyMWmYnKOMvIIrbyxi1GVKiQZz+j17XHCtEgd4O4hN9jb+MwtzPg7WjP7k/2IhDJcwgCbor+jJwIc1EV6GhVvLMijrdcIi4STuzHszaLmskZhEA7YDOwvX3TeDEG1JUPfHL+qme3kFjTjAUayOoCic6lATnMzzemjHsSzib7nKogUWwxuaiEvFTf4whnx+/NmbhhXJZlSIBXWqQumZPJPO44o/Iy4ldlsypWp5P+YBumuN+dw96el/uLaTGD16l6CdO3n/SjXl5gX0n0upUH2ytf9dKCWqhDGFlgnwULvdH5rjxsk8mYZzZOK+SrDGYNJOXnFnRxKLSFoUuumecV1MOEQmiU3AGfX1C3GLVSL9B6QXKr/Rjraffhm+VKsz9ydnzRPrVUBbUUS2g5xMe2NctJuSP8P10dScplvCA4MOBnqBXzdJGxFNVRk3VqTCDMFNfS2MJx23Grf2GE/AGciOdWktzVv7CgL5Px2JFk6+RFBXX5DpQ27amdYVxhqFfRPpYe++yF5sEsFvmMt0fsQcTpZHNHQa40iC3mwti+q1AfYotY+BE+wag7Hoj93D6rXlnQ1xhQO8qBrt1KlCVWryjo66bRtjXmYfQ9BxFq6O4cFtX1pp/VKbq5yzGEKMoaDNuh32DqAsJoXJeI3N7qqYfsywHqwni7xORizkC7Mf1ECBfPkTljigm7CQd9dkHe61btPXENlhjBQ7dHw/0t+aleut20ozP8y35X0A+HOyTpzAoGUKb/VQX1CBzHdrTPJoOQynYuIfbI4BLo9tjnJuOQkTpckz5k8ETjLCzFzqm5hcXq1QVdkC8Gl+RXErmuOd6fYeBMVfK5PEhWhjs75d0DiZCtZKQwH1pbR3hBeQP7zcQG1awkvB7j61eFUsHmnWYXbanKIFlbqCTDX9gW6nHJ/LobwXR20RMB0cXiFoFfUTQktTFkNU63dy/QhV7avxi2fCnkdQYkM3lk/9LwFRlfsjC8hTFDSEYISbtHyGJmjE4OsXpNQftSXJX+BK2wJbmW6aExT6G4fynoQjt50m10UnnuL1tWeiRm11PJ34rXKWpFlqNHHJH8ho1N6WlSaei8roBL3LdOhWAboDoq7wSCkuygaq3WLMk+q8OO/I1Jcl6pVi2Zm05zk0xGPhvaDsLQXkEX6+YefCH/hmPRvvGStxuUluTqMnn2sVxtbEJRsI40mpWgt1YNahX5op/pZCVhrx3ZkEjG5tI3ZjPlzvJTzPOzMMfPYp6fpaTD0tjeg6LGD/LmYkV5O6iBK3GK65vLGu5vCsaNt/BnqmJ0fn+K5Wa5W9Cb2XT23EsJ9dYCO7Z7QW0h7+EmcIfVHooVt6C3FdSydCyjt5BXcgMyRknM4i1JxxbOVdFKkPaHR8gawQqrK+XRZPpKwP2xdFuUP5Asf+nWPtGz16zm5ULLPObzK1XRLXKF4O5uqSbTUmw0O/JX580HIBdqTH6vs2GmYjEt9JrtFGVpvR2grm1TQXk5X84jHimZY9OKmbqj9EJyzE5qdU24OU6rhv0j2Sfg13wIsldrNk+ZhyCXNQL3SeXLq3DR7nY2BPOKTCIsiCgtpOJ5U0HJz3AcuDQ9cyA7t7lUSRdIPZkxc0fA7NvrcHCyRQQOPqCBx+othewt4loyn/igRF3x6jmp0VL34zXRIcl7MoegC0fStfVDswmmaZwGBjrm443m9D4mY7DUOyAylO2gOT1lWDxEwS4cb+69r3tUI3chrV6JCvslTZnllHtRO3o345LLMD0AYIi9gR6R2vzSfCOsJ03DyPx2g9ZDMe96bA07Pufcs6kUX4hsSj8MVzMHxtd4T06SGUJALT69fF5KvBqIn8vhiADTeTE/AFDqGvm7oiG3MYEMz7yDMndFjJci4Zz5R7nyaqWzkT0+9deNKSkIFXmNJjhF89lhU6S0EG6UWmnJGhZXWEKLm+Zbrss210uM1hH7xdW0vOLKiQU7mj2WdR9XdYbLfl01fXV7whTdS9rLatX8u9nLL3pYe4U8FDLPUXLAKzNg+uTiKkOWtUYEDIMhg766jMhxiGb98y3uanfk7avyTwfy0XHFCm43mQ8EOmwKtmdf3/RHm2zYnLDcAsHv1PI8Rn5YpOrJY4NSu1Mtm9HpECHQIVmvUdok8Uvu++2FDfmTcMWN2/l3YeMO/l3cuJN/lzbkz8Atb9zFv0c2JAgj87WSvnQ4utZsIgVyxzCHmL2Q7HHBObEh0MvYx0gun3socYV5NHdlV/69iqXRJb26Jn8X85qKwK6tdPj3uoqM+Pq16nrX0LiBXLnUcgN4SJ0zKumN2FKSm2SnuTmo8+9DRRmM7B8W1lEsMg8Xrh7BjAudR97NP7dU1qT1o0qrq8Lmo92To8e0pefHtmUA3+T2r8fJX2cn/eYyhpH08UwcybeEJfMnW59walX4/FZ2AJJbQyOg22QwtwvgDhncne7Pfz5x1fz1z7tWKzIzTwpbxnQ/2bDwlNMmeWqrWu7YAX9b2Oy2zSdMn1aty3i+nbCYjPDptdJqIOP6jmqjZf46/DNWu52OkUvJvkMjtyr8u4cqLNBOMnkV8laGgaymEvsG+bVmt2NprWO32EzMTG7UwRG2qsaJsH8u4WQtWLfv/U7JNiZDqYkutycYY/XMRO8aWEGSO0utlrmltX3evFpqYBLIlcVS1gLmHx5E+BVnOKqNNSEQuNGuuZleR2Xl8/6WzgYBQpurhkGpbf5q7sn8W71jmd4/lHXfrTdSpX0k0Q4CHI7SLZWq/KSgaXh4dCX76P9jEok9Xlra5fwtdiae4OR6q6SolfB5G+6jcHE7e6z0+kRUP/+3JJ7Ubp4meTJJQvgp5IW24eqpHXkvSebpHdywVaNkpXRedXkjKJ/i3p28J9+SLwdGtX2skqhWAaa7jpNiks+1WUhgYotFvIupGiwlE277XE4wjoTlNlf+FrpivskrueNhq9pI+ToB1ySXk6DNRiuvELWyvV7ZaQeB9Er+KuZ7tWnhV8sISK8R+VnQtcIg6XWS2j6vN5wkwrqBLgSd7EOELOmNkjpSN4nU8LDIrpZqgVnIp2pNma1avdS+u2ta1O3jU3LoWd2Mp2mwK9WSRW6lubutYln2jtoHDuQum7NlD8tM0sPdlDyiwhJ0sEcF9dYGRlZ6fOxaYO41vglDZlf441hHQdv8hepvrjZC2LCtvjVZdneIPpvdg8JdYWLYvg1jw+TYF5FPw+RwkZYUv52WIu7vkPGRPiM5z7RF09Di3m0UwqRwO4VOUriDQjcp3ElhMyk8kYJRVSncReEeKRge7023gPtkM7FT953ZVvNdsn7d0qb43TKNQc/J6n4cgnVjVXr1Q7+h9PQgHpRHUX9sPsGqU8fLuoQRvop4Mh/Bk8lXBcDxYdKPJu8IXI7REomrTzg1DonEHQ5g+GU5X7TcDyaV5/7eh8r+3gcFXSGYLG7sPLKPPSyVxXpc4s+EUPLKl/wBJ66ktZDK/Oqo07S/M6KsTUYgUgPAK2Fe059hZueo4tw5KqbevSHH/zt0khqOXb5IANQglqbTviO0ootzPYi3Z/xO+ZMx6ZEQ9WP2yejEr/KqZkp9W5O8iixcRAuXcibkPomje870+AlcyTm0mKnLzeqnmdWL6gMqmVqvnwAZpqP3Keht9Iln5X7Im6AnmrCbrzfx8I08hBY5Bj4DAwExK+PnuuhqlJRpIDc/XwAnHvf3411ub9TnOdkEKYYD02pHYnEWeYyelnclBrEmWmm1TwI5uYZCGj5ik36RRmkVtIwUv4QUR3370/CsYUeq8od/nPEQ5zXoGOupu5gXUi+N5fvhvaG1zAWMf6dXaolvUmw2zOMv5pPSgmzmYWkzIL9Ykvql0KpvizNKxAGszyyIHkCd4AkISjoyPwowRR3MfXqSWccdCKjAPzB+gp4jaCVdIAw4kp96nFB65j65YkpcQ9pSA5kyfDm+wcCXCUqXHyQeCDUbABIVkAmQmJPH4s9FSps21ralfBOrrEogSWKNDx5YNfcuq+6GA1u1OBoSLnteUWmuULnIUs8vyiOAcxiXFxQhy+AI8LL2zH2UelGR2wd7Z9if0k//vHpxkUtYA+oQRjUfv1QvLarFpBMDtYc7rxAR7SJOJ1N+j3KfB0uP3sv6Qd6cDiJChGQKJcNjRtlciKEHct/D0b9kJq6zwYEfI8ZsVhu9zWog3ovXZLNoXwR2f1OmZ10pa/cLyavTnMkrWF10v5zwnHnzjb0jU6ghxZQtGZ3y5MaWJsIaqZfHQBAzQXouYj8wF0TePnrGRPssiHFVXnyc5vQ+kVdehwatvKWZG/fXWU+DlMfnMHGT2S7X5vLDYqGF7kQIKZGo+hraZmChUT7CrcSjhtzZ5jEWBJQiLKK0F7jx3I7gZGlD9CJjJDdb0lLHSStzvRP/SxDXRKv+JYih0bBE6bIW9m8l3QfqfsTV0rIiBmFnrzNpiUw1c2zadoS0aGfSuOPEqHyZo+yA/H+oQJcmzh43c/RfUiQonp+YQ6M0f8cjTEZamMk9hs0Xk6BFddAkhmjzTeZAvnqCXcl+xEqBYCN7ii3mcN6nsXISCJK406bUS78lkZouzjhwsxWNxTaghFy7IUF/j1XNYhtE5gMHm2afWlbFS1Ox1axcS+qcKTINKbaLdaU/ytyfcC1jnlNS8h5IHj/6Q649uYZD4ePZNJpty0vJ4rmLuuJGp6gXUupr4smYLwFESQeMXUJ3OEfeTn9vODLRr1i4iNUri7qQownk5UVdPIhNVE6CE9v2Oyuw4fowFNqWuPYmo4GFQFPedaUFO95QeskjGwDVgpvkLaptaWDc7LgWOwbYkAJtYqm0dbF6TVF+RUfDBJBgq1cX2c0FVb02wTF7V+IrKq23MfrmUY3s2TpDgQoX8/K9ZCMvHTN0QeE+1raN1euL2hfhmEYYrnh7l/vqzVTG+KmMQL2KrqeOs9excUSW/BvYOf5/ZAEAAIWRvUtCYRTGn/N6r2nZF9oHlXh1yMm4fhC1ppBNCTVFy1UuFtg1vdfCCGuKSAiCoCXIudaQFrdoDFr7C6IhGgqiqfe9OkSDneWcM/zO8z7PS8TggOfy/E4a2KvG0tlSWl/MVBK6ms8mFuKF1RK88IFGMAk/gkQgRiaTAEkigEEiOVXMVbZ0w4KTXAcA3PCIxstuQ2gxTHA6QEcOzkDc4KIIQmJyRsvrSrQb6hVjmx+kXY6bTODEcY+8kivrumFuFC0lpsYSEXU2os4pmqVE4zNR9ffhvjrep07QCLcV6ti+skWO6bBm60yIzU8BTBPJDrFwb9QjBl52c5HvZn6slSqYSfeLlfn81l5D4+F+1v0VXJ18oevG5purGQ86/WtfZ/sP66Gnx3+5YfSyUfTBU+Pi3mav71bGhfiDj+d7t50CQiLEJcPSy4ZWUJaNQlVJasaOZsKJjvO24Y4F2+qfSE/5SfwA(/figma)--&gt;&quot;&gt;&lt;/span&gt;&lt;span style=&quot;white-space:pre-wrap;&quot;&gt;&lt;/span&gt;" style="text;whiteSpace=wrap;html=1;" vertex="1" parent="1">
          <mxGeometry x="260" y="60" width="80" height="50" as="geometry" />
        </mxCell>
        <mxCell id="ICoC3vKATYcrF40Dt-nO-65" value="" style="edgeStyle=elbowEdgeStyle;elbow=vertical;strokeWidth=4;endArrow=block;endFill=1;fontStyle=1;strokeColor=#23445D;exitX=0.5;exitY=1;exitDx=0;exitDy=0;entryX=0.5;entryY=0;entryDx=0;entryDy=0;" edge="1" parent="1" source="3" target="7">
          <mxGeometry x="22" y="165.5" width="100" height="100" as="geometry">
            <mxPoint x="790" y="190" as="sourcePoint" />
            <mxPoint x="190" y="500" as="targetPoint" />
          </mxGeometry>
        </mxCell>
        <mxCell id="ICoC3vKATYcrF40Dt-nO-67" value="" style="edgeStyle=elbowEdgeStyle;elbow=vertical;strokeWidth=4;endArrow=block;endFill=1;fontStyle=1;strokeColor=#23445D;exitX=0.5;exitY=1;exitDx=0;exitDy=0;" edge="1" parent="1" source="5">
          <mxGeometry x="22" y="165.5" width="100" height="100" as="geometry">
            <mxPoint x="680" y="220" as="sourcePoint" />
            <mxPoint x="440" y="460" as="targetPoint" />
            <Array as="points">
              <mxPoint x="890" y="460" />
            </Array>
          </mxGeometry>
        </mxCell>
        <mxCell id="ICoC3vKATYcrF40Dt-nO-68" value="" style="edgeStyle=elbowEdgeStyle;elbow=vertical;strokeWidth=4;endArrow=block;endFill=1;fontStyle=1;strokeColor=#23445D;exitX=0.5;exitY=1;exitDx=0;exitDy=0;entryX=0.5;entryY=0;entryDx=0;entryDy=0;" edge="1" parent="1" source="7" target="18">
          <mxGeometry x="22" y="165.5" width="100" height="100" as="geometry">
            <mxPoint x="1350" y="220" as="sourcePoint" />
            <mxPoint x="450" y="470" as="targetPoint" />
            <Array as="points">
              <mxPoint x="760" y="590" />
            </Array>
          </mxGeometry>
        </mxCell>
        <mxCell id="ICoC3vKATYcrF40Dt-nO-69" value="" style="edgeStyle=elbowEdgeStyle;elbow=vertical;strokeWidth=4;endArrow=block;endFill=1;fontStyle=1;strokeColor=#23445D;exitX=1;exitY=0.5;exitDx=0;exitDy=0;entryX=0;entryY=0.5;entryDx=0;entryDy=0;" edge="1" parent="1" source="18" target="23">
          <mxGeometry x="22" y="165.5" width="100" height="100" as="geometry">
            <mxPoint x="350" y="510" as="sourcePoint" />
            <mxPoint x="1860" y="730" as="targetPoint" />
            <Array as="points" />
          </mxGeometry>
        </mxCell>
        <mxCell id="ICoC3vKATYcrF40Dt-nO-70" value="" style="edgeStyle=elbowEdgeStyle;elbow=vertical;strokeWidth=4;endArrow=block;endFill=1;fontStyle=1;strokeColor=#23445D;exitX=0.5;exitY=1;exitDx=0;exitDy=0;" edge="1" parent="1" source="8" target="13">
          <mxGeometry x="22" y="165.5" width="100" height="100" as="geometry">
            <mxPoint x="1350" y="220" as="sourcePoint" />
            <mxPoint x="450" y="470" as="targetPoint" />
            <Array as="points">
              <mxPoint x="1740" y="410" />
            </Array>
          </mxGeometry>
        </mxCell>
        <mxCell id="ICoC3vKATYcrF40Dt-nO-71" value="" style="shape=image;verticalLabelPosition=bottom;labelBackgroundColor=default;verticalAlign=top;aspect=fixed;imageAspect=0;image=data:image/png,iVBORw0KGgoAAAANSUhEUgAABhsAAAYbCAYAAAAGsQssAAAACXBIWXMAAC4jAAAuIwF4pT92AAAFFWlUWHRYTUw6Y29tLmFkb2JlLnhtcAAAAAAAPHg6eG1wbWV0YSB4bWxuczp4PSdhZG9iZTpuczptZXRhLyc+CiAgICAgICAgPHJkZjpSREYgeG1sbnM6cmRmPSdodHRwOi8vd3d3LnczLm9yZy8xOTk5LzAyLzIyLXJkZi1zeW50YXgtbnMjJz4KCiAgICAgICAgPHJkZjpEZXNjcmlwdGlvbiByZGY6YWJvdXQ9JycKICAgICAgICB4bWxuczpkYz0naHR0cDovL3B1cmwub3JnL2RjL2VsZW1lbnRzLzEuMS8nPgogICAgICAgIDxkYzp0aXRsZT4KICAgICAgICA8cmRmOkFsdD4KICAgICAgICA8cmRmOmxpIHhtbDpsYW5nPSd4LWRlZmF1bHQnPkZpbmFuY2lhbCBjaGVjayBCb29rIExvZ28gZGVzaWduIHRlbXBsYXRlIC0gNTI8L3JkZjpsaT4KICAgICAgICA8L3JkZjpBbHQ+CiAgICAgICAgPC9kYzp0aXRsZT4KICAgICAgICA8L3JkZjpEZXNjcmlwdGlvbj4KCiAgICAgICAgPHJkZjpEZXNjcmlwdGlvbiByZGY6YWJvdXQ9JycKICAgICAgICB4bWxuczpBdHRyaWI9J2h0dHA6Ly9ucy5hdHRyaWJ1dGlvbi5jb20vYWRzLzEuMC8nPgogICAgICAgIDxBdHRyaWI6QWRzPgogICAgICAgIDxyZGY6U2VxPgogICAgICAgIDxyZGY6bGkgcmRmOnBhcnNlVHlwZT0nUmVzb3VyY2UnPgogICAgICAgIDxBdHRyaWI6Q3JlYXRlZD4yMDI0LTA2LTA4PC9BdHRyaWI6Q3JlYXRlZD4KICAgICAgICA8QXR0cmliOkV4dElkPjI4Y2VjZjA4LWZiMTItNGM2MS1hMThjLTAyNjVlZDRiZDEyNjwvQXR0cmliOkV4dElkPgogICAgICAgIDxBdHRyaWI6RmJJZD41MjUyNjU5MTQxNzk1ODA8L0F0dHJpYjpGYklkPgogICAgICAgIDxBdHRyaWI6VG91Y2hUeXBlPjI8L0F0dHJpYjpUb3VjaFR5cGU+CiAgICAgICAgPC9yZGY6bGk+CiAgICAgICAgPC9yZGY6U2VxPgogICAgICAgIDwvQXR0cmliOkFkcz4KICAgICAgICA8L3JkZjpEZXNjcmlwdGlvbj4KCiAgICAgICAgPHJkZjpEZXNjcmlwdGlvbiByZGY6YWJvdXQ9JycKICAgICAgICB4bWxuczpwZGY9J2h0dHA6Ly9ucy5hZG9iZS5jb20vcGRmLzEuMy8nPgogICAgICAgIDxwZGY6QXV0aG9yPkVyYW5kaSBBdHRhbmF5YWtlPC9wZGY6QXV0aG9yPgogICAgICAgIDwvcmRmOkRlc2NyaXB0aW9uPgoKICAgICAgICA8cmRmOkRlc2NyaXB0aW9uIHJkZjphYm91dD0nJwogICAgICAgIHhtbG5zOnhtcD0naHR0cDovL25zLmFkb2JlLmNvbS94YXAvMS4wLyc+CiAgICAgICAgPHhtcDpDcmVhdG9yVG9vbD5DYW52YSAoUmVuZGVyZXIpPC94bXA6Q3JlYXRvclRvb2w+CiAgICAgICAgPC9yZGY6RGVzY3JpcHRpb24+CiAgICAgICAgCiAgICAgICAgPC9yZGY6UkRGPgogICAgICAgIDwveDp4bXBtZXRhPtG35xwAAX3VSURBVHic7N09i1xlHMbhezZR4guCYlbiEgQjSDhC8Giao5WipLRNITGdhSAKikHUIL5GEb+EbgJ2aqGtsuWCxYJiEWHBFGns1IBZm8lCXndm1/jMM891fYHz64aZm/OfUQDgPzb03TNJjiR5JEmXZKlsEQAAADPmtyTrSb5PcmZlde3XsjnATo1KBwAwH4a+uz3JySQvJNlbNAYAAIDa/JDk1Mrq2jelQ4DtMTYAsGND3z2a5KskD5ZuAQAAoGqnV1bXjpaOAKZnbABgR4a+O5rky9IdAAAAzI3vVlbXjpSOAKazq3QAAPUa+u7JJN+W7gAAAGCuPLR/3+LS+rnzX5cOASZnbABgW4a+O5DkxyS3lm4BAABg7jy2f9/i2fVz538qHQJMZqF0AADVWk5yZ+kIAAAA5tbnQ9/dVToCmIyxAYCpDX33SpLDpTsAAACYa3cnebt0BDAZYwMAUxmfT/qsdAcAAABNOFY6AJiMsQGAaS2XDgAAAKAZ9w59N5SOALZmbABgYkPfvRbnkwAAAPh/+R4KFTA2ADCR8fmkU6U7AAAAaM5S6QBga8YGACZ1unQAAAAATbq/dACwNWMDAFsa+u6NJI+X7gAAAKBJu0oHAFszNgBwQ0PfHUzyYekOAAAAAGaXsQGArSyXDgAAAABgthkbALiuoe/eTHKodAcAAAAAs83YAMA1jc8nvVe6AwAAAIDZZ2wA4HqcTwIAAABgIsYGAK4y9N07cT4JAAAAgAkZGwC4zNB3h5KcLN0BAAAAQD2MDQBcyfkkAAAAAKZibABg09B37yY5WLoDAAAAgLoYGwBIsnk+6a3SHQAAAADUZ3fpAABmxpnSAZfcs7iYvfftK52xLQujURZGo9IZAABAZTaS/HPxYumMqV248HfO/vLzzX6ML1lQAWMDABn67oMkD5fuuGR4+tk8d+x46YxtuW33Ldmz28crAAAwnY0kf/z1Z+mMqZ0/93tOHH/+Zj9m42Y/ANg5Z5QAGjf03eEkJ0p3XMabAQAAQHP8ng7UzdgAwHLpgCstLBgbAACAxtgagMoZGwAaNvTdx0kOlO64mrEBAABoi60BqJ2xAaBR4/NJr5fuuJaRM0oAAAAAVTE2ADRo6Ls9mcHzSZfYGgAAAADqYmwAaNP7mcnzSWPWBgAAoDHOKAG1MzYANGZ8PunV0h03MvKfDQAAQHPMDUDdjA0ADZn180mbvNkAAAC0xtYAVM7YANCWjzLL55PGbA0AAEBrbA1A7YwNAI0Y+u6JJC+X7piEM0oAAAAAdTE2ADRgfD7pi9IdE/NqAwAAAEBVjA0AbfgkyQOlIyY1MjYAAACNcUYJqJ2xAWDOjc8nvVS6YxrGBgAAoD3mBqBuxgaAOTb03R2p6XzSmLEBAABojq0BqJyxAWC+fZqKzidtMjYAAACNsTUAtTM2AMypoe+eSvJi6Y7tMDUAAAAA1OVfAAAA///s3d+LFWUYB/DHwE1RNhQzsYuIDIwxLyZKnETEEFsTUyyEIkXIrFx/ZUhIv+gqKDAQuggEQaT/0tOF5xhCpu7OeWfe9/187nZ35jzD3pw58z3v9xU2ABRoWp90d+jrWDErGwAAgMpMrG0AMidsACjTzYjYPvRFrJQ9GwAAAADyImwAKMy0Punc0NexGrIGAACgNhMLG4DMCRsACtK1zWLkXJ/0kLQBAAAAICfCBoCy/BEZ1yfNqFECAABqY88GIHfCBoBCdG2zFBFnh76OPggbAAAAAPIibAAowLQ+6c7Q19EbWQMAAFAZezYAuRM2AJThVkRsHfoi+rJmjbcnAAAAgJx4mgOQuWl90umhr6NPapQAAIDa2LMByJ2wASBjXdtsjpLqk6ZEDQAAAAB5ETYA5K2o+qSHrGwAAAAqY88GIHfCBoBMdW3zYUR8knruqzten/sMNUoAAEB98kwbJmlSEh8SIQPCBoAMTeuT/ko9d8fON2LpxEfzHyRsAAAAKpNn1JDsy2K5/nugKsIGgDz9GYnrk9YuLMTVH39JMkvUAAAA1MbTdCB3wgaAzHRtczwiTqWe+9n5C7Ft+8sxSXALrEYJAACojk0bgMwJGwAyMq1Pup167s5du+ODkx9HRKL7X2EDAABQGVEDkDthA0BebkfE5pQD1y4sxJUffv73FwnShjWKlAAAAACyImwAyETXNqci4njquWe+uhgvvrTt4c+TFGHDc8IGAACgLlqUgNwJGwAy0LXN1niwKXRSO3ftjqUTJx/5nT0bAAAA+pfisxbAPAkbAPJwJxLXJz2/bv2j9UlTk/tJNm1IMAMAAACAvggbAEaua5tPI2Ip9dwzXy8/Up80k6RGSdYAAABUxJoGoATCBoARG7I+6fCxE4/5qxolAACAXtmwASiAsAFg3O5ExGLKgY+rT5pJsbLB0gYAAKAmogagBMIGgJHq2uZ0DFCfdHb58n/WJ80kyRrs2QAAAFRE2ACUQNgAMEJd22yPiFup577ZvhWHjh77/4PSpA0AAAD1UKMEFEDYADBOd2OA+qRLN3564nETezYAAAD0StQAlEDYADAyXducjYiDqed+fulqbN6y5YnHpdizQY0SAABQkxRf6gKYN2EDwIgMWZ908MjRpztYjRIAAECvtCgBJRA2AIzL3YjYkHLg+g0bnqo+aSZJ1vCctycAAACAnHiaAzASXduciyHqky4+XX3SzGRyf45X84AaJQAAoCZqlIASCBsARqBrm1ci4mbque2evXHg/SPPdE6SPRtkDQAAQEXUKAElEDYAjMO9GKA+afm775/5vCQ3wdIGAACgIlY2ACUQNgAMrGubLyPi3dRzv7jybbywadMKzkywskGNEgAAAEBWhA0AA5rWJ/2eem67Z2/sP3R4ReemqVESNgAAAPVQowSUQNgAMKzk9UkbFxdXVJ80kyJssLABAACoiRoloATCBoCBdG2zHAPUJ527fG2F9UlTVjYAAAD0StQAlEDYADCAaX3Sb6nntnv2xr73Dq3qNdLcBAsbAACAiuhRAgogbAAYxr2IWJdy4Grrk2bs2QAAANAvUQNQAmEDQGJd21yOAeqTzn9zfXX1STNJwoa5jwAAABgNCxuAEggbABLq2ua1iPg19dx39u2P7sDBXl7rfpKwwdsTAABQDxtEAyXwNAcgrb9jgPqkC9dv9PZ6KWqULG0AAABqImoASiBsAEika5trEfF26rkXrt+IjYuL/b2gGiUAAIBeJflSF8Cc/QMAAP//7N1di1VlGAbgRyFThMKwEgsU9EBZlbCiopVISGKaGSJDYvn9lTqagoSVpkgY9nHQQedBRP9ydgftbZbZfK31rJl3XdcPmPtwb+bez/0qGwASjOeTfszO3bn7vXhz565W/2bKA9GhbQAAAABYTpQNADn+yA58dt26OHftRut/N+X3Nk4bAACAgXDVAJRC2QDQsaauvoge5pOmb95qdz5pImVGSdkAAAAMg6oBKIWyAaBDTV1tj4gH2bm79uyN+q23O/nbOQ9Edx8BAACwFIzUDUAhlA0A3eplPul8B/NJE95sAAAAaI8VJaAUygaAjjR19WVE7MjOnb55K9asXdthghklAACAtrhsAEqhbADowHg+6X527rvv7+9sPmki5Vc3ygYAAGAgXDYApVA2AHSjl/mks1eud56TMaO0UtkAAAAMhMsGoBTKBoCWNXV1O4qcT/rLaDTTeYbLBgAAYChcNgClUDYAtKipqx0RcS87d/f+A53PJ01kfBHWNQAAAEPhsgEohbIBoF3p80nPrV8fpy9/nheY82hDQgYAAED/VA1AKZQNAC1p6upuRGzPzr361Z2U+aSJjDcbVjhtAAAAhsKOElAIZQNAC8bzSXeyc/ccOBiv1q+nZmac+CobAACAoVA1AKVQNgC0o5f5pFPTifNJE351AwAA0JqM63GADMoGgEVq6urb6Gk+6enVa7Jjkx6IdtkAAAAMg6oBKIWyAWARxvNJX2fn7j14KH0+aSLlVzfKBgAAYCBcNgClUDYALE76fNLzL26IE5ems2Mf4c0GAACAtqgagFIoGwAWqKmr76KH+aRrt+/2Mp80kfGrG1UDAAAwFC4bgFIoGwAWoKmrNyLiZnbuvkOHY9srr2XH/sNoJqFsWOnjCQAAGAZVA1AK/80BWJh+5pMuXsmOfcwo46uwGSUAAGAAXDUAJVE2AMxTU1c/RMSW7Nxrt+/GU6tWZcc+xowSAABAO1QNQEmUDQDzMJ5PupGd+8Hhqd7nkx7KKBtcNgAAAAPgsgEoibIBYI6aulodPc0nHbtwOTv2iVK+CysbAACAAVA1ACVRNgDM3f0Y8HzSRMabDSsMKQEAAAPgsgEoibIBYA6aunonIq5n5344dWTpzCeNpbzZoGsAAAAGQNUAlETZADCL8XzS79m5Gza+FJ+c+yw7dnYZv7zRNgAAAAOQcTkOkEXZADC7BxGxKTv0+jf3ltR80kRO16BsAAAAymdFCSiJsgHgf4znk65m53708dHYum17duyc5PzyRtkAAACUb8ZlA1AQZQPAEzR1tTZ6mk86fnE6O3bORjMznWc4bAAAAIbAA9FASZQNAE/2ffQ0n7SU5TwQ7eMJAAAon64BKIn/5gD8h6audkfEpezcQ0ePLdn5pEzebAAAAIbAA9FASZQNAP8ynk/6LTv35U2b49PzF7Nj5y3lzFfXAAAADIDLBqAkygaAx/0UERuzQ5f6fNJEzoyStgEAACifywagJMoGgEeM55MuZOcePnYyNm/Zmh27MBllg9MGAABgADwQDZRE2QAw1ud80tEz57NjFyzlq7DLBgAAYABUDUBJlA0Af/s5zCfNKmdGqfMIAACAXrlqAEqjbACIh/NJZ7Jzp06cXj7zSRMpD0RrGwAAgLKpGoDSKBuAwWvq6pnoaT7pyKmz2bGLlnLZ4M0GAACgcDMuG4DCKBsAzCfNixklAACAxRu5bQAKo2wABq2pq30RcTI798ips8tvPmksp2zw8QQAAJTNYQNQGv/NAQZrPJ/0a3bu5i1bY+rE6ezY1uSUDU4bAACAsrlsAEqjbACG7JeIeCE7dLnOJz2U8kB09xEAAAB9ctkAlOZPAAAA///s3UuLHVUUBeDdQlol0pLgCxUUdNChYoQSDSlD0Gjw/QhBMTExiho1D00wPoiKDhyIoqAoOBECIv7L207udSbC7dSuqn2/7wf06lmf6lVnlbIBWEnz+aST2bkn3j4Td99zb3bsNZVxHnazAQAAqM7NBqAaZQOwcrq22R0DzScdO/Vmduw1lzGj5GoDAABQ3czVBqAYZQOwin4N80nL880GAACAbdM1ANUoG4CV0rXNyxFxPDv35JkPJj+ftJDzgejeIwAAAAZlRgmoRtkArIz5fNIf2bn3b+6JoydOZcf2JudArG0AAABqy5moBcijbABWyR8RsTs7tMx80kLCediMEgAAUN1s6F8A4BpTNgAroWubVyLi5ezcN94/F3fceVd2bK9S3r5RNgAAAMW52QBUo2wAyuva5raI+D079/7NPfHSa69nx/ZuttX/+ze6BgAAoDJFA1CRsgFYBVfDfNK1k3KxwZ8nAACgLlUDUJH/5gCldW1zPCKeyc598+yFcvNJCxlv4PhmAwAAUNnMzQagIGUDUNaQ80kvvHo8OzZNzjcb+o8AAAAYypa7DUBBygagsqsRsZEZuGN9ve580r8SbjZoGwAAgMJcbAAqUjYAJXVtczIGmE869d65svNJCxk3G3asr/eeAQAAMBQ3G4CKlA1AOfP5pN+yczf37ovnjr2SHZvOGzgAAADb47kKqEjZAFR0NQaYT7r41TeZkcNxKgYAANgWH4gGKlI2AKV0bXM6BphPOv3Bhbj19juyYwfhui8AAMD2eK4CKlI2AGV0bXNnRPySnbu5d188c/RYduxgMr7ZAAAAUJnHKqAiZQNQyZ+RPJ90/Q03rs580tzWzKkYAABgO2ZuNgAFKRuAErq2eTsiDmfnnj57fmXmkxZc9wUAANgeN8aBipQNwOTN55N+zs7d3LsvnnrxaHbs8ByKAQAAtkXZAFSkbAAq+DMidmYGruJ80oJDMQAAwPZ4qgIqUjYAk9a1zZkYYD7prfMfrdx80oKuAQAAYHkzD1VAUcoGYLK6trknIn7Kzn2gfSiOPP9iduyIOBgDAAAsy21xoCplAzBlf8UA80kfXvk6M3J0HIwBAACWNxv6FwDoibIBmKSubc5GxKPZue98eCl233JLduyoKBsAAACW55kKqErZAEzOfD7px+zcB9qH4vCzz2fHjo9zMQAAwNK2PFQBRSkbgCn6KyJuyAy8cefOlZ9PWnAwBgAAWJ4PRANVKRuASena5kIMMZ90wXzSwtas34XRHevrvf58AACAIekagKqUDcBkdG1zX0R8n53b7j8Qjz39bHbsaPW9L7oWa73+fAAAgCHN3BYHilI2AFPydwwwn3T+8y8zI0ev72Px2nXKBgAAoC4fiAaqUjYAk9C1zaWIeDg798zFy3Hzrl3ZsePW98F4TdkAAADUpWwAqlI2AKM3n0/6KTu33X8gDh15Kjt29MwoAQAALK/fr+ABDEfZAEzB39mBN21smE/6D72XDboGAACgMDcbgKqUDcCodW1zOQaYT3r3o4/NJ/2H3o/F2gYAAKComaIBKEzZAIzWfD7ph+zcdv+BOPjEkezY6ej9ZoOyAQAAqGmr/9e3AAajbADGzHzSCPV/5VfZAAAA1ORiA1CZsgEYpa5tPosB5pPeu/SJ+aT/4ZsNAAAAyzGjBFSmbABGp2ubPRHxXXbuIwcPRff4E9mxk9N/2aBtAAAAajKjBFSmbADGaJD5pHOfXsmOnSQzSgAAAMtxswGoTNkAjErXNl9ExIPZuec+vRI3bWxkx06Tmw0AAABL0TUAlSkbgNGYzyd9m5178PCT8cjBQ9mxk9X3td+165QNAABATW42AJUpG4AxSZ9PunnXrnj34uXs2Enr+2y8ZkYJAAAoyjcbgMr+AQAA///s3XlYVdX6B/Cv3puADKKM4ohTdo/p7eR4EBzK1AZLq5+l1/Jqeb1dDXEeUVA05wmHLIfUTM1uDnnLWUBEEVFEZZZB5vFwGA6g0u+Pm/76mcoB9lprn73fz/P09Dw9sL6veOLss9+93kXNBkKILOi0Gl8IGJ80afZ8Gp9UW8y7DdRsIIQQQgghhCgT7WwghCgZNRsIIcLptJpuAPx453oNGgxtrz68Y80e6wOiqddACCGEEEIIUSpqNhBClIyaDYQQORAyPmkCjU+qE+ZnNtAYJUIIIYQQQogCUZuBEKJ01GwghAil02r8AbzAO3fS7PmwsrbmHasMrK+QaWsDIYQQQgghRIFY7xInhBDRqNlACBHmt/FJC3jn9h/yOo1Pqgcao0QIIYQQQgghtUcjlAghSkfNBkKISELGJ30y2Yd3rKIwfxqHug2EEEIIIYQQBaKdDYQQpaNmAyFECJ1WEwAan2SWfv21mun6dGYDIYQQQgghRImq6dQGQojC/Vl0AYQQ9dFpNd0BzOWdO/D1N2l8kgSYb2xoaF7NhkqjEVGXw5AcHwd9QT6MJaWwb9oUDk7O6PQXDV7urcNzjRqJLlNSsTdvIPxCCBJjYx69ICysLNFD54ne/frDrom94ArNW0x0FKKuhCM/NxdFBfloZGGBZo6OcGvVBr29+sHByVl0iSYryMvFrevXcCc+DjlZmaiurkbzFi3h5Nocbq1a4aWevUWXqBq3o64jIy0VOVmZyMnMQIXRCCfX5mjV1h1dXtKiVVt30SWaBWNZGZITE6AvKkRJsR4lBgMM+qLf/q1Hwz81hF0Te9g2sYddkyaP/t3M0RFt23dU3PuBHGVnpCP8QgiyMu6iqKAAD+7fR1NHRzi5uOKlnr3RoTP3Z11UoyAvF5l306AvLIShuBglhmIY9HqUGIpRUlyM6gcPHn1tYxsbtG7XHq5uLeDWqhVau7dDY2sbgdWbj8L8PFwOCUJGWioK8/NRajCILok7a1vbR9dGvTy94OjsIrokkyl1YwOnHRvm9UGREJWi/1EJIdzptJoYAJ15Zjo4OWP9N/tg1bgxz1hFGj/8TeiLCpmt79TcDct27mG2vlRS4uPw8/f7cTUk+Jlf18jCArr+AzFi9Edo0boNp+rYOP7D9/j5x0PISr/7zK/r+nIPeL76GgYOfYNTZebPoNfj2Pf7cfr4URj0+md+7fOaLhg2chR6e/XnU1wdBJ38BSePHkbszRvP/Dq7JvZ4fcR7eOfDv9FNWEZOHj2MI/u/RXZmxjO/zrm5G4a8PRyvDRtO75W/MZaXIykuFklxMUiIuY3khPgaf441ce/QEe4dO8G9Yyd06PwXdPqLRqJqydn//ISffjiI1KTEZ36dk4srho54D0PeHg4LSytO1SlPYX4e7iTEIzE2BkmxMUiMjYGh+NnvXzWxtWuC1u7t0K1HT3TX9UWbdu0lqlYZLocE4djB/YiJjhJdiuw8r+mCt/7nQ/TpN0B0KTUqv3cPlQ/uiy5DcrmZGZg77iPWMQcuRt76gHUIIaR+qNlACOFKp9V8AWAW71zfVevQrXtP3rGKRM0GYGuAPyJCgmr9fUPeGYFPp0xnUBFbMdFRCFy2pNY32V7o2g3T/QJg37QZo8qU4czxY9i8clmtv69N+w6Yv3w1mjk6MaiqbpLiY7FlxTIkJybU6vscXVzgs8APnbt0ZVSZ+mRnZmCtv+9/dyDVgn0zB0zwmY5env0YVSZvRQUFuHj+LMKCziLmBp8bet11feEx4BX08vSim991kJKUiGVzZiA/N6dW32dja4upvovRrQddH5oqNSkRYUHnEHruDDLvpjHPc3VrgV6e/dCjrydeeLEb8zy5KszPw9LZ02v93qpGbdq1x7zlq2W9C7T0XhXu/W6Xj1JQs4EQ8hA1Gwgh3Oi0ml4ALvHOHfTmMEycPpt3rGKNG/4GiouKmK0v52ZDZUUFNvjORVw9bkD1fWUQfBb4SVgVW6eOHcHW1cvr/P3NHB0xf8VaejrxKY4fOogdgevq/P1OLq7wX78Jzq7NJayqbsKCzmHVwnn1WsPH1x99B74qUUXqlRBzC0tmTavXaI33P/o7Phj3qYRVyVdRQQHCgs4iLOgcbkddF1pLDw9PeL4yCN11HtR4MEFCzG0snjEFZaWldV5j1pIv0LOvl4RVKUtqUuJvDbhzyEhLFVaHnb09+vQbiNdHvIeWbdoKq4O33KxM+E6ZhLycbNGlmA0HJ2f4r98EV7cWokt5opKqStyvZnsGngjUbCCEPETNBkIINzqtJh5AR56Zjs4u2LB7H31gl9DYYUNRYihmtr6zWwss3bGb2fr1sWbuTNyOvFrvdQYMeQOTZtfvpiwPwadOYH1A/RsjtnZNsPKrnXBycZWgKuWo646Gxzm7NsfyL7cLPSsj8lIYAmZPk2SthavXo+vLPSRZS40y0lIxa+J4GMvL673W6E8nYsRo5jcOhElPScb3e3bhwplTokv5AwtLS7w2bDje+XA07Q57irspyZjz2aeSvNb91gaiy0taCapSjvDQEPx7724kxNwSXcofPN/lRQx95114vvqa6FKYMhTrMXPCOGo01IGTiytWbNshy3PEiisrUK3Agxuo2UAIeehPogsghKiDTqtZBeBN3rkzFy+DWyvznpMvN4e/+xZVlZXM1rdtYo+Bw95htn5d7d6wFhHBtR+d9CQpiQmwtLSU9ciYuJvRWDpHmpFPVZWViL52FQOGvI4//fnPkqxp7qIiwrFq0XxJ1iorLcXtqGt49c1hkqxXW/k5OVg4bTLu37snyXpXQi/Aa9BrdFBoHVRWGDF/8j+hL5Rm1F10ZAS6vKSVxc4ZKSXFxWLb2pXYvnEt0pLviC7niR7cv4/4Wzdx9MA+GPRFaO3eDtY29P/EQ8VFRVgw5bMaz7gxVfiFYPT26gfbJk0kWc+cXTx/FusWL8TxQwdRmJ8nupwnKsjNxaXg87hw5hSsbWzQtn0H0SVJ7l5VFRZNnYz01BTRpZil8rJS3Lx2FYPeelt0KX9QcV+a6yW5KSspwZkjP7KOuXU3K+8Q6xBCSP00FF0AIUT5dFqNDoA0j7zWwmvD3sGL2u68YxXvVyjvSZyaxN2IQvB/fpJ0zd1bN9X7oFFWKiuMWOPvK+maqUmJ2LlpvaRrmqt7VVXYvKL+Oxp+LyHmNo4c2Cfpmqb69uutMJaVSbZeeVkpNixdLNl6arJj43rJf6/s2LBW0vVEir15A37TvDHzH+NwJTREdDkm++XwvzFx5AhsXLYYudlZosuRhd1bA5GfU7szGp6lvKwUW1evkGw9cxR08hdMHvMBVi+aj5QaDtmWi8y7adiw1B/eH4/CjatXRJcjqSMH9iEpLlZ0GWYtKS4WP+7bK7qMP1DfJylCiNpQs4EQwpROq7ECwP0qz8HJGWM/m8w7Vh0UuO23Jt9t3shk3T1bNzFZt76CTp6o9UGbpjh59LAsxzHwdvTAPiY/34O7ttdrRn9dpKemIPjUCcnXvXU9UvjsfHNj0Otx+vhRyddNSUrEpeDzkq/L072qKuwIXId5kyaa9Q3J8yd+xpSxf8OJo8yfHJW1pLhYnD/xs+Tr3roeiYiLFyRfV+4K8/Ow0GcSNiz153LoMwvpqSnwm+aNgNnTFNGQKy4qwg97vxFdhiIc2rOT6fjX2lLi+CRCCHkcNRsIIawtA+DOO9R7ni+d08BIdTXbi+SGDeX11pQSH4f0lGQma18KPo8Ko5HJ2vVx6qcjzNbetnYVs7XNxZmfpd0l81CF0Yhwzk9rn2C4Xf7nwz8wW1uJQk6fZLb2yaOHma3NWlJ8LHzGjcHxQwdFlyKJygojtq1ZCf8ZU6AvLBBdjhBBJ6VvNDzEookhZ8GnTsD749G4eS1SdCmSiLwUhs8/+hC/HP636FLqJfTcaaYjS9WkwmjEJYnGoEqBmg2EEDWQ1x0dQoii6LQaTwDevHOHDn8Xmr/SIX+sqG2M0s2IcKbrXwu/xHT92tIXFuBOfByz9e/Ex5n9TYD6yEq/i5zMTGbrXw0LZbb2k1w8d4bp2lIc/KoWIWfYNRuiIsLN8u/iwK7tmDlhHLLS74ouRXJRV8LhPXa02e86qYsroex2H8jtPZmVEkMxls+bhfUBfigvKxVdjqTuVVXhq3WrsGjqZBTm54sup06uhl0UXYKiXLscJrqER36lZgMhRAWo2UAIYUKn1TQGwH3/r7Nrc4z5x794x6pKAzRgHMB4/VpKuHWT6fqx0TeYrl9bPEbXfPvVVhQXFTHPkaMYxn/fsTejma7/e5l306AvkuYg4qe5HCKfpxHlLDc7Cwkxt5lm3L5hPmOtsjMzMPMf43Bw13bRpTBVajBgpe9crA/wk+UuORaKCgqYjsmpMBqZNtzlICoiHN4fj+K+E4636MirmDJ2FNOmOCsx0VGiS1CUmBvy+XlWq+yhLUKIOlGzgRDCynIIGJ/0+VxfWFha8o5VlerqB0zXbyCzZkNxIdubqblZ7J5yr4v83FzmGeVlpdjz5WbmOXLEeuyJvrCA2+iFvJxs5hmhZ08zz1ACHj+nzLRU5hlSiAgLxYxP/66qg1WDT53AzH+MQ3ZGuuhSmGPd4ASAHJm9L0vp4K7t8J8+RTUN/7LSUqz2W4A1/r5mszurssKIyooK0WUoiqFYL5uGLI1RIoSoATUbCCGS02k1/QFM4p37xrvv44Wu3XjHqg7ra2S5NRtKGR8qx+OGbW2UlZZwyTn3y3HEcXwKXy4MxewPKWRx+PST8PjgHnk5DGWlyhrxwQKPZkMR48arFPZ9/SWWzZmhuLEwpshIS8X0T8fiisKfVmf9ngwAednyel+WQllpKZbMnIoDCt/t8zShZ09jgfdnMOj1okupEY/rBDUqyGP/MI0paIwSIUQNqNlACJGUTquxBrCLd66TiyuNT+KG7UWy3JoN9+/dZ7p+hcyeXnvwgO2f9/cClwdwy5KL+/fuMc/g9fSepaUVl5yL589yyTFX2RnpSE5MYJ7z3HPPMc+oq1KDAb7e/8IPe7lPb5QVY3k5vpg3C3u3bRFdCjP3OPwOrapS1sG8qXeSMHX8GNWcR/E0yQnxmDVxPNMxXFJ4cJ/fdZiaPNeokegSAADVCu41cPoMp+CfICHKQc0GQojUVgJowzt0yoJFsrmIJEqjruYKT5l303D80EHRZXDG/jNSg4Z8Lu/smjblkkOjlJ7tAqefj30zBy45tZWemoJpn3yMW1HXRJciGz/u24NFUz9HZYU8xoZISc3vmXURFnQOU8eNQX4Onx1vcpebnYVZE8cjNSlRdCmEM2fX5qJLAKDsMxs47dqgNwFCzAA1GwghktFpNa8A+Cfv3Lfe/wCdu3TlHatarOfI0o0Eddm3/UsUFbA9x0B1OG3Rd+/QkUuTNzoyQjXzxesi5PRJLjntn+/MJac2sjPSsdBnMrfRYeYkOjICy+bOFF2G5GgEienCQ0OwauE80WXIjkGvx/zPP0PcrZuiSyGcNG/ZSnQJj9DvMEKIGlCzgRAiCZ1WYwMB45Nc3Nww+tOJvGMJQ9RsUJcKoxG7Nm8QXQapI16NXhql9GRpyXeQnprCPMfC0hKd/qJhnlMbBXm5WOgzmfmh6+YsOvIqls2ZIboMIkBURDiWz5slugzZKi8rhd+0zxEVES66FMJBb69+okt4hA6IJoSoATUbCCFSWQugJe9QnwV+ND5JaVTWbKAnnIALZ07h1vVI0WUoBs/XVJ/+A7jkhJ6jUUpPwmuEUnddXy45pjLo9fCdMol2NJggIiwUK33nii5DOvSWWaOY6Cj4T58iugzZq6yogP/0KYiJjhJdCmHM89XBoksAQI0GQoh6ULOBEFJvOq1mIIBPeOe+/cFodHxBXk9akvqT384GudWjTFtXrxBdAifKej15DHiVS07MjSjoiwq5ZJmToBM/c8npO5DP37MpSg0GLPD+DNkZ6aJLMRuXgs9jw1J/0WVIQ1m/QiWXFB+LJTOnii7DrATMmoYUOsNBsXp4eKJNu/aiywCg/AeM6IBoQshD1GwghNSLTquxBfAN71y3Vq3x0cR/8Y4lHMiv2UAHRPOQeTcNR/Z/K7oMDjgcEM3xNWVja4tu3XtyyeJ1NoG5SE6I5/Jkv5W1NXr29WKeY4rKigosmvY5l9FRShN08hfsDFwvugzCUEZaKhb6TEaFUXkHg7NkLC/HQp9JyM7MEF0KYeDDcZ+KLuERJR8ODdAB0YSQ/0PNBkJIfa2DgPFJ3vMW8o4kqsX2mlbpTznVxv6dX6tg/jr7z0i8X1MeA17hkhN69gyXHHPBa4RSL5k0GgBg3ZJFSE6IF12G2frp0AFq2ilUeVkpAmZPg7GsTHQpZqnUYEDArGkoLysVXQqR0OTZ89GmfQfRZTyi9DFKtLOBEPIQNRsIIXWm02qGABjHO3f4qDHo0PkF3rGEE/k96U/XtLxUVVbi6/VrRJfBmPJeT728+nPJSYi5hdzsLC5Z5oDXTWNeo7Jq8uO+vQi/ECy6DLO3bskiJMXHii6j7pT3K1QSaxcvRE5mpugyzFrm3TSsWjRfdBlEIh+On4D+Q14XXcb/o/RmA+1sIIQ8RM0GQkid6LQaOwDbeee2aN0Gf5vwT96xhCu6hlSzsKBziI6MEF0GqQUbW1u83FvHJeviOdrdAADxt2+hIC+XeY61jQ20vfswz6lJVEQ49m7bLLoMxVgxfw5KDQbRZRCJfLd9GyIvhYkuQxGiroRj95ZA0WWQepq2aAneGzNWdBl/QLuZCSFqQc0GQkhdbQTgxjt06sLFvCMJZw0ayq3ZILd6lG/Lqi9El8CQMl9PHpwOEA6lZgMAIJTTCKXe/QZwyXmWnMxMrFpITxtLKT83B8sXzBZdRt0o81donUVeDsOhPbtEl6EoRw7sw6Xg86LLIHXworY7Nu87BF3/gaJLeaJqhfcaaIwSIeQhajYQQmpNp9W8CeAj3rnvjhmLtjKau0nYUNsYJfn9ecXLyczED4q9eaKsA6If4nWA8J34OGRnpHPJkrOL5/k0XXidx/E0VZWV+GLeTJqjzsDtqOvYtWmD6DJIPWSkpWI1jf1hYsPSxXQQvZmwtWuCwcOGw29tIBat2QAXN+7PwpmMxihJgj44EWIG/iy6AEKIefltfNJXvHNbtnXHqPETeMcSQgT5fs8u9HttKBxdXESXQkxg1bgxevb14jJT/8LZ07Icj8DL7ajrKMzPZ55j18Qe3br3ZJ7zLDsC1yEt+Y7QGp7EwtIKL76kRdeXe6BD5xdgbWMDa1s7NHVwQGWFEaUlJf/9x1CM2OgbuB4RjttR10WX/QfHvt+Pri/3kMWoLFJ7q/0WoMJoFF3GH9jZ26N7Hw9069ELLs3dYGNrC2tbW9g1sYe+sAAF+XkoyMtDQW4ustLTcCX0guzO46msMOKLebOw+utdsLC0El2O5PoPHorJcxaILkN1qumhfEKISlCzgRBSW5sBuPIO9Z7ryzuSCEJP+hMAuFdVhe0b12LWEiWPVFIWj4Gvcmk2hJw5pepmQ+g5PiOU+ggeQ3Hj6hWcOnZEaA2P6+3VH0PeGYEXtd2f+jUWllawsLSCg5MzAEDzVy3eHTMWlRVGXAu/jJ8OHUDMjSheJddo04qlCNx7AFaNG4suhdTCgV3bkZqUKLqMR6waN0b/wa/jlTfegnuHjk/9OvtmDrBv5oD2nTo/+m/jJvsgPTUFVy9dxOXg84i7dZNHyTXKSr+Lb7ZswgSf6aJLIQpBZzYQQtSCmg2EEJPptJphAEbzzn3/43Fo1+l53rFEEGo2kIfCLwQj8nIYtL3oqVtz0NPDE881aoR7VVVMc9JTkpGekoyWbd2Z5sjVxfNnueR4DBQ3QqnCaETgFwHC8n/P1q4Jhgx/F4OHDUdTB4c6r2NhaYXeXv3R26s/0pLv4KdDB3Dm+DEJK60bfWEBdm5aj89mzBFdCjFRSlIiDu7aLroMAIBbq9YYNnIU+g0ajEYWFnVep2WbtmjZpi3eHjkK0ZFXsXfbZiTGxkhYad2cOPJv9PL0Er7Li5g/pY9QIoSQ36MzGwghJtFpNQ4AuH+yae3eDh/8/RPesUSgBjSKk/zOV+tWM795TaTRyMICPTw8uWRdUOlB0TeuXoFBr2ee09TBAZpuLzHPeZpvtmxEQV6usPyHBg8bjsBvD+KDv39Sr0bD41q7t8NnM+YgcO8BWdzEPHP8GKIiwkWXQUwUuGyx6BLQ2NoG4yb7YOOe/Rj05rB6NRoe96L2ZSzfuh1zlq5Ai9ZtJFu3rjYuW0znxpB6o2YDIURNqNlACDHVJgCOvEO95y/iHUlEo14D+Z3crEz8uG+P6DKIifoOfJVLTsjpk1xy5Cb0LJ8mi07gwdDRkVdx8uhhYfkA0LlLV6zb9S0mTJ0BG1tbZjnNW7aC76p1mBWwHI7OYs+n2bR8qSzn/5P/7/vdO5GcmCC0hv6Dh2LTtwfxxrvvM83pruuLDbu/w9Dh7zHNqUlRQQH2fLlZaA3E/FGzgRCiJtRsIITUSKfVDAcwknfuyLHj0bZ9B96x5Bl4PGGutjFKNL+1Zgd2bUdOZqboMsyGyNdUL89+sLRif5hmdka68BtuIlwKPsclx6O/mGZDZYURgcuXCMl+aNBbbyMgcCtacRzT1dPDEyu/2onnNV24ZT6uIC8X32zZKCzfZCp+y0y9k4T9O74SWsO/Zs3D5DkLYGdvzy3zE++pmB2wHNY2NtwyH3fy6GFk3k0Tli81uvbk71c1//IihKgONRsIIc+k02qcAHD/ZOPesRP+Z+x43rGkBjw+nDRooK63JrU1V+rqq3WrRJdgNkS/pnr29eKSE3qWz0HJchF5OQylJSXMcxxdXPB8lxeZ5zzJoT3fID8nR0g2AIz/3AcTp80Skm3XxB5LN22D16DBQvKB/95QTYqPFZZvEhW/ZW5bs1JYtrWNDfzXb8LAoW8Iye/h4Ym1O/eitXs7IfkAEHTyF2HZUhN9naBGtLOBEKIm6rqjQwipiy8BSDeo2ETe8xbyjiSEyNi18EsIDw0RXQYxgQenUUpqazaEcjqnQtSuhsL8PBz7fr+Q7OcaNcL8FWvw+gi2Y2FM4T1vodCHLXZvCRSWTZ7uSmgIYm/eEJLt3NwNK77cIfQcFwBwcHLGko1b0blLVyH54ReCheQSZaBmAyFETajZQAh5Kp1WMxLAcN65o8ZP4Dq+gJju11+rmWfI72ErtgXRVnbTbV+/BlWVlaLLqCf2L3DRr6nufTxg1bgx85zc7CwkxNxmniMXl4PPc8nxeIVPs+hx323fJuQweEsrK/it2YiXevbmnv00I8eOx0f/nCQk++a1SFwLvyQkmzzd7q2bhOS6uLkhYOMWuLZoKST/cdY2NggI3IrufTy4Z6cl31HANQgRRQ3NBk47ZpT/gyREAajZQAh5Ip1W4wyA+2lobdt3wLtjxvKOJSbicZ3coCG9NZEny8/NwaE9u0SXQUzQp98ALjm8nvYXLTw0BMbycuY5js4uaN+pM/Ocx6Ul38HZn49zz7Wytobf2kBhY6Oe5e2Ro/CJ91Qh2XsE3dgmT3bqp6NCzgtwa9UaSzdtQzNHJ+7ZNZmzbCW0vftwz81Kv8s9kyiD6AdBCCGEJ7qjQwh5mm0AmvEO9fH15x1JauHXavY7G+SHPhzIyQ97vzHzQxrV8XqiUUrS4vXnFHVewJ4v+d/cfq5RI/it2YgOnV/gnm2qocPfw7hJU7jnpt5Jwvlf/sM91yTq+BX6SGWFUcih0G6tWiMgcCvsm3L/KGCyeV+sxl979OKaWVpi4JrHCt345k8NOxs4va5ktweeEPJH/wsAAP//7N17eFTltQbwF56ayWUSEggkJEBQpAQHiAwQYSakIdzFghQVRRRFESkgghWtl4NHTqvtU9t6xEtbby2lWm1rtbQKSLgk4Q5yhyhRQEBIQgiQi8TnkPOHnRIwQQLzvXvP7Pf3v/Nu4kxm51t7raVig4h8g8/rGQdgFDt3/D1T0C6tIztWbMdZ95Ba0td0v/2VlkWfjx3eU1f3uQYxbrfxnPKyUuzatsV4jpW+qq2lzQrPGjiYklPfjs2bsGnNanrurDlz0akLv4ujqUbccBOGjLyenrvg5ZfomRfE+l9vVO+99SYqyo9SM2Pcbjz69C8Q1yKemnsxHvqfp6k7HOJb0tfYGWGH+wQnqUOd0+qkIuJwKjaIyFl8Xk9bAPS/MDt1ScfocbexY6WJGE/lNG/urD+A9HRZ023btAGrludZfRm2ZZf3FK+7IbxHKa0vzKfMCU9OSUXaFZ2M55zr9y/wFxKPu3syMv396bkXa/Ks2bgq42pqZnlZmWULu8/LHr/eKE6eOI53/jSfnvvgkz+1zY6GbxPhcuHBuT9FbFwLSl7rpGRKjml2uU9wCid0NYiI1Kdig4ic6xUAsezQGY/OYUfKRdAfJ2IXr837tRY12pwvZyAlZ9Xy8C42sPZSZA8ZRsmpb+eWzSj+eDc10587CGPGT6BmBsNDc59Gm+S21Mx/vGXDYoODLH7v7zj15ZfUzLtnPIDu3t7UzEsVn9ASDzwx13hOm+S2iHC5jOdI+FGxQUScRsUGEfkPn9dzG4Dh7Nzbp0xDaoc0dqzYVLNmzvpqUiv7xSkvK8Obr71s9WXYkl3eU929vdAiIcF4zvFjx7D9o03Gc6zwZU0N1qxcTsnqb8EIJfaT822S22Lq7EeomcHijovDrDncvVZHS0uwym5L2O3x641i4V/+TM3LzMrG8NFjqJnB0t3b23iH9PeG0v9EMsYu9wlOcVq1BhFxGGed6IhIo3xeTwoA+iyDK9O7YtTYcexYuUh1dYQF0bb7+8fsBalb5OK9++aCEFwWbf4Nbqf3FKu7oXBZeC6KZu1qSOt0JVLad6BkBZR8cYj27wuY8dgcuCIjqZnB1LmrB6NuvpWayT7wlq+tXLIIJyoqaHnuuLiQLcQFjL9nCi7v/F1jrz9s1Ghjry3hzU73ZSaRiljO+GGKhDgVG0Qk4BUAcezQ+x97gh0pl4Bxs9zcdp0NZv/Nerrs0rzw86esvoQmMv8ZstN7KmsgZ29DuO7wYI1QyiLt16jvH29zD7FH3HATdZGsKbdMnIS27drT8op2bMcnu3bS8uRr7765gJo3eeaDcMfR/wwIutlzn0JkVFTQXzd78NCwWQ4tfE4Zo0QqqtjnJldEGmW3Ex0RsYDP67kTAH1Y8x1T76P+wSxBwLiHtNFBqdjfrm1bsHLJIqsvQxqR3q0HWrVuYzyn8sQJbF6/1ngOU1VlJTasKqBksYsNVZWVWPqvhbS8pJQUjJ80hZZn0mUREfQ9VwvtuCg6jO3Y8hH2Fu+h5fXNzoFvAKcLzbQ2yW0x/cePB/U14+LjMXH6/UF9TXEWpxQbREQCVGwQcbh/j096jp17ZXpXfP/Gm9mxcomc0gZ8No1RsrvX5j2Lmupqqy/jAjlrjBIA2iFWYV54jVJaV7CCktOpSzratE2hZAUs/ec/cOrLGlre5Fmzw2qxa+euV2HIyOtpeQV5H+JoaQktz+kWErt+XJGRmDxrNi2PoW92Dm66466gvd6kGQ8gNq5F0F5PnMcpxQaNURKRABUbROQ1ADHMwAiXCzMf/29mpAQJY2dDc9t1NmiMkt2dOF6BN179rdWXcYGcNUYJAPykYsOalZzDeZaCpZziid+CEUr/+tvbtKxefX3I6J1Jy2O5ZeI9RsbFNGbRu+/Qspys9Mhh6i6TG267A3Hx8bQ8lrF33BWUQved02aETdeHWOe0Q87HNUZJRAJUbBBxMJ/XMwnAEHbu+Ht+iOTUduxYCRU2OyhVZ0No+Odf3sK+T4utvowL4LzOhs5dr0JimyTjOdVVvLFDplWePEkbC8UqBgXs2roFpUcO0/LCdfxJXHx8UJ/e/jYrFn9Ay3Ky/A8X07ISk5Lwg1tvp+WxPTBnLiZOn4nLIiKa/N+6Y2Px5LPP47obxhq4MnGSOtjvvswUdTaISICKDSIO5fN62gP4NTu3a/cMjBhzIztWgsQh98rnUGdDqPjNL39u9SVcAOd1NgBA/0GDKTmshcqmrSL9O7p4ulEKQfXlL11Cy7ruhrFh/XDDqLHjaCOwykqO4OOdOyhZTlZA/HzcOXUGLcsqI8bciF+9Ov+CuxPccXG48fY7MW/BW/Bk9DR8deIEThmhBKizQUTOULFBxLleBxDNDHRFRgZ9aZtwMW4i7XhQKqGhaPs2LP/gX1ZfhvVs+Bny53KKDesL8/FVbS0ly6RVyznFBtb/l/pWL8+j5Lgio3DjhImULCvdOuleWlZBHu8gvDHhfI9wYN9eWofeleld0Tc7h5Jltbbt2uOBOXOx4P2lmP7wYxg0YiTSu/VAVEwM4uLj0bVHBgYMG4F7H3gIv3v7Xdw8cVL472gI48+R3Tilq0FEpL7vWH0BIsLn83ruBZDLzr1t8lQkpXCXUEpwMXY22O8gQWOUQsnvX5yHPlnZiHG7rb6URhDGKJ02/zltqsuv7Izk1HY4fPCA0Zya6mpsXLMqpA/RKo6VY9umjZQsfy53hNLm9Wtx4ngFJWvIyOvhjo2lZFkpK3cQfv/CcygvKzWeVbj0Q0ycZu1YqnD+zmSOUBo97jZall1ERkUhZ9i1yBl2rdWXYr0w/hzZjZM6GzRGSUQC1Nkg4jA+rycNwC/YuendemD46DHsWAkydTaI3Z04XoE/vfyS1ZchDeg/kDRKKY+zWNkU1pP/noyeiE9oSckKYC29BoCRN91Cy7La6HHjKTkVx8qxY/MmSpYTLSN15rVJbhvSBVmRUOKkYoOISICKDSLOswBADDPQFRmF+x9/ghkppjDul1VrkEv0wd//FiLLop3FnzuIkrNhdSFqT52iZJlQmMcaocTtagCA1Ss4hZScocPRMjGRkmUHg0aMpHVxFIR4Mc+uiot242hpCSUrnJdCi9iNig0i4kQqNog4iM/rmQrAz86d8MNpaJ2UzI4VA+oYy21VbZAgeP5nP7H6EuQc7TteTlnWW3vqFNYV5hvPMaHiWDl2bdtCyWLva1hXsBJf1tRQssaMn0DJsYsIlwvDrud0j7KWlzsNax9GXHw8Bn9/FCVLRFRsEBFnUrFBxCGsGp/U3dsLQ0eOZseKIZRZyRqjJEFQXLQbSxa+Z/VlyDkGkGZlh+oopfwliyg5Gb0z6fsM1hVwCkCejJ5Iad+BkmUnQ0f9gJJTefIkdm7ZTMlyEtbnY/B1KjSIMKnYICJOpGKDiHMsABDJDHRFRuG+R+YwI8U07WyQEDL/pXmoqqy0+jKknizSKKV1BStRU11NyQqmQtJT4/4B/BFKG9cUUnJyr72OkmM3LRMT0TOzLyVr68b1lBynOFpagsMHD1Cy1NUgwnVa+4xFxIFUbBBxAJ/XMwMWjE+6c9oMR81MdgI1NkgoqaqsxPyX5ll9GVJPcmo7XN75u5SstfkrKDnBUlZyBJ/s2knJuoa8HPbQ5/txoqLCeI4rMgo5Q4cbz7ErVufQ1k0bKDlOsXndWkrOVRlXa6ypCFEdSF3hIiI2o2KDSJjzeT2dADzNzu3u7YXB141kx4phlJ0NzfTVJMGzZOF7KC7abfVlSD3+AZzuhsJloTVKKf/DxZScXn199BFKWzZwnoTvP5C7h8Ju/LmDEON2G88p2r6Ntn/DCVidIrnDR1ByRORrGqEkIk6lEx2R8PcGND5JgkVjlCQEaVm0vfQfxDkQ3rRmNSpPnqRkBQNrz4SfNMqqPtphqkNHKNXXf9AQSs72jzZScpxg09o1xjNckVHw5eQazxGRM07Xnbb6EkRELKFig0gY83k9swD0Yefefd9MjU8KU5wF0eYjmsbsv9mJxZUOl19Bzdv3aTHef+ev1MzGqWCX2CYJnbt6KFlrVi6j5FyqQ5/vx2d7PqFkZfr7U3Lq20Y4mE5sk4Qunm7Gc+yO1TmkvQ3Bsbd4D6qrzO8W6uPzwxUZZTxHRM5wWmcDaWSUvW9yRQSAig0iYevf45OeYed29/bSk4VhjHET2cx295Bmr8eJs1xvnXQvZdRHfQt+9yJOHDc/M/7bmX9/h8J7yp/LWVBcmMdZuHypWF0NmVnZiIqJoWQFfLJrB2qqqozn9LGgiGJHV2VcjegY879ft27U3oZg2EoaMdYnK5uSIyJnOK3YQHrYxVk/VJEQpWKDSPj6IzswKiYGMx59gh0rRJRiQ3O7fTWpsyHYYtyxmDBlOjWzproaf3jxeWpmw9TZAIA2zmPrxvU4fuwYJetS5C9dQsmxZoQS51A6M0vFhoA+/izjGZ/v/QwVx8qN54S7baRl2736+ig5InKG04oN6mwQkQC7neiISBD4vJ7ZAPqyc++ePhMJrVqxY4UoFJ6YDj51NpgwcMT30alLOjVz2Qf/RNH2bdTMb1JnAwC0at0GXbtnULLsPkpp/2ef4uD+fcZzIlwuS0Yo7dm103hGhMuFHr3oUyNtq7fPfLEBAIqLdlNywlnRDvPfST169UFUdLTxHBE5m9OKDepsEJEAFRtEwozP6+kK4GfsXO81/ZAz7Fp2rLBRxiiJU0x96FF65jwti7YNjVL6WgFphFJvXxYiXC5KVn17i/cYz7CiiGJnrKfY95L2jISr8rJSVFWa39egrh8Razit2CAiEqBig0j4+QM7MCo6Gj+c/Qg7VizgzJtmjVEyJe2KThg+egw189Dn+7HwL3+mZp5NY5QCfDmcYsOOLR+hvKyMknUxCpYupuT4B3B+3vVVV1Wi5PAXxnN6XtPPeEYocUVGoltPr/GcfZ8WG88IZ3v3mC/EAfp8iFjFaX83aYySiASo2CASRnxez48B9Gbn3jPzQY1PkqCx384GjVEy6Za7JiOuRTw1881Xf4eK8qPUzDM0RimgRUICunt7UbJWL8+j5DTVpx8X4cihQ8ZzIlwu9M3OMZ5zrn3FnMNo1kiuUJLerYfxDHU2XJq9xeZ/frFxLZCckmo8R0TO5rRCA6AxSiJyht1OdETkIv17fNJP2bnea/ohe/BQdqxYhHKIGSJPZUtwxLjdmDBlGjWzproar7/wHDVTGuYfwFlYXLiMM6qoqQqXcUY8WVFoAHiHqUkpKcZzQk16d/PFBsaukXDGGDHG6HARkW9yYrFBRCRAxQaR8PEGO9AdF4dpDz/GjhUraWeDGJAz7Fr6suj8DxfbYFm09MvJpeQU7diOspIjlKymKFi6hJLjz+UUdc7FGBOjw9SGpXu6U3K0JPriMTpDGEUnEfkmFRtExMlUbBAJAz6v53EA9BkCk+7/EVokJLBjxUKM22b7jVESBi2LdiZ3bCyu7nMNJauQtIj5Qn28cwelABIVHY3e/fzGcxrC6GzQCKWGRcXEIO2KTsZz9hGezg9XjM4QfT5ErKFig4g4mU50REKcz+vpBuBJdm6mvz+yLHpSUqxTd/q08Yxmtutt0IJohrQrOuG6G8ZSMw99vh9/f+OP1EwtiP6mrIGkUUp5nJFFF4pV/GB1jzRkz+5dxjP05HbjunQz393AKCiFo0927TSecVlEBL1rUES+5sRigxZEi0iAig0ioY99UgZ3XBzu/dHD7FixAc7OBvMRTaMF0Sw3T5xEXxb959dfIS+L1oLoc/XNHkDJKf54Nw4fPEDJuhCsEUpZpL0Y5yo7whlbpcPUxqVdcaXxjC8O2OczFUoYv4sYnS0i0jAnFhu0IFpEAlRsEAlhPq/nCVgwPmnyrNkan+RQdXoqWwyKio7GXffNpGbWnjqFl5/9JTVTzhYVHY3evixKFmsh87fZuWUzKo6VG89xx8Yio0+m8ZyGHC0tMZ6RnNrOeEYoa5fW0XjG0bJS4xnhiPH5aNfxcuMZItIwJxYbREQCVGwQCVE+rycDwBx2bmZWNnwWjmQQizEaG1RscLSsgYMpoz/qW71iGbZ/tImaKWfzDxhIybHL3obCZZzr8JF+rg1hHEIzDtNDWbu0NOMZ5aUqNlyMcsbno0NH4xki0rDTdeZHz4qI2NV3rL4AEbloC6wILT38Bf5rxlQrosUGamqqCSl2KzZoZwPb1NmP4L7bb6FmvviLp/H8grcISeoOakhmVjYlZ9+nxTi4fx9SO5g/hD2fVcvzKDl+i0YoAZzD1PYdOxrPCGXxLVshxu1GVWWlsYyTJ47jq9paXBYRYSwjHB0lFGn0+RCxRl0doxfcfrSzQUQCVGwQCUE+r2cuAI8V2Z/t0SJAMct+56Ta2cCW2iEN198ynrq8+fDBA/jr/Ncx5rY7DCdpZ0NDIqOi0Dc7B2tWLjeeVZD3IcbecZfxnMZs3bgeJyoqjOfEJ7REt55e4zmNoYyJSdOYmG/TLq0jinZsN5pRXlaGpJQUoxnhhlFs0BglEWs4dYSSdjaISICKDSIhxuf19ALwmNXXIeIc6mywwk0TJmLlkkWUp6MD3p7/Or43ZDgSk5IMpqizoTH+3EGUYsPKxR9YWmwozOPsjbByhBLAGa9jdYdKKEjtkGa+2HC0VMWGJmJ8tyWnpBrPkNC0fNH7WL7ofasv45LEuN1ISGyN1PYd0Mefhb79cxAVE2P1ZQFwbrFBnQ0iEqCdDSKhZ77VFyBiUrPmdvtqUmeDFVyRkZg4/X5q5le1tXjlf00vi1ZnQ2N69/MjwuUynnP40EHsLd5jPKcxa1Yuo+T4c60tNjCe3G7VurXxjFCXkGj+Z8T4fx1uTHf+tE5KNvr6IlarqqzEgb2fYW3+Csx7+ie4c/QIvPzsM5Suum9z2qEP36uzQUQC7HaiIyLn4fN6ngLQ1errEDFJj6tIQL/vDaCPgVlXmI9Na1dTM+VrES4XMv39KVlWLYretHY1Kk+eNJ4Tn9AS6d16GM85H8aC6JaEg/RQl9CylfEMLYlumvKyMuMZLRMTjWeI2MlXtbV4/52/Ytr4sdiyYZ2l1+LUzgYRkQAVG0RChM/r6QPgYauvQ8Q4242A0RglK0158Mf0zN8883N8VVtr6NU1Rul8/LmchcYFFhUbWEWO/oOHUnLOp+SLQ0ZfP55wiB4OEloRig1HzR+ehxPGCKWEVio2iDPVnjqFJ390PzasKrDsGv7PocUGjVESkQAVG0RCx6tWX4AIQ/Nmdvtq0hglKyWnpBKWNp+trOQI/vYnUxPrNEbpfDKzshEVHW08p+SLQygu2m0851xr81dQcrJIRRsrMQ7RwwHj0Lnq5AnjGeHky5oa4xkqNojTPfXIbEu+5wHndjZojJKIBPw/AAAA///s3Xtclvd5x/FLs4DAAyIgRiyeUNGIJ4yKPoLiKa3r0sbVJrVpk9Ssdia1W15t0qZrXnm92q1La7csS5pkNm3SrkvbNdvqNIeq4IEHD3iMqKBiPDcaBTScPbA/3CMRER7g/l336fP+zwTu7w08h/v5Xffvupy2ogOgDdOyR39ZRLLsPg9AhePuV2Fng90+98CDhoc23+x3r70qZ06buDObnQ0dmZI7QyWnqGCNSk7YtqKNUl9XZzwntX+aDBtpb8dFjcXUJBZTI6JRlNH4e3vJpUumds61YJ4JIPKDJx6X6qpK9Vy/FhvY2QAgjGID4A6L7T4BQIvbF0phvajoaHlk2ePquSueW66eCZFgvs5d+aGCdSo51/MKdfKC+fYOhhYRuXzpkvGM+N69jWd4Qe/EPsYz6mprjWd4icbzI5DA8wO4eKFa3vjZv6lmNou7d5gCgBUoNgAONy17dJKI5Nl9HgDM8OMHkq78zJOCuTJhco6Bs7m1Xdu2qLW9sZLbH1PZOVMlLhAwnnP+w7NSXrrXeI7ItR7SJSGd/tFacy/ac0lhMbXnbbcZz/CC6F69jGfU15vfsXOdu1/eRETn+XFbTz7mAyIia1evlD+dPKGWd7X5qloWADgVVyGA8+murgE26+mzD8h+3MnR1Z/5r/7mmxafScdeff6fpamxUT23O7zwmMqZka+SEyrUGdi8fXNIGhvMt5pJSx8oQ4YNN57TkcuXFRZTKTZELDbObPFOtY2S+1/eVHY2UIwDWmzZuF4ty68tlADg4/y1ogO4U7rdJwD4GwOinaJfWprc//AjqpnnPzwrv//VaxYekQHRkdAacKzVSilUoFPUcMKuBhGlxdSeLKZGyvTQdY1ZJF5y+fJl4xl+u3EDaM/OrZvVsvxcbGBANIAwrkIA56PpKnylRw+nvTUxINpJFj74FemXlqaa+ea/vy6nTxy36GgMiI7E2ImTJCEx0XhOdVWl7Nu902hGfV2d2l2VWkWajmgsprKzIXKmiw0NFBs6RacY57RrKcA+FeVlall+LjYwIBpAGFchgPPxhgpfCThu6Cc7G5xm6beeUs985Z9+ZNGR2NkQqakzZqnkmN7dUBLaZPT4YQOHDJVPDBqsktWRS01NxjN69OTyKFK9YmKMHl91ZoMHMNME0NXY0CAfXbygkuXnYgM7GwCEUWwAnI9P0/CVxORku0+hFa5prdbdxfCsCdkyeXqeRWcTmdJdO6W40IpFaR5PkQrm6xQbNm8oNHr8kCWPm445pYWSiMjVqwzIdJLoaLNDojWKS9d54CX0Cm2UAHVV58+r5FzxcbGBnQ0AwrgKAQA4yoBBQ+w+BVVeaHnTWVb8zIuX/a3cHhVlwdlE7hcvPu+KYdFeeUyNHp8tfRSKjxcvVMuekm1Gjl1bUyPbi4uMHLu13NnzVHIiERUdbTxDdYHb5S5fMb+4rcYDL288PwB98Qk6O6f9vLMBAMIoNgDOxxULfKPfgAHSf+BAu0+jFdooOVFKaj+576HFqpmV5z6U3/x8RTePQhulzpiWP1slp6jQzADnrZs2GDlua0NHZKrPMmmP6TvpRUSaWEyNmOkiaXQvs22avIZiA6BP4+aFZvHWNVhn0UYJQBjFBsD5PHAPFxCZnFlz7T6FNnBNazWrPojdu+hLkpauW5z6w2//Q04eO9qNI/B46ozgTJ1iw1ZDA5xDBWaKGK0FlYoykdLYdcRiauSMFxsUFs+v88BLqEaxgWIc0GLEnaNVcvzeQpA2SgDCKDYAzueBj1VAx2Li4mTOZxfYfRpt4JrWalbe+bTk8ScsO1akfvrjH3bju3k8dUZm1hhJSe1nPKe2pkZ2bCm29Jg1H30ku0u2WnrMW5k+21mF2uhe5nc2XHJBSzOnMF2YieqlWGzwwEuozs4Gnh9A2NQZOjOg/N5CiZ0NAMIoNgDO54GPVUDHPvX5+yUmLs7u02iD2Wtar/TXt0vWhGyZrjwYt7x0r2xc824Xv9v8ZySvPaa07tq3eheCNQPFOzZ81GiVgkxnxAUCxjO4cztypnc2REUpFhs8QGMnCM8PoEXeXJ2ZRn4eDi3CzgYALSg2AABsN3Zyjsy/b5Hdp2ELP/Z2tfpnfnDpMvVh0a//9F+lvq5ONTNSXntMBZWKSduKNlp6vJChORCtTZ+tW2xzisbGBrtPwTUaGuqNHl9jJ8t1Hnh50yjONLLzBxARkT//y4WSmGR+XoMIOxsAIIxiAwDAVsNHZ8nX/u5pu08DLpaUkiKLFi9RzayuqpQ3Xn1FNdOvMjJHSuod/Y3n1NfVyRaLZjdUV1VK6a6dlhyrI9Nm6rSH6CzTC9AXqqqMHt8rmhobpaHebLFBoy2Ql2j8vi5WVRrPAJwuPqG3LHjgQbU8ig0AcA3FBsD5uGqBZ02dPVee/Mm/OLwFA7t1rWaizc89931BfVj06jf/U44dqejkd/F46orcOTotEIrXF1hynM0WHacjo8aOk6SUvipZnRUdbbbYUF3JYmokqs6fN55h+m99Aw+8hGq0Uari+QHI08ufk8Q+SWp5V5v9PSCamQ0Awig2AM7ngY9VwI2SUlPl68/8QBZ/69t2n0oEmNngFo8++ZR65is/ebaT38HMhq7QmtuwrWijNFrQcqZonU4LpWC+c1soxcTFGj1+XW2N8cHHXlBVec54Rqwj5y05l8Z8qupK80UmwKliYmPl6eXPydARmaq5zGxgZgOAayg2AACMuj0qSvr27y8jx42XeQs+J0u/94z86JdvyLicqXafGjxmZNZYyZt7t2pm+b5SWf/OW6qZfjQoY5jKzpVLTU2yvTjUrWOcO3tGykrfs+iM2ufUFkoiIknJ5ndcVLGg2iGNHSBO3V3jVMl9U41nsPMHfpWWPlCWr3hNxt01WTWXFkoA0OLP7D4BAB0yfuXy2DPfl/E500zHAC5l9gYarw3ztdvDj31DSkKbVIc3v/7SCzJpep7EBQIRfLX5G7K8+piaPnuu/O61V43nhArXdWsotVYLpTHZd0nvPn1Usroiqa/5BejqykqVeR5uVnXe/M6GZIW/tdckJiUb3X1w7uwZY8cGnCgmNlYWfvlh+cz9X7Qln2IDbZQAtGBnA+B8xt+1e7AbEWgHbZTcJKF3oix6RHdY9MUL1fLrFS9H+NW0Ueqq3NlzVXK2btrQrWJVqHCdhWdza90piGjQuNu98tyHxjPcrvKc+WIDOxs6L1nhd3bxQrXxDMAucYGApA8eIjl5M2XZU0/Lz978X9sKDSIUG0RoowSgBTsbAOcz/q7dzA0CQDvY2eA28xcslLWrVnZheHPXvfuH/5K7P3OvDBqa0cFXsrOhq9LSB8qgjGFyrOKw8ayS0KYuteQ6d/aMHDqw38AZ3WzqjHyVnK5KTkkxnnH6xHHjGW536vgx4xnJqebbAnlNUt++UnGwzGjG6RPHJaF3otEMuNPMuz8lX//O9+w+DU+54vPh0CLsbADQgp0NAADAcx598rvqmS8++/fqmX6jNSi6aN2aLn3fprV/tPhM2pY9ZaoE4uNVsrpK4273k8eOGs9wuxNH3zeeoTGDwGt4fgDews4GAGhBsQEAAHhORuZImTX/06qZFeVlsmbVStVMv5kx75MqOTu2FHeplVKoYK2Bs7mZVtGlOzRmNrCY2jGN3R93pA0wnuE1Gjt/Th4zv6sFwDUUGwCgBcUGAADgSV9asjTCoc3W+dXLL0htTY1qpp+kpPaTjBEjVbI6O+j5g1Mn5f3DhwydzY2m5M1UyekOjZ70FeVm29C4ncauhkBCgvEML9Ioxp2iGAeoodgAAC0oNgAAAE9K6J0oX/zqX6tm1tbUyC9fekE102+Cs3UGIxcVdm6XglYLpUnBXImJjVXJ6o7U/mkqOefOnlHJcSNaKDkXbZQAb6HYAAAtKDYAzmd80lIPhYGlgHuZ/fCgNEzNt+6+517JyNS5Ez5s7eqV7QwJNv9h1OuPqemzdIoNe0q2ycUL1RF/fZFSCyWtn98KKan9jGdoDoJ3m6MKw9TTPpFuPMOL0tIHGs84+8GfpL621ngO4HcMh76mWafg4u2LXMAjKDYAzmf8XbtZYfELcC+z17RKF+a+tuTxJ9QzX/rxD2/xf8x/RvL6Yyq5b6pkjs5Sydq8oTCirzt2pELtLuLJ0/NUcqwwZPgI4xnlpXuNZ7hV2d73jGcMGTbceIYX9e13h0T36mU8p3x/qfEMwO/Y1XCN0s0u/LIBF6DYAAAAPC0jc6TMu+ezqpnHjlTI2//9pmqmnwTzde7uDxWsi+zrCiP7uu6aOiNfoqKjVbKsMFhhIVpjQd2tDiosNA8Znmk8w6uGZY4ynsHzAzDvylXWvwHg4yg2AAAAz3vgq/rDon+94qVOteFB5LTmNuzbvVOqqyo7/LoN776tcDYiQRe1UBLRuev9UNmtWpb526ED++VSU5PxHI2CklcNHq5QjCul2ACYxs4GALgRxQYAAOB5cYGAPLR0mWpmfV2dvM6waCMS+yTJ6HETVLKKO9i1cORgucqQ4qjoaJmYM814jpU0ig1NjY3tzEjxr7K9e4xnxMYFJCklxXiOV2k8P8r30UYJMI1iAwDciGID4HwMiAZsxYBor5g1/9My4s7Rqpnr33mr1Z2lDIi2SnDWbJWcjgY/a7VQmpI7w1UtlEREUvunSUxcnPEcjYV1tzmg0D5n+Kg7jWd4mUYLqqbGRqkoLzOeA/gZA6KvYUA0gDCKDYDzMSAasBUDor3ka9/8tnrmi8/+w8f+xYBoqwRnzVXJKS/d2+7OhaJ1a1TOI5ivU1yxmsbd27u2bTWe4Ta7tm0xnjF0hPkB4F42OGOYSo7GYwHwM3Y2XMOAaABhFBsAAIBvDBqaIfMXLFTNPH3iuKz6/W9VM/0gEB8vYydOUskqLixo878f3L9PpYVSTGysTArmGs8xQaPYsGf7NmlsaDCe4xZ7SrZJU2Oj8ZzBwyg2dJdGwWF7cZHxDMCvKDQAwM0oNgAAAF9Z9MgSSeidqJr5m5+vkOrK86qZfqDVSilU2HYrpVAHLZasMiVvpkqOCSNGj1HJ2bGlWCXHDUqKN6nkjFT623pZpsLv8NCB/XLxQrXxHMCPKDYAwM0oNgAAAF+JiY2Vhx7VHxb9ixefV830g5y8fJWcw2UH2tzBoNVCafqsOSo5JmSN1xnkXRLSWWB3gy0b1xvPuCNtgKT062c8x+uysieq5GzdtFElB/Ab5jUAwM0oNgDOZ7z5Yc8evBQAt8aAaMs54EeeMe+TMmrMONXMonVr5MB7u43n9Ojpn9f0QHy8TMyZppK1ae0fb/j3/j27pbqq0nhuICFBJkzOMZ5jSmJSsqQPHmI8Z8fmkPEMNzhysFyqzpvfRTVGaZG8Na+9Z2aNz1bJoZUSbuCx55Gd2NnQggHRAML882kUcC/j79pXuSMDaAcDoi3nkB956RPfUc88WnHYeEbzVX+9pk9TGpzcehfDrVorWW2qi1sohWVNML8wXVtTwyBcEQkVrlPJycq+SyWnNa+9ZyYkJsqgoRnGc7YXF0ltTY3xHLiEx55HdqLY0IIB0QDCKDYAAABfSksfKH/x+S/YfRropim5M1RyjlYclg9Onbz+b60WSkEXt1AKy5qgc/d2wdurVXKcrOCtVSo5YxQKSH6h9fzYuOZdlRzAT65QbACAm1BsAAAAvnXfQ4slMSnZ7tNAN8TExsrkYK5KVnix7r0dJVLz0UfG8wLx8TLGpjvIraTVKqa4cJ2v797evjmkMgg4ffAQ6d2nj/Ecv9DaJVL4DsU4wGpXfbabFAAiQbEBAAD4VkxsrHzlsW/YfRroJq27/zf8f7EhVKDTqiZ3zjyVHNMCCQkyZNhwlazWszX8RG1XgwcKYE5yp9L8oIryMjl1/JhKFuAHV5ub6ekDAG2g2AAAAHwtOGuOZGaNsfs00A2Tp+dJVHS08ZwPTp2U9w8fUpvXEMx3fwulMK27twve1llwd5qLF6pl66YNKll2DYf2qkBCgmSMGKmStWbVSpUcwA+Y1wAAbaPYADif8UlLPXvwUgDcmtkPEkrD1JzFgT/yY09+1+5TsEyPnv57TY+Kjpa7pgZVsl5e/o9SX1dnPCcppa+MGqtzx7OGSdN0/j4V5WVyuOyASpaTrFn5Pyo5t0dFydiJk1Sy2uLV98yJSs+PwndWS2NDg0oWHMyjzyNtFBtu1Kzz++DBC7jA/wEAAP//7N15WFT1/gfwd/cqiw7IJigiCAiIoiaisqmI+y6KuaKggoILiriLC+WWEWlkaZqmXM3MNCuzze2WWbduP0tTwwQF9w1JH5Ue9feHD/epZJkZ5ny/58y8X//6eD7vGWbOOXO+53w+lvdrlEh7FD9qP3rMXpNEFVP2nFbQibm6qPAluzf0RMzwONkxTOKxhfYPFtVKSdSF7PCoaCF1RGn2bDAcHJ2E1Nq9LVdIHTX5aOe7QuqEhEXAxtZWSK3ymOsxs2PX7kLq3CkpwZd7PxRSi1TMTL9Hoj3kb+i/ELQYzA8vkQZwsYGIiIgIwHOjx3BYtIYFtwsT0kpJlMjO5tNCqUxEdGchdb45dABXL10UUksNPtuzGyXFyg+GBoDIzl2F1LE09Rp4oJFvYyG1dm21vMU4IiXwyQYiovJxsYGIiIgIT1rxJE6dLjsGGcnK2hrt2neUHcMkXFzd4BfYTHYMk4uIFneh+oPtW4XVkm3X1i1C6tjY2iK0Q5SQWpZI1ELOzevX8PV+MXNniMzZQy42EBGVi4sNROqn+POIz7D1IVElOLPBkoR2iJLaj9wULPkzFSmolZLSzPXu8YBmQXBxdRNSa9/u91FyW8zd/jJ9c+gArl6+JKQWFxqUJaoVHCBugUptzv12Bt8cOoB9u9/Hjs0bsX3TBny44x0UnSuQHY006KGFtq2sCGc2EFGZGrIDEBEREanJhOmzkDI8VnYMMkJIeCRsa9USMsBZSeayaFKeyM5dhc1U2L5xPRKnpgupJcuWta8JqyXyYrglcq1XH36BzZB38oTitfLP5OHr/V9YzN/0yIEv8dHOd3H6+M/l/vum11bDxz8AMcNGIryTmHZvpG3mOj+GiMgU+GQDEeEx5ywRSWOJP1bU/prd3N0xeFSC7BhGU/v7q7R2Gr/72rW+O7z9/GXHUEyEwAt5+3a/j8KCfGH1RPvw3W24clHMbAqdvT2C24UJqVUpM9+9iZzVsvkNcQtVshSdK0B6YjyyFmdUuNBQ5uyvp5G1OAOJsf3xlZm3mbL08wRTYAslIqKKcbGBiNhGiUgiS2x5o4XXPHRMIuq61ZMdwyhaeH+VpPWnAtp36SY7gqJ8/APg3tBTWL2NOauE1RKppLgY72xcL6xee7W09jLz3VtEJ3H7r+tXr2Bn7tvC6on2ya6dSB09HPl5vxr0/25ev4bszAXIXbdGoWTyWfp5gilwODQRUcW42EBEfLKBSCJLvLtMK695XGqa7AhG0cr7q5RWbUOhs7OTHcNoWl8s0UefwUOE1Tr2/Xf44egRYfVEeeetN3H/3j1h9XoNHCysVqXMfPfm6OwstLXRe1s24daNG8LqifLRe9uxflVWtbaxa2suVi6Ya6JE6mLp5wmm8PAx5zUQEVWEiw1E6sezQSKpePeXqWnljrqQ8Eh1tA0hg4VFRcuOYJR6DTzg6e0jO4biorr1hG2tWsLqvZn9EkofPBBWT2lnTp3Ep3t2CasXHBom9GmUSmnj8FEtfQUuxpU+eFDti/Jqc+TgfpM90XT08EF89N52k2xLTbRyHqZmfLLhaYI+V3zjiTSAiw1EREREFRg/fabsCGQEka1ITCmqWw/ZEYSwtrFBjwGDhNW7duUytqw1n5Yo2ZkLhNbrO3io0HqWzi+wGQKaBQmrd/TwQXxz6ICweko6n38WWYvmm3SbG3NW4cL5cybdJmnfw0e85k1EVBEuNhARERFVwMXVDcPGJsmOQQZqHtxak62UzH1ew5/1jBG32AAAe9/fgZM/HxNaUwlvv/4qLl+8IKyee0NPtGjdRlg9eqKP4AWeN7JW4E5JidCaSlCq7dE7b72pyHZJu9hGiYioYlxsIFI/PudKJBXvXDI1rfUKjo2LRz33BrJjkIG0duG+kW9j1GvgITuGMM51XREpeOjwq8ue13Q7pdMnjmPP9m1Ca8YMGym0XpW0dfgwWnhUNJzrugqrd6ekBGuzVwqrp4T1q17GxcLzimz7yMH9uHf3riLblkFr52FqwxZK5RP0ueK1ESINqCE7ABFVSfGjtm2NmrCzsla6DJEmsa+t6WnxPU2eMQcLp02SHYMMENGpCz7ZtVN2DL2JvvCuBgOGjcRXX34urN6VixeRs2IJ0hZkCqtpKiXFxXh5cYbQmjo7O0T36iO0ZpW0d/gwWu/Y57D59Rxh9Y4c+BItgkPQtW9/YTVN5ev9X+CTXe8pWuPbfx9CVI9eitYQRYvnYWrCxYbycWYDEZXhYgOR+il+1P7nM8+gxj/4oBNRuXhKa3JavKMuqFUwQjtE4ejhg7KjkJ4CW7SEk4sLbl6/LjuKXiKitTlnojq8G/shsEVLnPxJXHujr/d/Ae/G/ogZrrI79quwfN5MXL96RWhN0a189KK9w4fRuvTuhx2bNwq9o/6NrBVo4OmFpi2fFVazus7+ehovC5hjcuLYj2az2KDF8zA1YQul8vHJBiIqw6uLRMS7W4gkssTvn1Zf85jJU1HTykp2jCpp9f1VglYGRfsFNoVrvfqyY0gRN36i8Jq569bgh6NHhNc1Vs7yJTh94rjQmnUcHdU5GNqCdm+1dToMGjFKeN0VGbNx9fIl4XWNce3KZSybO1NILa28J/rgeUL1cDg0EVHluNhARLy7hUgiS/z+afU1O9d1xZD4cbJjVEmr768Swjt1lh1BLxEayamEgGZBaBvZQXjdrEUZyD+TJ7yuoXZtzcWBfR8LrzskfixsbG2F162She3e+sQOgaOzs9Cad0pKsHR2Ou78/rvQuoYqKS7GorQpuHn9mpB6Vy5eFFJHBJ4nVA/bKBERVY6LDUTqx7MZIol495fpafk9jRk+Eu4NPWXHID35N20GF1c32TGqFBYVLTuCVHHjU4TXfHD/HjJSU1S94PDB9q3IXbdGeF3XevXRvf9A4XX1ot3Dh1FqWllh+NjxwusWFuRj/uQJKLldLLy2Pu6UlCAjNQWXLxQJq1laqt3h8n+n5fMwNWAbpfJxZgMRleFiA5H6KX7U5gknUcWUvvuL3z/tGZ8mpmWDsfiZ+iu1D15uEtRCEwsiSnJv6Ilu/QYIr3vv7l1kpKYg7+QJ4bWrsn3TBqHDgf8sfuIUKXWpfNG9+sCjkbfwuoUF+ciYkoLbt24Jr12Z4ps3MH9KMorOFQita2dfR2g9Ui8+2VA+zmwgojJcbCAiPkpLJJElfv+0/pqDWgUjUsXDfLX+/pqa2lsURUSrO58oQ+LHSql77+5dLJw2Bcf+852U+uV569VsvLtpg5TaAc2C0K59Rym19WKhu7e4pGQpdYvOFWD+lGRcvaSOFkIXC89jRtIYFBbkC6/t5dtYeE2l8DzBeA/53hERVYmLDUTEu2CJJLLE7585vOb4ianq7GcO83h/TcnHPwBu7u6yY1Qo3MJbKJVxcHLG4FEJUmo/uH8PmTOm4r0tm6TUL1N86yYyUlPw8c4d0jLET0yVVlsvFrp7CwmPRJOgFlJqXyw8j2lj4vD9ka+k1C+Td/IE5qQkCpvR8HeBzVtKqasEnicY79EjtlAiIqoKFxuI1E/x2yd4dwtRxZT+QcbvnzY5Ojtj6JhE2THKxc/U09p37iY7QrmCWgXDwUns8Fc1GzhiFOq61ZNWf9uGdVg8PRV3SkqE1z59/GdMHzsavxz7P+G1y0T37A3/ps2k1afKJafPklb7/r17WDZ3JrasFT9DBHgyv2R2cqLUodVqf0qOxOCTDRXjzAYiKsPFBiL148wGIok4s4Eq0nfwUHj5+MqO8RR+pp4WodK2VxGd1JlLFitra0yeM19qhp9++A+mJozAD0ePCKu5+fUczJ00HsU3bwir+XdOLi5ImKTypxosnEcjbwxNGCc1w+5tuZidPA4XC88LqVdyuxgvzEyTNr+kTIeu3WHv4CA1A6kDh0NXjDMbiKgMFxuIiIiIjJSUNkN2BNKDp7cPGnh6yY7xlHDeKfuUZs8Go8eAgVIz3LpxA0tnp2PVksWK3kn96y8nMGnkEHywfatiNfSVPGMOatXWyY5BVRg8egw8vX2kZsg7+Qsmxw3FTgXbjj24fx9739+BqfEj8ON3RxWrow9rGxuMmjBJagZSDw6HJiKqGhcbiIiIiIzUJKgForr3lB2D9NC+i7paKbVs0xY6OzvZMVRp1ISJcHFzkx0Dhz//FJPjhmDnlk0mba2UfyYPq5YsxpyURFwqKjTZdo0V1aMXgtuFyY5Bepo6f5HsCACArRvWYVrCSOzf+5HJtllSXIzcdWswdlBfbFidjdu3bpls28ZKmJgKR2e2u6MnHnJmAxFRlbjYQERERFQNo5Mnw7ZWLdkxqApq67cdGd1VdgTVsraxxaRZ82THAPDk4ufWDeswul8PrF6aiRPHfsQfpaUGb+f2rVs4/PmnmJ2ciPRxo3H4808VSGs4B0cnjJ08VXYMMoCXb2MMHj1GdgwAwPn8s3jtxaVIGNALW9evRcFvZwzexuULRdizfRsWpU1GwoBe2LU1F/fu3lUgreFatQ1F1779ZccglXj8+DEHBhAR6aGG7ABEpALs701EIpnZLsfewQEjEpOxflWW7ChPcJ9eLveGnvD280d+3q+yowAA2rXvKDuCqjUPDkG3fgPw2Z7dsqP8z6HP9uHQZ/sAAN6N/eDtHwDPRt5wa+AB13r14VbfHX+UluLyxQu4fKEIly8U4cypkzibdxq3bsibx1CZlFlzNdU+iTNpnhiaMA5HDx1AYUG+7CgAnizK7cx9Gztz30ZNKyv4+jeBX2BT1PfwgJt7A7jWqw/3hp64fKEIRecKcD7/LAoL8vHb6VO4cP6c7Pjl0tnZYdJsdSx6mhy/R0bhcGgiIv1wsYGIAJ44EZFIZrjL6RkzCF/u/VAdF7K5T69QRKfOqvgbhYRFoLZOOxd4ZYlPmYxffjqGIpVcUP2z/DN5yD+TJztGtfQeNBitQ8NlxzCIoAGkmpC+eAlmJCWg9MED2VH+4o/SUpw6/hNOHf9JdpRqSVvwPByczLN90sF9e3Fw317ZMaqltk4HR5e6aNDQE20iIhHaPgq2tWsrWpPDoYmI9MM2SkTqp/ivKv5wI6qY0ndR8vtnPpLTZ8uOAICfqcqoZW5DRHQX2RE0wdrGFnOWvqipO++1wi+wKcZMniY7BlWDh1cjpM5bKDuGWRo+Ngkt27SVHYMqcffOHRQV5OPbfx9CzvIlSIjpjfWrsnDj2lXFanI4dOUEPXnGPwKRBnCxgYiIiMgEfAOaoEvvfrJjUCVcXN3gF9hUdgy0iWgvO4Jm1HNvgBmZS2THMCuOzs6Yu+wl2THIBEI7RCFmeJzsGGaldWg4BsXFy45BBvqjtBSf7NqJSSOH4Nj33ylS4+EjXucmItIHFxuI1E/xWwTY/5aoYkrfJc7vn3kZOT4ZOjs7qRn4maqc7EHRoR2iOFDcQC1at8GwsUmyY5iNOctWwt7BQXYMMpGRScloGcK78E3Bw6sR0hY+LzsGVUPpgwfITJ+K7498ZfJts41S5QQ9WcuTXCIN4GIDkfqxjRKRRGyjRIaws6+DkUkpUjPwM1W5sKhoqfVlL3ZoVWxcvObmC6hR2oJM+Po3kR2DTCx98QtwcXOTHUPTdHZ2mLf8JdjY2sqOQiawbO5M/Hb6lEm3yTZKlWMbJSIqw8UGIvXj6j2RRLxwa3rm/p527dsfvgG8mKdWLq5uaBLUQkrtmlZWaB0WIaW2OUhb+Dy8fBvLjqFZfQcP1f68EPM+fBitVm0d5i5dqfiAXHM264UVcK3vLjsGmdDzM6ah+NZNk2zroZmfu5oCn2wgojJcbCBSP57ZEEnEljSmZwnv6cRZ82RHoEpERMt5uqBdZAdY29hIqW0ObGxtkZmdAy8fX9lRNKdrn36InzhFdozqM//Dh9G8fBsjMzuHA9WNMC1jMZq2fFZ2DDKx30tuY9v6dSbZ1qNHbKFUFT7ZQERluNhApH78WUUkkbnfhS+DJbynXj6+6N5/oOwYVIFwSa2MNH9XuQro7O2R+cprfMLBAD1jBmFC+mzZMUzD/A8f1eLjH4BF2av5hIMBktJmILJzV9kxSCFffLwHl4oKq70dPtlQNT7ZQERluNhARBZxlzGRWlni989SXvOIxAmwryN+CKulvL/V4eDohKBWwUJr2tjaom1kB6E1zZXO3v7JEw5ccKhSn9ghGJc6XXYM0+HurUq+/k2QmZ2D2jo+4VCVURMmonu/GNkxSGFHDx+s9jY4HJqISH9cbCBSPw6IJpKIA6LJWLV1OoxKnii8Lj9T+onoJPYpg3btOwqtZ+7+t+DAlkoV6hkTi4RJqbJjkAQ+/gFY9PKrbKlUiXGpaeg/dITsGCTAf7/9ptrb4HDoqrGNEhGV4WIDkfopftTmXbBEFVP6wi2/f+atU4/eCGgWJLQmP1P6Ce0YJbQeWyiZns7eHpmr1iCwRUvZUVRn+NgkjEtNkx2DJPLxD8ALq9fA0dlZdhTVmTwnAz1jYmXHIEF+O32q2tt4yJkNVWIbJSIqw8UGIiIiIgWNnz5LdgQqh30dB7Rs01ZIrdo6HVqHhgupZWl0dnZ4YfXr6NK7n+woqjEjcykGxcXLjkEq4OXbGFnrN8MvsKnsKKpgbWODOctWIqp7T9lRSKAH9+/j1o0bRv//R48f83Z6IiIDcLGBiIioEjWtrDS9fUPVqKl8HrW9ZqV5+fiid+xzwur9s0YNYbW0LjJazFDQ0I6dhNSxZMkzZlt8yyBHZ2e89OYmhHaIkh1FMVZW1orXMLdjVB1HRyx/fT06dO0uO4pULm5uePGNDQgJi5AdpVI1ataUHcEs3fm9xOj/yxZKRESG4WIDEbG/N1EllG4/4OikrvYGItotOLm4KF5DbYaNSYKDo5OQWvYO4odSa5WoOQoRnToLqWPp+sQOQcbKbFjb2MqOIlzjJoHIWr8Z3n7+sqMoysFJ+f2ok7N5HqNS5y3EsLFJsmNIERwahpc3bIFHI2/ZUark4uomO4JZqs6+g8OhiYgMw8UGIsIz/+CugKgiznVdFd1+XTd1/ahU+vUCgJNLXcVrqI1trVqInzhFSB1RixrmoLZOh5DwSEVr2NdxQMsQMe2aCHi2TTu8uHYDPL19ZEcRplu/AVjxxgbUcXSUHUVxIo5RLio7LptSbFw85ix9EXb2dWRHEcLK2hqJU9Mxb3kWauu0Myybx3HTsraxqdZn/uEj3phHRGQIXmEkIjzmwCuiCgW1aq3o9psHhyi6fUMFNld20GqL1m0U3b6ate/SDU2CWihaQ+m/nzlS+qmDsKhoRbdPT/PwaoTsjbkYOiZRdhRFudZ3R+YrORifNlN2FGFsa9WCr38TRbdv7vvRkPBI5PzrXXTq0Vt2FEX5BTbFKxv/hR4DBsqOYrCgVsGyI5iV5tU8l3/EJxuIiAzy/wAAAP//7N15cJT1HcfxDyJsIJuEzUVISAIJkEg4JBQTAoQQwyVyCnIJCAqFiggUR/DEUkXFAwuCWKszFA9apxRn2rG1eICA0gq1QhNOBSRAOJJdiBy6m/5R7HRqJ5J9nifPZp/36x/+2f3+vpPZZJjns9/fl7ABgBo1amR3C0DI6mnxXevdQ+zu4Ei329KluQUOf/A6696Fltbv0auPpfXDUV6fQjWLjLSsft8BgyyrjdqNmTxVK9etD8uHx6MmTtbqN95SzvXOeyiZV2jd9WdWTzqFCndUlGYvfEAPL1seltOGE6fP1BOrX1bL5GS7WwlKXhjvXbGD0dDfz5XDAFAnhA0A2NkA1CI2Pt6yhw/9hw5XRLPQu1t80IhbLKnrjo5WYf8BltRuKFqnt9HwsRMsqR0VHaMBw0ZYUjucuSKaqeSmoZbUzuiQpaycTpbUxtVp1TpVP1+xWtPnLgjJv7d1ldY2Q8teelUTp8+0uxXbFA++2bLag0eOtqx2KOra4watXPemhtwyxu5WTJHRIUvP/GqtRk2cbHcrhhQUFYdlCGSHGI/H0ARjjVgQDQB1RdgAgMkG4AeMm3qnJXXH3m5NXaNu6NVHGR2yTK87Ytxtjlzc+r/GTr3TkiXZYy36nDrBiAnWfDYnz5xtek0EZ9CIUVr1+lsaOGyk3a0EJb5lS825/2E99+o6S/4+NySeuDgNHTPO9Lq5eT0dGQ66Ippp2t3z9Owrv9aPQmza8mq18MRqzv0Pa9lLr6pNZju72zHF6ElT7G4hLNwycYqaNG0a9Pv9XDcMAHVG2AAAwA9o276D6Xf+3jbjJ/LExZla00wz5i0wtV56Zruw+eakUa6ICM176Gem1mx/XUcNHmnNRIoTtPDEavw0c8OagqJidc61ducL6ibG49GM+fdqzfoNKuw/0O52rkoLT6xmzFugNes3cCXXfxk96XbFJ5q3yLlZZKSmzr7HtHoNUXpGphYtXaalq36pnK7d7G7nqiQlp2jyzLu08rXfhN3vx8Dho5SZZd1+EifI7JCtIaNvNVSDqQYAqLvGdjcAoHaprRJ7Syqx8ozexSVKSUu38gigweueX6C9uz/XyfJjhmv1GzREU2aF9jee4xISlZKapo83f2C4VozHoyXPr1JUdIzxxsJEQlKS3O4o7drxseFa8Ykt9ejylWFxRYydsnI665y3SgfKSg3X6pzbXQsWP6bG115rQmcwW3O3W/mFRerbf6CqKs/q6Jdf2N3S9zSPdGvMlKma/8gSZeV0trudkNPU5VK3Hnn68M/v6NtvvjFc76GnnuPB7hVxCYnqN3iIMrOydezwl6o6e9bulr6noKhYU++6R9PmzFN2py5q0qSJ3S1ZIq+wr7Z/8J6qz5+3u5UGJ6FlkpasWCVXRIShOpcDfn3LdMNVqT53Tps2brD6mD1Hj596y+pDABhD2ACEuPoIG/qUDFByapqVRwBhIb+wSOVHj+irw18GXWPomHGaMf9e85qyUFpGpuHAIbVNWz26fKUSWiaZ11iY6NAxR40bN9buXZ8GXSMpOUWPPPO8qd/wdbLc/AI1krTn77uCrtGruESLHl9G0NAAuKOjVVBUrOLBQxQbH6+vq7/W2dOnbOunqculG3oXavwdMzRrwX3q1K07n6NaRLfwKDe/QJ9u36oLX1cHVSPS7dYDTzzNFNL/kZyapgHDRqp7foEi3VGqPH3a1ofeia2SNXzcBM19cLGKB9+spJQU23qpL66ICPXs20+f7/ybqipDL/QJVW3btdcjz/5CnljjE8SXvvUz3XCVCBsAfIeL2oEQV5Cbs1DSUivPWPT4U5YtwAXC0cY3X9PaF1+o03vcUVGaPneBet/Y36KurHNwX5mWL1ms8qNH6vS+foOGaPrc+exp+AE7Ptqs5x97VBcvXKjT+wr7D9T0uT9V80i3RZ05146tW7Tm6Sfr9HCnqculCXf+2JK75FF/Kk4c19b3Nmn7B+/p4L4yy89r6nIpr09f5RcWqXt+gaG7xZ3KV1WlFUuXaOcn2+v0vqycTpr74GIltkq2qLPwc6CsVNve36Qtm96tt2Cud3GJbhwyVF2696iX80LRpYsX9cqK5frLH962u5WQVzJkmO6YM09NXS5T6nkvXSRsuEoV5cd0/zTLl7Ov37ZzD//RAkIcYQMQ4uolbFi6rMEuhAPscurkCa198QVte39Tra9zRUSo36CbNH7aDLmjo+upO2tsXP+6fv/GOvmqqmp9XXanLpo8a7YjF20G6/TJk/rT2xv00aZ3VXHieK2vzc3rqdGTbldWJ65WsdKF6mr98Xe/1TsbN9T6UK15pFslNw/V0DHjLVn8Dfuc9/l0YG+pDpaV6sDeMh3at1enK04aqpmZla122R3VJrOdMrOyubrHRDu2btEbL6/RkS8O1fq6lsnJunXyNBUNuqmeOgtPFcfLdWj/Ph0oK9XBvWU6uLfU8ORDbHy8UttkKLtTZ2V37qKsnM6Gr8EJJ3v37Nba1StVtvsfdrcScjp2vV5TZt2tdtnXmVq38mLdvgjiZIQNAL5D2ACEOMIGILRdqK7Wjq1bdGjfXlWePaNzXq9iPB7FJSQqu1Nn9ejVx+4WTVf6+Wf67K87dOZUhSrPnFGTJk0Um5Cg5NR05Rf2VVxCot0tNmj7S/fo480fav8/90iSPPHxap2WrlatU3Vdl678fG2wv3SPdu/apfKvjujMqQrFtPAouXWqOl7frcEsUoU5zvm8OnzwoLyVZ+XzenXe55XP69U5n1fnvF5d0/gaRbfwKDomRtExLRR15d+4hESChXpSfvSIPtmyWRUnynX29GkF/H554uOVmNRK3fML1LZ9B7tbDFsny8t14thX8lZVyuet0nmfT76qqn//fvh8Cvj9/3lti7g4paSlK7l1qpJSWis9I9O0b6OHu9MVJ/XJls0qP3pYlWfO6LzPZ3dL9S4yKkpxCQlKSUtXXp8iS8J+fyAg3+VLptcNV4QNAL5D2ACEuILcnPskPWHlGQsfezIsH4gCAAAAAFBXl/1+VX9z2e42GoxTx8u1aOokq495c9vOPeOtPgSAMdfY3QAAAAAAAAAQKvw1AbtbAIAGibABAAAAAAAAuMIfYDE0AASDsAEAAAAAAAC4gskGAAgOYQMAAAAAAABwRaCGyQYACAZhAwAAAAAAACDJH2CqAQCCRdgAAAAAAAAASPIz1QAAQSNsAAAAAAAAAMS+BgAwgrABAAAAAAAAkOQPMNkAAMEibAAAAAAAAADEZAMAGEHYAAAAAAAAAMerkRRgZwMABI2wAQAAAAAAAI7nDzDVAABGEDYAAAAAAADA8fxMNQCAIYQNAAAAAAAAcDz2NQCAMYQNAAAAAAAAcDyuUQIAYwgbAAAAAAAA4HgshwYAYwgbAAAAAAAA4Gg1NTWEDQBgEGEDAAAAAAAAHI3l0ABgHGEDAAAAAAAAHI3l0ABgHGEDAAAAAAAAHM0fYLIBAIwibAAAAAAAAICjMdkAAMYRNgAAAAAAAMDR/AHCBgAwirABAAAAAAAAjhWoqRGXKAGAcYQNAAAAAAAAcCyuUAIAcxA2AAAAAAAAwLFYDg0A5iBsAAAAAAAAgGMx2QAA5iBsAAAAAAAAgGMx2QAA5iBsAAAAAAAAgGMx2QAA5iBsAAAAAAAAgCP5a5hqAACzEDYAAAAAAADAkfwBphoAwCyEDQAAAAAAAHAkrlACAPMQNgAAAAAAAMCRWA4NAOYhbAAAAAAAAIAjMdkAAOYhbAAAAAAAAIDj1EgKsCAaAEzzLwAAAP//7N3BEcAwCAQx919zbNIE8ACpjR04sQEAAACAdYxDA+QSGwAAAABYxwslgFxiAwAAAADrGIcGyCU2AAAAALCOywaAXGIDAAAAAOvYbADIJTYAAAAAsMqLOJ4oAeQSGwAAAABY5XPVAJBObAAAAABgFXsNAPnEBgAAAABWuc8TJYBsYgMAAAAAq7hsAMgnNgAAAACwRkScFy4bALKJDQAAAACscYUGgBJiAwAAAABrfM8LJYAKYgMAAAAAa9hrAKghNgAAAACwxn3eKAFUEBsAAAAAWMNlA0ANsQEAAACAFa69BoAyYgMAAAAAK9zwQgmgitgAAAAAwAqfywaAMmIDAAAAACvYawCoIzYAAAAAsILNBoA6YgMAAAAA472IY7EBoI7YAAAAAMB4XigB1BIbAAAAABjvPncNAJXEBgAAAADG+1w2AJQSGwAAAAAYzzg0QC2xAQAAAIDR4sR54Y0SQCWxAQAAAIDRPnsNAOXEBgAAAABG80IJoJ7YAAAAAMBo1zg0QDmxAQAAAIDRPpcNAOXEBgAAAADGMg4N0ENsAAAAAGCsaxwaoIXYAAAAAMBYXigB9BAbAAAAABjLODRAD7EBAAAAgLGuywaAFmIDAAAAACPFOecahwZoITYAAAAAMJKrBoA+YgMAAAAAIxmHBugjNgAAAAAwknFogD5iAwAAAAAjeaME0EdsAAAAAGAc49AAvX4AAAD//+zdwREDIQwEQfKP+UB+OAfEqroj4D8lVmwAAAAAYBxXDQB3iQ0AAAAAjCM2ANwlNgAAAAAwzmccGuAqsQEAAACAcVw2ANwlNgAAAAAwinFogPvEBgAAAABGcdUAcJ/YAAAAAMAo214DwHViAwAAAACjfC4bAK4TGwAAAAAYxTdKAPeJDQAAAACMYRwaoIfYAAAAAMAYrhoAeogNAAAAAIxhrwGgh9gAAAAAwBhfiQ0AHcQGAAAAAMbwjRJAD7EBAAAAgBGqah3j0AAtxAYAAAAARvCFEkAfsQEAAACAEYxDA/QRGwAAAAAYYR9fKAF0ERsAAAAAGME3SgB9xAYAAAAA4p2qVcahAdqIDQAAAADEs9cA0EtsAAAAACDe9oUSQCuxAQAAAIB4LhsAeokNAAAAAMTbYgNAK7EBAAAAgGi7zjINDdBLbAAAAAAgmi+UAPqJDQAAAABE28ddA0A3sQEAAACAaC4bAPqJDQAAAADEqvXfbACgl9gAAAAAQKztqgHgCWIDAAAAALF8oQTwBrEBAAAAgFi+UAJ4g9gAAAAAQCyXDQBvEBsAAAAAiFRV61R1PwOAJTYAAAAAEMpVA8A7xAYAAAAAIn32GgCeITYAAAAAEMllA8A7xAYAAAAAIm2xAeAZYgMAAAAAcfY5yzQ0wDvEBgAAAADi2GsAeIvYAAAAAEAcew0AbxEbAAAAAIhjrwHgLT8AAAD//+zd+2/Vdx3H8XcLLjHLLOW2gXddYogxaLyOGBKcDHUXL5nxB2My/clsGdkSjInLNjFelgyHuHhZBha3iUMEnWTgNrKgbAw2GKuMyzYY0xVo4ZTTQg8tjPbrT/w2gzvQfj7fcx6Pf+A8f2m/7XnlnLexAQAAAIBSKYoihgsXGwByYmwAAAAAoFTcawDIj7EBAAAAgFJxrwEgP8YGAAAAAErF2ACQH2MDAAAAAKXiODRAfowNAAAAAJTGcDESTkMD5MfYAAAAAEBp+AolgDwZGwAAAAAoDWMDQJ6MDQAAAACUhrEBIE/GBgAAAABKoSiKGClcbADIkbEBAAAAgFI4U/hUA0CujA0AAAAAlIKvUALIl7EBAAAAgFIwNgDky9gAAAAAQCkMGxsAsmVsAAAAACB7Z0ZGwmlogHwZGwAAAADI3rDj0ABZMzYAAAAAkD33GgDyZmwAAAAAIHtvGBsAsmZsAAAAACBrI0URReFiA0DOjA0AAAAAZM1XKAHkz9gAAAAAQNaMDQD5MzYAAAAAkLUzhbEBIHfGBgAAAACyVUTEsE82AGTP2AAAAABAtgwNAOVgbAAAAAAgW+41AJTD+NQBwDm1jPoLtIz6SzSlam9v7Nu7O6q9vdHfV40RfyA3hdbW1pjQPjEmTZkal8+YEe9om5A6qeHt2dkZR7u7o9pbiaGhodQ5ACTW2toabRPaY9LUqXH5h2ZEW3t76qRS2//y3jjc1RXV3kqcrNVS59CkTg8Px0jdNxta4pK2tmibODHe/YEPxpRp0y9oGxFFUYzFy3jjAkrA2ACM1R8GTeGN06djw6NrY9OGx+KlXS+mziEDH575sZh91bz4/NXXpU5pKAdeeTnWrVkVWzf9I2oDA6lzAMjYjI/MjNlz58VV130ldUppdB/sinVrVsXmjU9Gtbc3dQ5cUO963/vjU3M+F3Ou+XK8/eKLU+cANBRjA8AF8sTaR2LF0vvieH9f6hQysqtzR+zq3BErO5bFt2+aH7PmXJk6qdQqPT3xm0V3xQvPbU2dAkBJ7NnZGXt2dsbDHffHDTfOj9lz56VOytZgrRb3Lb47Nm14PHUKjJqu1w5EV8eyePThFfGF678R137zW6mTABqGsQHy52MHJfDw7+6PVQ90pM4gY8cqR+PnC2+PWq0Wc6/xKYd6HO56Pe645aY4VqmkTgGghPqr1Vjyk4VRGzgRX/zq9alzsnPieH/ceevN8e/9+1KnwJg4NTgYjzy4PI4ePhTfWfD91DmlNkZfzey9ESgBYwPkz82GzK1cvszQwP/tt4vuitaWlrjy6mtTp5TKkcOH4rabvxv91WrqFABKbumSe6IoivjS176eOiUbg7Va3D7/xnj9tQOpU2DMbd7weLSOGxc33LogdUppudkAnNWaOgA4p1F/arvZUL+nn9wQf1q+LHUGJfPru38Wuzp3pM4ojcFaLRYuuMXQAMAFs+yXi2PbM0+nzsjGT3/wPUMDTe2px9bH+pV/TJ1RWj7ZAJxlbACoU6WnJ+750R2pMyipRXfeFoO1WuqMUlh67+LoPtiVOgOABvOLH/8wBk6cSJ2R3OoHl8fuzhdSZ0ByqzuWxn98jRjAeTE2ANSp41dLUidQYsf7+uLPD/0+dUb2Dux7JTb+fV3qDAAa0GCtFis7lqbOSKra2xur//BA6gzIxkP3+h8P4HwYGwDqcKxSiS3/3Jg6g5Jb/5fVqROy97eVK1InANDA1q1ZlTohqSfW/jVODQ2lzoBsvLp3d3QdeDV1BkBpGRsA6rBt81OpE2gAp4YG48Udz6fOyNq2zb5PG4DR9fyWZ1InJLN9y+bUCZCdnc9uTZ0AUFrGBsjfmFxa4q3p3PZs6gQaxL+2P5c6IVv7X9obJ2sDqTMAaHDN+nfdydpA7Nu7J3UGZGfXju2pE0qnKMbkdrP3RqAEjA2QvzF5avPWHKscTZ1Agzjs8PH/VDnSkzoBgCbQfehg6oQkKkeOpE6ALB1p0t8J56OlZUx2AO+NQAkYGwDqcLyvL3UCDaLS0506IVv91WrqBACaQLM+iz1n4c0dM8QB1M3YAFCH1nHjUifQIIbPDKdOyNb48eNTJwDQBM4MN+ez2HMWALjQjA0AdWifNDl1Ag1i4pQpqROy1T7ZzxkAo2/S5OZ8FnvOwpu7ZMKE1AkApWVsgPw5gpShqZdNS51Ag7h02vTUCdnycwbAWLh0enM+i5t1ZIFzmXJZc/5OOB8ORANnGRsgf44gZejjV8xKnUCD+MSsz6ZOyNY73/NegwMAo65Zn8Vvu+ii+OgnP506A7Iz8zNXpE4oHQeigbP+CwAA///s3d+L1XUex/H3Rc1pGh2rMZ3aXCs1jClbZwp0SvsxZtpo6qo52q6iGFHt0m4hm0VFXeiWFQVFlFBRdNFFEcvCwhJFxC7sTRexW0FdViwtC7EQtszMOXs1+weo5/v+fj/zePwB5/u8Owde5/P9GBug/rr+rV3RD4OijKwajZ5WKzuDhpvbPy+uHB7Jzqi10RvHshMAKFhvX1+MrJq9fyJZfcON2QlQO9esvT47oXGcbABmGBug/rr+rV3RD4Oi9LRasWHrz7MzaLgtE3dkJ9Teph27shMAKNjmnRPZCanWrrsl+ud5Pz3MWDl6bSy48CfZGY3jZAMww9gAcJK27fml0w2ctLn982LTjtuzM2rv3IGB2LhtR3YGAAU6u29ObJ3Yk52RqqfVih1792dnQG1s338wOwGg0YwNACepf945cc+hw9kZNNT9jz0RZ/b0ZGc0wh0H74oLLlqUnQFAYX77yOPROqs3OyPd+PadMXTVyuwMSLdt34EYXPTT7AyARjM2QP25s6HG1qxbHxMH7szOoGHuOXQ4Voxck53RGL19ffHo08/FOeeel50CQCEO3vdADLsE9v8ePPJkLLr4kuwMSLNmw60xvtsrTk+WOxuAGcYGqD93NtTczr37497fPZydQQO0zuqNw0ePxdj45uyUxlkweEEcO/56XLLssuwUABqsp9WKQ08ciY3btmen1MrZfXPi6Iuv+DMEs9LWfftj328eyM5oNHc2ADOMDVB/TjY0wE0bx+P3Lx2PxZcuyU6hpoZ+NhxPH38trl59bXZKY503f34ceeHluG3X7uwUABpo+RUr4qmXX41Va2/ITqml3r6+eOyZ52Pv3b9yLxmzwvzBwbj/6LHYtPsX2SmN52QDMOOM7AAgn5MNp8eyy4fi2VffjD//4b344E9/jC8//yw7iRq4cngk1o3fFteN3ZydUoSeViv23f3ruHnTlnjnrTfibx9/FCd++CE7C4AaG7pqZYyNb47r12/ITmmELbv2xJqx9fHuW2/EXz58P/7z/ffZSXBaLVqyNFbftC7Wb9+ZnQJQHKsg1Nzo8NCDEXG0m884fOSpuHr0um4+Ylb697++i39+83V2BokWL1kWc+bOzc4o3hd//zSmp6ayMwCoocWXLo05/f3ZGY321Refx39/PJGdwSwx1e7EianJrn3+wMKFMX/hYNc+f7b67ttv4qEDe7v9mLf/+sk/Jrr9EODUONkA9efOhoYaOH9BDJy/IDsDirf8ihXZCQBQrKXLL89OYBY5MTUZP/oTSeO4swGY4c4GAAAAANJNtdvZCQCcAmMDAAAAAKk6YWwAaDpjAwAAAACppg0NAI1nbAAAAAAg1WR7OjsBgFNkbAAAAAAglVcoATSfsQEAAACANO5rACiDsQEAAACANO5rACiDsQEAAACANE41AJTB2AAAAABAGpdDA5TB2AAAAABAGq9RAiiDsQEAAACAFFPtdnSyIwA4LYwNAAAAAKRwXwNAOYwNAAAAAKSYcl8DQDGMDQAAAACkcLIBoBzGBgAAAAAq574GgLIYGwAAAAConFMNAGUxNgAAAABQOWMDQFmMDQAAAABUzuXQAGUxNgAAAABQKfc1AJTH2AAAAABApbxCCaA8xgYAAAAAKjXpFUoAxTE2AAAAAFApJxsAymNsAAAAAKAyTjUAlMnYAAAAAEBlnGoAKJOxAQAAAIDKTBobAIpkbAAAAACgEp1OJ6aNDQBFMjYAAAAAUAmnGgDKZWwAAAAAoBLuawAol7EBAAAAgEpMtqezEwDoEmMDAAAAAF3X7nSi3elkZwDQJcYGAAAAALrOqQaAshkbAAAAAOg69zUAlM3YAAAAAEDXTRobAIr2PwAAAP//7N1BbsUgDEVR73/LAdxB9aVOG0xTxeesgPmVeWIDAAAAAEfNtSLtNQC8mtgAAAAAwFGuGgDeT2wAAAAA4KhhHBrg9cQGAAAAAI5y2QDwfmIDAAAAAMcMoQGgBbEBAAAAgGMuXygBtCA2AAAAAHCML5QAehAbAAAAADgiM2OKDQAtiA0AAAAAHOGqAaAPsQEAAACAI4xDA/QhNgAAAABwhHFogD7EBgAAAADKrcxYmU8/A4A/IjYAAAAAUM5eA0AvYgMAAAAA5YYvlABaERsAAAAAKOeyAaAXsQEAAACAUjNXpL0GgFbEBgAAAABKXdNVA0A3YgMAAAAApYYvlADaERsAAAAAKHUZhwZoR2wAAAAAoIzQANCT2AAAAABAGXsNAD2JDQAAAACUGS4bAFoSGwAAAAAosTJjZj79DAAeIDYAAAAAUMJeA0BfYgMAAAAAJew1APQlNgAAAABQwl4DQF9iAwAAAADbxlphrQGgL7EBAAAAgG32GgB6ExsAAAAA2GavAaA3sQEAAACALSszZooNAJ2JDQAAAABs8YUSAGIDAAAAAFvGctUA0J3YAAAAAMCWa7psAOhObAAAAADgtrFW5NOPAOBxYgMAAAAAt9lrACBCbAAAAABgw2WvAYAQGwAAAAC4KTNjig0AhNgAAAAAwE2uGgD4EBsAAAAAuMVeAwAfYgMAAAAAt1zTZQMA38QGAAAAAH5trBUZ+fQzAPgnxAYAAAAAfm3YawDghy8AAAD//+zd+2/ddR3H8feGtNCNDFjgB6+YGIPgD5phohiiMWhMTIwXfiThJ38gxgUIE5kwSaPOoWEGsnhD1CUkGMkYROwGTaldx7Z23Q02u66FDazr2q6XbdDbeo4/NdGtl1NY+/l+z3k8/oE+fzunffXz+RgbAAAAAJg37zUA8L+MDQAAAADMSzGKTjYA8H+MDQAAAADMi4ehAbiQsQEAAACAeXGFEgAXMjYAAAAAMC8TrlAC4ALGBgAAAABKNlkoRLFYTJ0BQMYYGwAAAAAomVMNAEzH2AAAAABAybzXAMB0jA0AAAAAlKQYEeedbABgGsYGAAAAAEoyMelUAwDTMzYAAAAAUBJXKAEwE2MDAAAAACVxsgGAmRgbAAAAAJjT+UIhiqkjAMgsYwMAAAAAcxp3qgGAWRgbAAAAAJiT9xoAmI2xAQAAAIBZTRYLUSi6RAmAmRkbAAAAAJjVxGQhdQIAGWdsAAAAAGBWrlACYC7GBgAAAABmVCwW43zByQYAZmdsAAAAAGBG44YGAEpgbAAAAABgRhOTrlACYG7GBgAAAABm5L0GAEphbAAAAABgWoYGAEplbAAAAABgWhOT3msAoDTGBgAAAACmNe5kAwAlMjYAAAAAcJHzhUIUi8XUGQDkhLEBAAAAgIt4rwGA+TA2AAAAAHAR7zUAMB8fSB0AzGnJgv+AJQv+IyrO6MhItDQ3xRsdR2PwdH8MDw1GwRf1irD0sqWx4pprY+V118cnb7o5Vn3+1ri8qip1Vtl6o+No7N+zK3p7emLgdF+MjYymTgIgsaWXLY0VV18TK6+7Pj5x46di1Re+GNVXXJE6K5d6/tMdLTua4mT32zF4+nS8e+5c6iQWUTEiJgtl8DvMkojlK1bE1deujA997IZYdduXYtlVV6WuKiuLdNWWP1xADhgbAC6hN491xJanN8erjQ2pU8iIqurquPXLX4nv3nlXfPAjH02dUxbGRkdi+/Nbo+65Z6O352TqHABy4LbbvxZ33HlXfPiGj6dOyYWX//5C1D33bJzo6kydApfc5sc3xs2rbomvfvuO+PQtn0udA1BWjA0Al8jG2nXR3FCfOoOMGR8bi8btddG4vS6+/q3vxPfuuT91Uq4dbG2Jx2ofjnNnz6ZOASBHdtS/FDvqX4rbv/HNuHvNj1LnZNbxrs5Y/+Ca6O89lToFFtThtr1xuG1v3PiZz8b319XGlTU1qZMAyoI3GyD7Fvw84iIdeSxb42Nj8ch9qw0NzGnb1i2xsXZd6ozcatm5I2rX3GNoAOA9q3/xhXj04QdTZ2RSV0d7PLT6bkMDFaX9wP54dM298e453y/fj0W6mtkfLiAHjA0A79P6tT+M1/btTZ1BTjQ31MemDT9LnZE7h9paY8OPH0idAUAZ2LPjn/HLdWtTZ2RK91sn4if3/iBG3nkndQosure7OuOxtQ/E+PhY6hSA3DM2QPZ5IDrD/vDrX8WhttbUGeRMQ92L8fwzT6fOyI3ut07EhodceQHApbO7qTH+9penUmdkwvDgYDxy32pDAxXteMfRePIXP0+dkVseiAamGBsg+1yjlFFHDh6IbVu3pM4gpzb/dlP0nepJnZELT6z/aYyOjKTOAKDMPPOnJ6On+9+pM5Lb/LtNMdDflzoDktv3anO0NTelzsgl1ygBU4wNkH1ONmTUU09sTJ1Azv150+OpEzJvZ0N9HPvX4dQZAJSpP1b497mujvZo3PaP1BmQGX/9/W9SJ+SSkw3AFGMDZJ+TDRl0vKsz3uw8ljqDnNvd1Bhjo/5jfzav+AMIAAto3+5dcWZoKHVGMo3b6lInQKYM9PZG+8EDqTNyx8kGYIqxAeA9aNu1M3UCZWJ/y57UCZk1Njoa+1t2p84AoMwdaK3cz+LdTa+kToDMeb21JXUCQG4ZGyD7XKOUQe2vHUqdQJk4csh/Ts2k62h76gQAKsCRg/tTJyQx0N8fA/39qTMgczpe97vefLlGCZhibIDsc41SBg0PDqZOoEz0nTyZOiGzhgZOp04AoAL0nupJnZDE8OBA6gTIpL4e38/nyzVKwBRjA2Sfkw0ZdPbMcOoEykRf76nUCZk1XMF3aAOwePpPVeZn8Zlhn7MwnbNDQzExPp46I1ecbACmGBsg+5xsyKAra2pSJ1AmqqqrUydk1rLly1MnAFABKvWzuGaZz1mYyeVVVakTcsXJBmDKfwEAAP//7N3tb5V3Hcfxr8xw1ltKDy1dW2gLdA6YLiBKS4UWGINucRkMw2aoTLeIMqOJRpEtWcwksslc8IHRGNyNN3+CN49wI0sge7A/Y4maWk3YpC3nHB+dPTLBbT3nd53rer3+gvcjWvLp73sZGwA+gp5yOXUCOVFe15c6IbPWltelTgCgAIr6s3it32fhf+rtK+a/CQArwdgA2eeMUgYNj4ymTiAnNoyOpU7IrA2jo6kTACiADWPF/Fm8rn99tHV0pM6AzBn0f70PzRkloM7YANnnjFIG7d47nTqBnNi9byZ1Qmb19JZjfOv21BkA5NzuvTOpE5L53J4vpE6AzNk5tTd1QstxRgmoMzZA9lnvM2j7fTs8PedjG9o4EiObNqfOyLSpAwdTJwCQY/13Dcb41m2pM5KZOnB/6gTIHGPDh+dlA1BnbIDss95n1KMnT6VOoMU99tWnUidk3uGHj0b3mp7UGQDk1IlTX0udkNSuyakYdtIRPnDo2PHo7O5OndFyvGwA6owNkH2+2ZBRs0ePx7r+9akzaFFj43fHnv3+av92VpdKcezkV1JnAJBDwyOjMXPkwdQZyZ36xrdSJ0AmlNra4sETj6fOaEleNgB1xgbIPt9syLBnLlyM1aVS6gxaTPeanjh7/oXUGS3ji196LHZNTqXOACBHOru64txPfpo6IxN2TkzGI4+fTJ0ByT393PPR5UXtR+JlA1BnbIDss95n2MjmLfGDH18wOPB/a+/ojGdf/Fn0rR9IndJSvvej87H9vh2pMwDIgbb29jh34WIMDA2nTsmMudNnYvqBI6kzIJknv//D2LZjZ+qMluVlA1BnbIDss95n3I7PT8SLv/qNk0rc1obRsXj5ld/Glnu2pk5pOatLpXj+57+IA7MPpU4BoIUNDA7FS5dfj3vu/UzqlMz59jPPxcmvfzN1BjRVZ3d3nH3pUkwePJQ6paV52QDUGRsAVsDGsU1x6dXfx+zR46lTyKDVpVKceOLJuPTaH7xo+JiePvtsnLtwMdYPDqZOAaDFPDr3RLz8yu9iYHAodUpmHf3yXLzwy8ux6e5PpU6Bhttz6IE4f/m1GL/306lTAHLjk6kDgNvygegW0dbREU9957tx5JFj8de//CmuvXkl/vbuu6mzSGhsy3hMTO+PmcOzXr6soF2TU7Frciqu/PmPce3NK/HO9WupkwDIqJFNm2Nyen9MH56N/oG7Uue0hPGt2+Lir1+N61ffiOtX34i337oaizdvps6CFdHb1xef3TsdkwcPxcbNW1Ln5IYzSkCdsQFghQ2PjMbc6TMxd/pMvP/ejViYn49/LyxErVZNnUYTrFp1R/T09ka5r9+3PBrswOxDH5xVmv/H32Nhfj4Wb/4ncRUAqa1adUesWbs2yn39UbrzztQ5LWti30xM7JuJiIh//XM+Fubn4/33bqSNYsXdWFrK/22aT0R0da+JnnI52ju7UtcA5JqxAbKv4b/7NemvEAqpvaMz2js6Y2jjSOoUyLVyX3+U+/pTZwBALvX0lqOnt5w6gxW2XK3GjaXF1BnkgG82AHW+2QAAAABQMMuVSuoEAHLG2AAAAABQMEtVYwMAK8vYAAAAAFAgt6pV53QBWHHGBgAAAIACWXJCCYAGMDYAAAAAFMiyE0oANICxAQAAAKAgblWrUXVCCYAGMDYAAAAAFIRXDQA0irEBAAAAoCB8rwGARjE2AAAAABRApeaEEgCNY2wAAAAAKACvGgBoJGMDAAAAQAEsV6qpEwDIMWMDAAAAQM5Va7Wo1IwNADSOsQEAAAAg55xQAqDRjA0AAAAAObdUNTYA0FjGBgAAAIAcq9ZqUak6oQRAYxkbAAAAAHJs2QklAJrA2AAAAACQY04oAdAMxgYAAACAnKrWanHLCSUAmsDYAAAAAJBTy141ANAkxgYAAACAnFryvQYAmsTYAAAAAJBDNSeUAGgiYwMAAABADi161QBAExkbAAAAAHJoyfcaAGgiYwMAAABAzlRrtag4oQRAExkbAAAAAHLGh6EBaDZjAwAAAEDOLFZupU4AoGCMDQAAAAA5UqlVo1qrpc4AoGCMDQAAAAA54oQSACkYGwAAAAByxNgAQAr/BQAA///s3TFuAzEMRUHd/8ZercgUAdwYiNORXMycQP2DPsUGAAAAgIe4w4QSADXEBgAAAICH2OFXAwA1xAYAAACAh3iZUAKgiNgAAAAA8AB3xEoTSgAUERsAAAAAHsBhaAAqiQ0AAAAAD3C51wBAIbEBAAAAYLgdx4QSAKXEBgAAAIDhTCgBUE1sAAAAABhuiw0AFBMbAAAAAAbb5ywDSgBUExsAAAAABnMYGoAOxAYAAACAoXKZUAKgB7EBAAAAYCgTSgB0ITYAAAAADHX51QBAE2IDAAAAwECZubZ7DQA0ITYAAAAADHRFVD8BAN7EBgAAAICB9rmrnwAAb2IDAAAAwDC/E0p+NgDQh9gAAAAAMMzlVgMAzYgNAAAAAMNcR2wAoBexAQAAAGCQyFy3CSUAmhEbAAAAAAbxqwGAjsQGAAAAgEGuc1c/AQA+iA0AAAAAQ5yIdTKrnwEAH8QGAAAAgCFeYUIJgJ7EBgAAAIAh3GsAoCuxAQAAAGCAHWelCSUAmhIbAAAAAAbwqwGAzsQGAAAAgOYyU2wAoDWxAQAAAKC5y2FoAJoTGwAAAACa86sBgO7EBgAAAIDGInPdEdXPAIA/iQ0AAAAAjb3OXf0EAPhKbAAAAABozIQSABOIDQAAAABN3RErMqufAQBfiQ0AAAAATV0mlAAYQmwAAAAAaCiXCSUA5hAbAAAAABra5ywDSgBMITYAAAAANGRCCYBJxAYAAACAZjJz7YjqZwDAv4kNAAAAAM283GoAYBixAQAAAKAZE0oATCM2AAAAADRyItZJp6EBmOUHAAD//+zd3W/eZR3H8e+GboiSAQsc+IiJMSgeaIaJYojGoDExMT5wSMKRB8S4AHEiEyZp1Dk0zEAWnxB1CQlGMgYRu0Ezatuxrl3XdnPQdi1sYKV0XTdk0N61vW8PTE8l2dr7+/v9+nr9A30fNGl7f3pdl7EBAAAAoEBcoQRAGRkbAAAAAApkrm5sAKB8jA0AAAAABfGf+kI0XKEEQAkZGwAAAAAKYs4VSgCUlLEBAAAAoAAajYaxAYDSMjYAAAAAFIC3GgAoM2MDAAAAQAE41QBAmRkbAAAAAJLVG42Yr9ezMwDgvBkbAAAAAJLVFuazEwDgghgbAAAAAJK5QgmAsjM2AAAAACSar9ej3mhkZwDABTE2AAAAACRyhRIAVWBsAAAAAEjSCFcoAVANxgYAAACAJHNONQBQEcYGAAAAgCS1eacaAKgGYwMAAABAgvl6PRYa9ewMAFgSxgYAAACABN5qAKBKjA0AAAAATfa/h6G91wBAdRgbAAAAAJpsbmE+GtkRALCEjA0AAAAATeYKJQCqxtgAAAAA0EQLjXrM1z0MDUC1GBsAAAAAmqg271QDANVjbAAAAABoIg9DA1BFxgYAAACAJplbWPAwNACVZGwAAAAAaJKaUw0AVJSxAQAAAKAJ6o2Gh6EBqCxjAwAAAEATONUAQJUZGwAAAACaoDZvbACguowNAAAAAMvMw9AAVJ2xAQAAAGCZuUIJgKozNgAAAAAsIw9DA7ASvCM7AHhbq5b9C6xa9i+x4szOzERPV0e8ODIcZ05Pxetnz0R9wR8XK8Hqi1bHusuviPVXXhUf/fi1seEz18c716zJzqqsF0eGo//ggZicmIjp06eiNjObnQRAstUXrY51l10e66+8Kj5yzcdiw2c/F2svvjg7q5Qm/jUePZ0d8er4K3Hm9Ol469y57KTSqjcaUW+4RCnFqoj3rFsXl12xPt73oatjww2fj3dfeml2VaU0mvO97YMLKAFjA8ASeun4SOx6ZGc8174vO4WCWLN2bVz/hS/Gt26+Jd77gQ9m51RCbXYm9j6xO1offywmJ17NzgGgBG648ctx0823xPuv/nB2Sik889cno/Xxx+Lk2Gh2Ciy5nQ9sj2s3XBdf+sZN8YnrPp2dA1ApxgaAJbK9ZUt07WvLzqBg5mq1aN/bGu17W+MrX/9mfPu272Unldpgb0/c33JPnHvjjewUAEqks+3p6Gx7Om786tfi1k0/yM4prBNjo7H1rk0xNfladgosq2N9h+JY36G45pOfiu9saYl3XXJJdhJAJXizAYpv2c8jNunIY2XN1Wpx7x0bDQ28rT27d8X2li3ZGaXVs78zWjbdZmgA4Ly1PfVk3HfPXdkZhTQ2MhR3b7zV0MCKMjTQH/dtuj3eOuf3ywvRpKuZfXABJWBsALhAWzd/P44ePpSdQUl07WuLHdt+kp1ROkf6emPbD+/MzgCgAg52/j1+vmVzdkahjL98Mn50+3dj5s03s1Og6V4ZG437N98Zc3O17BSA0jM2QPF5ILrAfvfLX8SRvt7sDEpmX+tT8cSjj2RnlMb4yydj292uvABg6XR3tMdf/vRwdkYhvH7mTNx7x0ZDAyvaiZHheOhnP83OKC0PRAOLjA1QfK5RKqjnBwdiz+5d2RmU1M5f74hTr01kZ5TCg1t/HLMzM9kZAFTMo394KCbG/5mdkW7nb3bE9NSp7AxId/i5rujr6sjOKCXXKAGLjA1QfE42FNTDD27PTqDk/rjjgeyEwtu/ry2Ov3AsOwOAivr9Cv99bmxkKNr3/C07Awrjz7/9VXZCKTnZACwyNkDxOdlQQCfGRuOl0ePZGZRcd0d71Gb9x/7/86wPQABYRoe7D8S/z57NzkjTvqc1OwEKZXpyMoYGB7IzSsfJBmCRsQHgPPQd2J+dQEX09xzMTiis2uxs9Pd0Z2cAUHEDvSv3Z3F3x7PZCVA4/+jtyU4AKC1jAxSfa5QKaOjokewEKuLYQH92QmGNDr+QnQDACvD84Mr8WTw9NRXTU1PZGVA4w0cHsxNKxzVKwKL/AgAA///s3e1vlXcdx/FvokLJoO3pKUVuSmkZt93CGIa13JQywG0Mh0TNKkyzzW3Gocsy4zTGLTh1G2KyJZoQnYl/gTH+AWZOYwg+2COyRBI10WRIZqmRgr075/hkNTjb0lNsf9d1zuv1D/TNA7gO/Zzf9TM2QPZ5jVIGDQ36jxn/H39718WU07nynssqAZh/l+r0kmiXQsPULtfpvwm3wmuUgEnGBsg+630GXb36z9QJ1IhBv1Cf1rXh4dQJANSBen0WX7t6NXUCZNL14eEYHRlJnZErTjYAk4wNkH3W+wxqaiqkTqBGLGtsTJ2QWY3NzakTAKgD9fosbiz4PAvTWdzQkDohV5xsACYZGwDmoNDamjqBGtHSujx1Qma1+HsGwAKo12dxS9FzFqbStmp16gSA3DI2AMzB7Zu3pE6gRmzc2p06IbM6OtenTgCgDtTrs7ipUIhCsZg6AzKna/Pm1AkAuWVsAJiDnr7+1AnUiN59+1MnZNaS226LHT27UmcAUON27z+YOiGZev6zw3R27NmXOgEgt4wNkH3z/vLDBXq/Yk1pX9cZXRs3pc4g57bv7InmFt8onMn+Bx5MnQBADevetj1aV6xInZFM//2HUydApjQWCrF91+7UGbnjgmhgkrEBsm/en9oL9MGg5gw8/mTqBHLu4ceeSJ2Qeb379seadZ2pMwCoUfX+ea7z9g2xc09f6gzIjAcHTqROyCUXRAOTjA2Qfdb7jNrRsyu2brsrdQY5tefAodiwZWvqjFx49OmvpE4AoAbt3L3XZ7mIOPHEF1MnQCasWL0mDhw9ljojl5xsACYZGyD7rPcZ9vXvno62j65MnUHOdG3cFCef/2bqjNzYvrMnHnnq6dQZANSQjq718ewLp1JnZMKadZ3xtZdeTp0BSS1tbIrnXvl+6ozccrIBmGRsgOxzZ0OGLV22LL792g9j9dqO1CnkxIYt3fHCmddi0eLFqVNy5djxR+Izn38sdQYANaBr46Z48Qevx+KGJalTMqOnr98XIahbTYWW+OqrZ6LYVr/3t9wqJxuAScYGgFvUtnJVnD770/hYr4vEmNmhTxyNV8++EY1NzalTcmng8SfjuRdf8sshAOas/74H4sxPfhbNLcXUKZlz7+Ej8fKPfhzNhZbUKbBgNnTfEafOvhHtXetTpwDUhA+lDgBm1r6ybXdEHJzPn7Hn3oO+mX+LPrJoUew9+PHo6FofF9+5ENevXUudRIasXtsR3/je6bj/k59KnZJ7azu74sDhIzE0OBh/+dMfU+cAkBMr17TH8995JY58+uHUKZnW2rYi7jt6LMbHxuLiOxdS58C8aSwU4vjJZ+KzX/pyLG5oSJ2Te9eHh+NXv/zFfP+YC3+99N7P5/uHALfmw6kDgJvyGqUc6enrj56+/nj7/Lk499ab8eeLf4ihwcH4x9CV1GksoJbW1igub4tN3XdGz77+2HLnttRJNaW5pRjPfutUHP/CU3HurTfj7fPn4u+XL8fQlcEYHRlJnQdABhSKxSgub4uNW++I3n37XQRdhYYlS+LRk8/EseOfi9//7rdx/je/jsuX3o2hK4PxL1+oIaeWNjZFc7EY7V3rY8fevrirZ1fqpJriNUrAJGMDZN+8P7UX6INBXbn7nt64+57e1BlQ09pWroqjAyfi6MCJ1CkAUHOaCoU4dOShOHTkodQpmXZ9fDxGSxOpMyApF0QDk9zZAAAAAFClSkSMGRoA4D+MDQAAAABVGitN+Ko1ANzA2AAAAABQpZEJpxoA4EbGBgAAAIAqTJTLUXb3HQD8F2MDAAAAQBVG3NUAAP/D2AAAAAAwS+VKJcZLpdQZAJA5xgYAAACAWRp1qgEApmRsAAAAAJiFSkSMuhgaAKZkbAAAAACYhbHSRLgWGgCmZmwAAAAAmAWnGgBgesYGAAAAgJuYKJejVHGuAQCmY2wAAAAAuIkRpxoAYEbGBgAAAIAZlCuVGC+XUmcAQKYZGwAAAABmMFpyqgEAbsbYAAAAADCNSrgYGgBmw9gAAAAAMI2x0kS4FhoAbs7YAAAAADANF0MDwOwYGwAAAACmMF4uR7niXAMAzIaxAQAAAGAK7moAgNkzNgAAAAB8QLlSifFyKXUGAOSGsQEAAADgA9zVAADVMTYAAAAA3KASEWMlYwMAVMPYAAAAAHCDsYmJcC00AFTH2AAAAABwgxGnGgCgasYGAAAAgPeNl0tRrjjXAADVMjYAAAAAvM/F0AAwN8YGAAAAgIgolcsxUS6nzgCAXPo3AAAA///s3cERgzAMRUH1X3FMkJUiAniQdyvQ/c23xQYAAACA8FcDAPxDbAAAAAC2V1VxZK4+AwBeS2wAAAAAtjeEBgD4i9gAAAAAbG94QgkA/iI2AAAAAFs7MmNWrT4DAF5NbAAAAAC25mNoAPif2AAAAABs65wzcs7VZwDA64kNAAAAwLasGgDgGmIDAAAAsKVZFd/M1WcAQAtiAwAAALClz2nVAABXERsAAACA7VRVHJ5QAoDLiA0AAADAdkZm1OojAKARsQEAAADYjo+hAeBaYgMAAACwlZFnVNk1AMCVxAYAAABgK8PH0ABwObEBAAAA2MZ3ZqRVAwBcTmwAAAAAtvGxagCAW4gNAAAAwBZyzjjnXH0GALQkNgAAAABb+KRVAwDcRWwAAAAA2ptVcWSuPgMA2hIbAAAAgPb81QAA9xIbAAAAgNaqKoYnlADgVmIDAAAA0Jq/GgDgfmIDAAAA0FZFxPBXAwDcTmwAAAAA2jryjKpafQYAtCc2AAAAAG35GBoAniE2AAAAAC0dmTGtGgDgEWIDAAAA0JJVAwA8R2wAAAAA2vnOjKy5+gwA2IbYAAAAALRj1QAAzxIbAAAAgFbOOeOcVg0A8CSxAQAAAGjFqgEAnic2AAAAAG1kzfjOXH0GAGxHbAAAAADasGoAgDXEBgAAAKCFWRVHWjUAwApiAwAAANCCVQMArCM2AAAAAK9XVTFSbACAVcQGAAAA4PU+QgMALCU2AAAAAK9WETE8oQQAS4kNAAAAwKuN84xafQQAbE5sAAAAAF7NE0oAsJ7YAAAAALzWyDOq7BoAYLUfAAAA///s3dmLlWUcB/BfUF2UbU5aQVcFBVkQUnhREQTRTWFEFy1ERCth0C5mC0GFiGUrlhGVGbbYRraYJWnWaFkRZWqOuDbN6JzZnGbpzDl2EQNBgRg6z/OcPp9/4P3eHN7D+32/z6tsAAAAAIo16FsNAJAFZQMAAABQpKHacNStGgAgC8oGAAAAoEhWDQCQD2UDAAAAUJw/ajWrBgDIiLIBAAAAKM7AcDV1BADgb5QNAAAAQFGsGgAgP8oGAAAAoChWDQCQH2UDAAAAUAyrBgDIk7IBAAAAKIZVAwDkSdkAAAAAFMGqAQDypWwAAAAAijBo1QAA2VI2AAAAANmr1mpRs2oAgGwpGwAAAIDs+VYDAORN2QAAAABkrVq3agCA3CkbAAAAgKwNDA+njgAA7IGyAQAAAMhWtV6LWr2eOgYAsAfKBgAAACBbVg0AUAZlAwAAAJAlqwYAKIeyAQAAAMiSVQMAlEPZAAAAAGSnWq9bNQBAQZQNAAAAQHYGh6upIwAAe0HZAAAAAGSlWq/HsFUDABRF2QAAAABkxaoBAMqjbAAAAACyYdUAAGVSNgAAAADZsGoAgDIpGwAAAIAsDFs1AECxlA0AAABAFgasGgCgWMoGAAAAIDmrBgAom7IBAAAASM6qAQDKpmwAAAAAkrJqAIDyKRsAAACApKwaAKB8ygYAAAAgGasGAGgMygYAAAAgmX6rBgBoCMoGAAAAIIlqvRY1qwYAaAjKBgAAACCJgepw6ggAwD5yYOoAwB4dsN8vcMB+v8T/zg/ffB0rv/g8Nqz9OboqlejurKSOxCg6qqkpmsaNj5MnnBqTzjk3Jpw+MXWkhtTR3h7Ny5bGtyubY2d7W3RVOmJocDB1LAAycOTYpmgaNy5OOmVCTDrn3Dht4hmpIxWnt6c7Vi1fFqu/WhGt27dFV2clBn7/PXUs+E/GHH5EHDl2bBx/wokx8ayz47QzJ8VBBx+cOlbD2L1792hcxoMLKICyAfK33+/ao/THoOENDQ7E4vfejfffXBCdHR2p45BQV6USXZVKtKxbGx+89WaMP/a4uPjyK+OCyZekjtYQfvl5TSyc92J8u/Kr1FEAyFR3518ve2xcvy4+euetOHr8MTH5sivi/Asne8C4B63btsbCV16KZZ98nDoK7DN9vT3R19sT2zdvipVLP41DxoyJ8y66OM6/5NI49LDDUscr3ii9wOjBBRTAMUoA+0BHe3vces1V8fKcpxQN/MOOtt9i7uxZced1V0ffrl2p4xRtwQtzY9rN1ysaANgrHTva44UnZ8ddN1wT3V2dqeNka/mSxXHLVZcpGmh4/X19sWjB/Jh+7dXRumVz6jgADUPZAPlzjFLm2ltb454pN8aO31pTRyFzm1o2xPQpN0Zvd3fqKEV68eknYuErL6WOAUDBtm3eFNOn3OTlkH+x+L2344mHH0wdA0ZVX29PzLjj1ti6sSV1lKI5RgkYoWyA/DlGKWO9Pd3xwG1TorJzR+ooFGL7ls3x0NTb44+hodRRivL2q/Ni0cLXU8cAoAG0/bo9Hpp6ewwNDqSOko1VXyyLubNnpY4BSfT37YrHpt0dHe1tqaMUyzFKwAhlA+RPe5+xGdOnxk5/StlLG9evi2dmPpI6RjFWN38Zrz7/bOoYADSQLRtb4rEH708dIwubWjbEzPumpY4BSfX19sTj9/od/FeWDcAIZQPkT3ufqaUfLor1P/2YOgaFWvHZkljzw/epYxTh2VkzUkcAoAGtbv4yvlvVnDpGcs89OjN1BMhC27at8dEbr6WOUSTLBmCEsgHyp73P1Pzn56SOQOHmzXk6dYTsvbtgfnRVKqljANCgXv6f34u/XrE8NqxdkzoGZOP9+fNioL8/dYziWDYAI/4EAAD//+zd7W+Vdx3H8W+iQslGyylY5J6We9AwhmHlrpQN3MZwSNQMYZptbjMOXZYZpzFuwanbEJOZaEJ0Jv4FxvgHKBJ1TDZIzAjbCHPEDQlsBFigd+fOJ1az0ZZSPPyu6/T1etzmvPvg5Drp51zXz9gA2We9z6BXDx+KC+fOpc4g546//przPq7gwP59qRMAqGPvnHgrTr3zduqMZF780x9TJ0Cm9PX1xtHDr6TOyB13NgD9jA0AI3DopRdTJ1AnDr/k8Q2Def/C+Tj++mupMwCoc6P5WnzogM+08GGvvnwwdQJAbhkbAEbgxPFjqROoE2++4Z/pg3nrmPcZALV3fJRei8+c+ld0XbqYOgMy58SxN1InAOSWsQFgBN4/fz51AnXi3dOnUydk1oXzHlUGQO29d2Z0XotdZ2FgZ06eTJ0AkFvGBsg+hyBl0CXfAuP/5NzZ91InZNali95nANTeubNnUyck0XXxUuoEyKS+vt7o7elJnZErDogG+hkbIPscgpRBTU2F1AnUifFNTakTMqup4H0GQO2Nb2xMnZBEo+ssDGpsQ0PqhFxxQDTQz9gAMAKFSZNSJ1Anmid9PHVCZjV7nwFwHYzWa3HzRNdZGEjL1GmpEwByy9gAMAJzFy5KnUCdmL94SeqEzJrVOid1AgCjwGi9FjcVClGYODF1BmRO28KFqRMAcsvYADAC7R2dqROoEyvXrU+dkFnjbrghlrevSp0BQJ1bvX5D6oRkRvPfDoNZvmZd6gSA3DI2QPbV/OGH1+n5inVlxuzWaJu/IHUGObdsRXtMaPaNwqGsv/Ou1AkA1LElS5fFpMmTU2ck03nHptQJkCmNhUIsW7U6dUbuOCAa6GdsgOyr+VX7On0wqDvbHngodQI5d8/9D6ZOyLyV69bH9NmtqTMAqFOj/fNc69x5sWJNR+oMyIy7tu1InZBLDogG+hkbIPus9xm1vH1VLF56U+oMcmrNbRtj3qLFqTNy4b5Hvpk6AYA6tGL1Wp/lImLHg19LnQCZMHna9Lhty9bUGbnkzgagn7EBss96n2Hf+dHuaPnElNQZ5Ezb/AWx84nvpc7IjWUr2uPehx9JnQFAHZnVNicee3JX6oxMmD67Nb799DOpMyCpGxub4vFnf5I6I7fc2QD0MzZA9jmzIcNuHD8+fvD8z2PazFmpU8iJeYuWxJN7no8xY8emTsmVrdvvjS9+5f7UGQDUgbb5C+Kpn/4sxjaMS52SGe0dnb4IwajVVGiObz23Jya2jN7zW66VOxuAfsYGgGvUMmVq7N776/j0SgeJMbSNn90Sz+19IRqbJqROyaVtDzwUjz/1tH8OATBinbffGXt+9ZuY0DwxdUrm3Lppczzzi1/GhEJz6hS4buYt+WTs2vtCzGibkzoFoC58JHUAMLQZU1pWR8SGWr7Gmls3+Gb+NfrYmDGxdsNnYlbbnDh29Eh0XbqUOokMmTZzVnz3x7vjjs99PnVK7s1sbYvbNm2Oc2fPxj//8WbqHAByYsr0GfHED5+NzV+4J3VKpk1qmRy3b9kaxb6+OHb0SOocqJnGQiG273w0vvT1b8TYhobUObnXdfFi/OH3v6v1yxx5+9S7v631iwDX5qOpA4Ar8hilHGnv6Iz2js44/LcDcWD/vjh98mTqJBJqnTc/2td1xqJPLU2dUlcmNE+Mx76/K7Z/9eE4sH9f/P2Vl6NULKbOAiCDZs2ZGyvXrXcQ9FVoGDcu7tv5aGzd/uU4+Nc/x8G/7I/e7p4r/l41IsqVSu0D4Ro0t7TE8rUdcVP7qtQpdcVjlIB+xgbIvppfta/TB4NR5eZbVsbNt6xMnQF1rWXK1NiybUds2bYjdQoA1J2mQiE2br47Nm6+e1g/31UsRm+5VOMqIIscEA30c2YDAAAAMGKVatXQAAAYGwAAAICR6y55nCEAYGwAAAAARqhcqURfuZw6AwDIAGMDAAAAMCJd7moAAP7D2AAAAABctWKlHKVKJXUGAJARxgYAAADgqnUX3dUAAPyPsQEAAAC4Kn3lcpSr1dQZAECGGBsAAACAYauGsxoAgMsZGwAAAIBh6y2VouquBgDgQ4wNAAAAwLBUq9XocVcDADAAYwMAAAAwLN3lUrinAQAYiLEBAAAAuKJKtRq9pVLqDAAgo4wNAAAAwBV1FT0+CQAYnLEBAAAAGFKxUolipZw6AwDIMGMDAAAAMKSuYl/qBAAg44wNAAAAwKB6y6WoVB0LDQAMzdgAAAAADKgaEd0OhQYAhsHYAAAAAAyop1SMqrsaAIBhMDYAAAAAl6lUq9HjrgYAYJiMDQAAAMBluorF1AkAQI4YGwAAAIAPKFUqUayUU2cAADlibAAAAAA+oKvYlzoBAMgZYwMAAADwX73lUpQdCg0AXCVjAwAAABAREdWI6HYoNAAwAv8GAAD//+zdS3LkIBBF0dz/fq2Si0963BE9slVCwDkryPkNeGIDAAAAEBERZy2RXjUAAL8gNgAAAADRM+P0qgEA+CWxAQAAAIijlNEnAAATExsAAABgc7X3KL2NPgMAmJjYAAAAAJs7ynv0CQDA5MQGAAAA2Nh3q9GMQgMAfyQ2AAAAwKYyIl5GoQGAC4gNAAAAsKmzlkivGgCAC4gNAAAAsKGeGadXDQDARcQGAAAA2NBRyugTAICFiA0AAACwmdJblN5GnwEALERsAAAAgM141QAAXE1sAAAAgI2ctUY3Cg0AXExsAAAAgE30zHhVrxoAgOuJDQAAALAJ3ycBAJ8iNgAAAMAGjEIDAJ8kNgAAAMAGvGoAAD5JbAAAAIDFGYUGAD5NbAAAAICFGYUGAO4gNgAAAMDCfJ8EANxBbAAAAIBFGYUGAO4iNgAAAMCivGoAAO4iNgAAAMCCjEIDAHcSGwAAAGAxRqEBgLuJDQAAALAY3ycBAHcTGwAAAGAhRqEBgBHEBgAAAFiIVw0AwAhiAwAAACziVYtRaABgCLEBAAAAFtAz46x19BkAwKbEBgAAAFjAV3mPPgEA2JjYAAAAAJMrvUXtffQZAMDGxAYAAACYnFFoAGA0sQEAAAAmZhQaAHgCsQEAAAAmZRQaAHgKsQEAAAAmZRQaAHgKsQEAAAAm9N2MQgMAzyE2AAAAwGQyM15GoQGABxEbAAAAYDJHLZFhFBoAeA6xAQAAACZSeo93a6PPAAD4h9gAAAAAk8iIOIxCAwAPJDYAAADAJM5aoqfvkwCA5xEbAAAAYAIte5y1jj4DAOC/fgAAAP//7N1rcFPngcbxxyD5AvIlBmxzv5lAQ7FJKISEJE0h0Fw7m2zpdpNJN2nT3Zlm2+6l0860/dAv3Znu7HabdkovgYaS0DQkoZtwDQZDvIRrMRgHAgZCbMeyJdvYsnyTzpFOPxhImFkKBKT3SPr/ZjSyD57x42/4PD7PS9kAAAAAAEAK6LMs0xEAAAAui7IBAAAAAACXG7RtxeJx0zEAAAAui7IBAAAAAAAXizuOBm2eagAAAO5G2QAAAAAAgIv1W1FxJDQAAHA7ygYAAAAAAFwqGovJYj4JAACkAMoGAAAAAABcyJGjfuaTAABAiqBsAAAAAADAhQYsW47DgBIAAEgNlA0AAAAAALiMHY8rErNNxwAAALhqHtMBAFxRVsK/QVbCvwUAAHCpyOCALMuWbUVlW7Zs25JtWbLsj645jiOP1yuPxyNvdrY8Hs/5z73yeD3yerOVm5dn+kcB0kqfFTUdAQCuSpKewOLGBZACKBsAAACANNERCKg92KZQV5fCPT3q7QkpHAopHO5R7/n3cCikcE9Ioa6uhGTILyhUfmGhCgqL5MvPl6+wcOhaQYF8BQXKLyhUYVGRRpWUqmzc+IRkAFLdoG0rznwSAABIMZQNgPsl/LcMdmABAEgN7YE2Bdta1d7Wpva2VgUvvtoUbPWbjidJCvcMlRn+5qar+vrRJaUaU1amkrKxF19jzr+XjhuX4LSA+8QdRwMcCg0ghSRpLYEbF0AKoGwAAAAAXKazPajG98+o8cwZNZ09c/7j06ZjJURHMKCOYEDvHa37f/99/KTJmjy9XJOnTdekadM1Zdp0lYylhED6Yj4JAACkKsoGwP04swEAgDTWcPyYzp5uUNP7Z9R09n2dPdWggf5+07Fco6WpUS1Njdqzc8fFazm5uZpSPkOTpkzVpGnTNbX8Zn2qotJgSuDGiMRs2fG46RgAcE04swHABZQNgPsxowQAQJro7+vVe/VHdaL+qE68e1SnT7ynaCRiOlbKiQwO6uS79Tr5bv0l12++ZbZmzanQrE9X6JbKucovKDSUELh2juNowLJNxwCAa8aMEoALKBsAAACABGnzt1wsFk7UH1XzB2dNR0prDcePqeH4Mb35ysuSpLETJmrWpyv0qTkVmjWnQuMnTTacELi8PtuSw700AACQwigbAAAAgBskMjio+to/q3bfXh3av0cdgYDpSBmt9cNmtX7YrJ1bN0mSiopH6bbbF2reHYtUOW++8kaONJwQGBKNxWTFYqZjAAAAXBfKBgAAAOA6+JubVLt/r2r37VXdnw+YjoO/ovtcp6q3bFL1lqHyYXblrbpt4R2ad8ciTZwy1XA6ZCrHcdRvW6ZjAAAAXDfKBsD9OCAaAACXqTt4QAf37Nbh/XvV5m8xHQef0LG6wzpWd1gv/maFRpeU6tbbF2rewjs1f9HdpqMhg/RZFmeoAUhpHBAN4ALKBsD9OCAaAAAXOFZ3WLt3VGnvrp0K94RMx8EN1hEMqGrDG6ra8IZGjPRp4T2f1V1LlqryMwtMR0Mai8ZisuLMJwFIbRwQDeACygYAAADgMs40nNDuHVV6p3qHOtuDpuMgSfr7ei/OLRXdVKw7P7dEd9+3TDffMtt0NKQRx3HUb0VNxwAAALhhKBsAAACAj/E3N6lm+za9U71d/uYm03FgWHfXOW1e/6o2r39VJWVjddeSpbr7vmWaNHWa6WhIcX2WxZ/pAgCAtELZAAAAgIw30N+v/9u+TdVbNurUe8dNx4FLBdtatX7tGq1fu0ZTy2doyUOP6J6l92ukz2c6GlIM80kAACAdUTYAAAAgYx07UqvtmzZoX80uRSMR03GQQs6ePqWVz/1UK5/7qRYtvk9LHnyY8x1wVeLMJwEAgDRF2QAAAICMcq6j/fwe/0YF/H7TcZAG3qnerneqt2t0aakWP/CwFj/wkMaUlpmOBZfqs6LMJwEAgLRE2QC4X5bpAAAApIN9Nbu0bcP/qu7gAdNRkKY6AgGtW71K61av0pzb5mnZI3+jOz+3xHQsuEgkFpMdj5uOAQA3lOMkpULl3giQAigbAPfjD58AAPiEopGIdm7dpI2vreOwZyRVfe0h1dce0kvP/0oPf/HvtOTBR5STm2s6FgyKO44GmE8CkIayspLSA3BvBEgBlA0AAABIOz3d3dr0+jq99cafFO4JmY6DDBbw+7Xq5/+jV15YqWVfeFQP/e1yFRWPMh0LBjCfBAAA0h1lAwAAANKGv7lJf3r5JVVv3mg6CnCJ3nBY69eu0fq1a3Tv/Q/q0S8/oQlTppqOhSSJxGzmkwAAQNqjbADcj11CAACuoOH4Mb225gUd2rfHdBTginZt3axdWzerYt58Lf/K07qlcq7pSEigofkky3QMAEgYzmwAcAFlA+B+PG0NAMBlNL5/Ri/9ZoVq9+81HQW4ZkcPHdTRQwdVOX+BnvzHb2jqjJtNR0ICMJ8EIN1xZgOACygbAAAAkHL8zU1a+/yvta9ml+kowHWrO3hAdQcPaMFd9+iJZ/6JeaU0wnwSAADIJJQNAAAASBnBVr/++MJKvb1tq+kowA13YHeNDuyu0T1LP6+//+rXVTJ2nOlIuA7MJwEAgExD2QAAAADX6+rs1CurV6pqwxumowAJV1P1lmqq3tLSh7+gLz31NRWPHmM6Ej4B5pMAAECmoWwA3C/h44dJ2lcEAOATef3F1frDqt+ajpFWhnk98uSPlDd/pIbn5SrL69Ewz3BleTwa5h16z/IM1zCPR1lej7KGD1M8YsmxbcUtW44dU9w+/27ZQ9ejlqxQr6xwn+KRqOkfMS1UbXxTVRvf1Jee+poee/xJebOzTUfCVWI+CUAm4YBoABdQNgBI1n8MAAC4JvtqdumFXz6njkDAdJSU4c0fqeziwosvb1G+vPk+efJHnC8Xhj4enpuT8CzRzm5Z4T7Z4b6h954+Wb19irR3KdoVUvRcSFZ3OOE50sG61au0Y9MGPfMv/64Fi+42HQdXwHwSAADIVJQNAAAAcJWA36/nf/ZfOnxgn+korjRiYpnyxpcqb+yYS4qFnDHFpqNdIntUkbJHFV3x66Kd3YqcGyofol0hDbZ2aKAloAF/UPEoN2wv6GwP6ic/+J7mzr9dX//X76hs3HjTkXAZzCcBAIBMRdkAuB+/qwAAMkJkcFCvvbha69euMR3FFXLLRg+VCuNLNGJ8qfLGlyq3bLTpWDfcXyslIu1dGmgJqL8lMFRAtAQ10JLZT7ocObhfzz6+XI898RV98cmnlJObazoSPiZiM58EIPMkaZqZeyNACqBsAAAAgHF7du7Q6hW/UGd70HQUI4blZMs3faLyyyfLN2OyfNMnali213Qs43LG3KScMTepaO6sS673nmpU+HSjwg2N6j3TpFj/oKGE5qxfu0Zvb9uqp579lu68d7HpOJAUcxz12zyNAwAAMhdlAwAAAIxp87folz/5sY7XHTEdJam8hT75yicrv3ySfDMma+QUJnGuhW/GUCkz9oGhzwc+DHxUPpxuVPRcyGzAJOlsD+q/f/RDbamcq2e/9wOmlQzri3IwOgAAyGyUDQAAADDi5VW/1WsvrjYdI2l80yaqqHKmCitnasSEMtNx0krehFLlTShVyb0LJEmDgQ51151Ud90JhU9+YDZcEhyvO6JnH1+u5f/wVX356WdMx8lIA7almMN8EgAAyGyUDQAAAEiq+tpDWvGf/6FgW6vpKAk1PDdHBbPLVVQxU0WVM+XxjTAdKWPklo5W2bLRKlu2SLGBQYXqG9R15KR63j0lu3/AdLyEefX3v9Pbb23RN777fc25bZ7pOBnDjsc1aNumYwAAABhH2QC4X1JOWgIAINHOdXTo9yt+rt3V201HSRiPb4RG3V6hwoqZKpxdbjoOJA3Py1XxggoVL6iQJIVPnlV33Ul17j8qKxQ2nO7GC7a16kf/9k3dtfg+Pf3P31ZR8SjTkdKaI6nPYj4JQGZznKSc3cy9ESAF/AUAAP//7N17nI51/sfxt9PMMGPGMAbjMBiHDCNKtatfkrYUUjoohX7IFCLSyCFWjjnk8FitrV+nR+0Wmg6EEmutQ2kdoowQOTYRxpi5x8zc1334/dPMrkXmcN/397pnXs9/Pe7rev0x7tPn/n6/DBsA+wvIqzYAAP706bL3teSt15WXW/Z+VV6leriir09UdIckRV7TxHQOrqJ6yyaq3rKJGva+S45Dx5SxbY/O7UiT81yW6TSf2rx+nXZs/VJ9Biar+4O9TeeUWRcspzyB+ZINAGyrQoWAzAF4sgWCAMMGAAAA+M0vJ3/W3EkTdOjAPtMpPlW5eriir0tUzQ5tFNmqqekclFBEQiNFJDRSo0e6yfHDUWVs36OM7WllZsVD7oULenPRAm1ev1ajJ09TTGwd00llitPtltPtNp0BAABgGwwbAPvz+08EAvQrBABAObNl/TotfnmWcnNyTKf4TEzHdqr1u3aKTEwwnQIfi2ger4jm8WrUp7uy9x/WmS93KWP7Hnnyg3+LnAN70/TswH4aOma8fteps+mcMsHj9eoC2ycBgCS2UQLwbwwbAPvz+6t2gN4YAADKCcvp1GsL5mr96pWmU3wiIqGRYm5ur1o3tVXF0BDTOQiAgq2W4h/roYzte3RmyzfK3n/YdFap5DgcmjNpvLr27KXkZ1NM5wS9HMvJfh4A8Cu2UQJQgGEDAAAAfOb4kcOaPXGc0o8fM51SKiE1o1Tr9+1U+5brFRoTbToHhlQMqaKYju0V07G9nGczdXrLTp398hvln8k0nVZia1Z8rL3f7tKYqTMV17CR6ZyglOdyyeXxmM4AAACwHYYNgP2xjRIAICis+vADvfmn+aYzSiWiebziunVSVFIL0ymwmZBaNVS/ZxfV79lFWXsP6eSazTqfdtB0VokcP3JYw/s9ouRRz6nrvfebzgkqbo9HuS7LdAYA2ArbKAEowLABAAAApeLIztafZkzR9q+2mE4psag2zRXX/VZFNI83nYIgEJmYoMjEBOUc+UnpK/6hzG/3m04qkdfmz9W3O7br6ecnqGp4uOkc2/NKcnBOAwAAwBUxbADsjzMbAAC2deTQQb00foxOnzppOqVEoq9LVFyPzqrWqJ7pFASh8Mb11XxEX+WeOKX0VRuUsW2P6aRi27pxg44c/EETZr3MtkpXkWtZ8vC+GQAuwZkNAApUNB0AAACA4LRl/TqNHtQ/KAcNtW5qq6Rpz6jZ0D4MGlBqVRvUUcKTD6vtjFGK6djedE6xnUz/Sc8NHqCtGzeYTrEty+NRvttlOgMAAMDWWNkAAACAYnt94Tx99nGq6Yxii7m5veLuuY1Dn+EXobE11WTg/ap/3+1K//QfOr1ph+mkIsvPy9WcSePV69F+6ps8xHSOrXi9XuWwfRIAAMBVMWwAAABAkWVlZmrm+BQd2JtmOqVYat9yveLuuU0hNaNMp6AcCKkZpcaP36e4nl2UvnKDTv9zm+mkIvv4vXd1cN9ejZ48TdUj+f8iSTmWk21HAQAAioBtlAAAAFAkB/am6dlB/YJq0FC7UwddOydFjR+/j0EDAi4kOlKN+/VUu5fHKPa2G03nFNl3O3do9KDHdeTQQdMpxuW7XbI8HtMZAAAAQYFhA2B/fj9pKUCHOQEAgtjnn3ykcUMH69zZs6ZTiqRwyND/XoVER5rOQTlXJaq64h+7R9fOSVFs5xtM5xTJ2dO/aPSg/tq4do3pFGM8Xq9yLct0BgDYXoBWf/HFBRAE2EYJsD+/v2qzLBwA8Fv+MvclrV25wnRGkUQltVCjR7oprE4t0ynAJUKiIxXft6fqdr1Fx95fpcxv95tOuqqF01/UT8eOqs+gZNMpAeewnP5/Iw4AZUCAfsDIUzIQBBg2AAAA4LLy8/I0e+I47dr2temUqwqrU0vxfXsqslVT0ynAVYXWjlbzEX2V9f2POvrXFco7Ze8VQ6nvvq0TR48oZcoM0ykBk+uy5Gb7JAAAgGJhGyUAAABcIuPMaY0blmz7QUOlamFq9PDdSpo+kkEDgk5kq6ZKmj5Sjfp0U+VqVU3n/KatGzdo7JDBcmRnm07xO5fHozyXy3QGAABA0GHYAAAAgIscPXRQKYMH6KjND4etfesNajvzWdW5o6PpFKBU6tz+eyXNHKXYzvY+RPqH79M05skBSj9+zHSK33gl5VhO0xkAAABBiWEDAAAACu3a9rXGDUtW5rkM0ylXFFY3RokTh6hxv56qHG7vX4MDRVU5vKri+96jxIlDFFY3xnTOFZ1KT9fzTz2h77/bbTrFL3KcTnk4zwwAAKBEGDYAAABAkrQqdZmmpoxSfl6e6ZQrqtf9ViVNe0bh8XGmUwC/CI+PU9K0Z1Sv+62mU67oQo5DLwwfos3r15lO8al8t0uWx206AwAAIGhxQDQAAAD01qKFWpm61HTGFVWNi1XTwQ+pWsO6plOAgGjQ6w+Kvi5Rh9/4ULnpv5jOuaz5UyYp+3ym7u71oOmUUnN7vcq1LNMZAAAAQY2VDQAAAOXca/Pn2nrQENejs9pMGc6gAeVOeHyc2kwZrjgbr3J4feE8LV/6numMUvFKcjjzxeZJAAAApcPKBsD+Kvj9BhX8fgsAgE29Om+2vljxiemMy6pav46aPvEgQwaUe/V7/UHRHVrrx/9LteUqh3cWL9IFh0N9BiWbTimRXItzGgCgNLyBeQ7liwsgCDBsAAAAKKdemTVd6z9bZTrjsurd3UkNHrjDdEa5Z513yMrMktfjUZUakQqJjjSdVG5Va1hPbaYM1/HUNTr5+WbTOZdIffdtWZal/k8NM51SLE63W/luzmkAAADwBYYNAAAA5dCCaZO1ad0XpjMuEVo7Wk0HP6SIpg1Np5Rb53buVca275T57QF58p2X/HuNa69R9PWtVfOGNqpYhY8Tgdbwwa6KvvYa/fhGqvLPZJrOucjyJX+T5XRq0IhRplOKxOP16oJ16d84AAAASoZPBwAAAOXMnEnjtXXjBtMZl4jtfKMa9r5LFUOqmE4pl37Z8C/9/NkmOc/+9hfYmbv3KXP3Ph3/4HPVvbOj6t3dKUCFKBDRPF6tJz+tY0tW68zmnaZzLrL6ow9kOfP11HNjTadclcPp5JwGAAAAH2LYAAAAUI7MHJei7V9tMZ1xkSpR1dV00AOKTEwwnVJuHX7zI5358ptiPcaVnaMTH65V9r7DajbsUYZEAVYpLFRN/reXoq9L1JG3PpaVnWM6qdDalStkuVwaPvYF0ylXdMGy5PZ6TGcAAACUKRVNBwAwL0CHOQEADHtpwvO2GzREt2+lpKkjGDQYdHDxkmIPGv7T+bSDOrDwHR8WoThqtG2pNlNHqEbblqZTLrLh89X685yZpjMuy/K4le92mc4AAAAocxg2APbHJAAAUGrzpkzSti2bTGdcpMH9d6jZsEdVqVqY6ZRy69jSz3RuR1qpr5O9/4gOLl7igyKUROWIamo+oq/q33e76ZSL/H3Vp3pz0QLTGRfxeL3KsSzTGQBQplSoUCEQt+G7ESAIMGwA7M/vr9oBemMAADDkldkztGX9OtMZhSpXq6qWoweoXjf2+jcpY9senVr7pc+ud25Hmk6t+8pn10PxxfXorBYj+6tSWKjplEKrUpdp6dtvmM4olGM5WdULAD4WoOdVvrgAggDDBsD+/P6qzQcuACi7Xl84T+tXrzSdUahqgzpq/eLTimzV1HRKueZxWjq2ZLXPr/vT8r/LdSHX59dF0UW1aa7WfxyqqnGxplMKLXv7Da1KXWY6Q7kuSy4P5zQAgK+xsgFAAYYNgP2xsgEAUCJL335Dn32cajqjUMzN7dVm8tMKiY40nVLundm8U9b5bJ9f152bz+oGGwitXVOJE55UzRvamE4p9OaiBfpixSfG7u/yeJTn4pwGAPAHVjYAKMCwAQAAoAxavvQ9LbPR1iXxj92jJgPuN52BX53b9b3frn1+936/XRtFVzE0RAlPPqyGve8ynVLo1XmztXHtmoDf1+P1ymE5A35fAACA8oZhAwAAQBnzxYpP9M7iRaYzJEmVqobpmpRBir3tRtMp+JXHaSlr7yG/XT/naLqs7By/XR/FU/fOm9XimX6qGBpiOkWStHD6i/pXgA+r55wGAACAwGDYANgfZzYAAIps59av9Oq82aYzJEkhNaOU+MKTqt6ysekU/AdnRqbf75GXftrv90DRRSW1UKtxg1UlMsJ0iiRp1oTntT9tT0DuledycU4DAPgZZzYAKMCwAQAAoIz48cB+zfnjeNMZkqTw+Di1njRUYXViTKfgv1jZF/x+j/yz/h9ooHiqNairxIlDbHNw9Iyxo/XLyZ/9eg+Xx6Ncl+XXewAAAODfGDYA9scB0QCAqzqVnq6pKaPkzM83naLo6xJ1zfNPqHJENdMpuAx3bp7f72Fl+f7waZReSHSkWo1PVlTrZqZT5MjO1pTnRsqR7Z+/Fa/XqxzOaQCAgOCAaAAFGDYA9sc2SgCA3+TIztaUlJHKOm/+1+R177xZzYb2UcWQKqZTcCWBeN3nvYVtVQoLVYtRjyumYzvTKfr5xHHNGDvaL9fOsSx5+DsEgIBgGyUABRg2APbHygYAwG96afwYnfzphOkMxT/WQw1732U6A0ARNBn4gOrfd7vpDO1P26M5k3y7/VueyyXL4/bpNQEAV8bKBgAFGDYA9sfKBgDAFc2eOE7ff7fbdIYa979XsbfdZDoDQDHE9eishg91NZ2hrRs36J2/vOKTa3FOAwAEHisbABRg2AAAABCk3n31z/p60z9NZ6jJwAdUu1MH0xkASqBu1/9R/KM9TGdo+ZK/ac3yj0p1Dc5pAAAAMIthAwAAQBDatO4LffL+X01nKCG5ty32fgdQcrFdbrLFwOG1+XO1d/euEj/eYTk5pwEAAMAghg0AAABB5scD+7Vg2mTTGUpI7q2aNyaZzgDgA7FdblLj/veaztCsiWN15tSpYj8u12XJ5fH4oQgAAABFxbABAAAgiDiysjRzfIrpDDUb2odBA1DG1O7UQU0GPmC0wZGVpRnjnivWYyy3W3kul5+KAAAAUFT/DwAA///s3Wl41eWdxvGbQBJCQkggYd/CqoAsAmIpguIotYoVwWor9sLWXtVrmKuOM+OMU1vttHUYKiBlVVECiCD7rkGQRaRQBIwhgUASEpaQQLaTPSfJybxwQnXYDiHnef7J+X7eAUnu+4VXzvH/O8/zY9gAOJ/PNy0ZWuYEAKgH03/7ivJycqx26PWPP1Xknf2sdgDgG1EjBytmygSrHTLSUjX7T7/36murazzsaQAAy2rMXGHHgwugAWDYADifz1+1Db0xAADcotj5c5QYf9Rqh14vPKXIIbdb7QDAt6JG3Wn9SqW9n8bp4/Vrr/s1NapRsdvt+zfLAIDrMvQBRn7dAw0AwwYAAIAG4PMd27V51QqrHXo8N0mRQ/tb7QDAjOjRw6wvjV40e4ZOJiVe899L3CyEBgAAcBKGDQAAAA6XkZZqfSF0zJQJanP3IKsdAJjVduwIdXlinNUO037z8lWvjiurqlQlC6EBAAAchWED4HzcSwgAfqyspETT/vNlqx26TR6vqFF3Wu2AesQHwXET2o8bpY6P3mct35Wfrz//7pXv/F2lh4XQAOAk7GwAUIthA+B8PBIAAD/2zltv6mLWBWv53SaPV9t777KWDx/gf9Vxkzo9Olbtx42yln8yKVGrYt+TJHlqalTiZiE0ADgJOxsA1GLYADifz1+1Db0xAADcpP27dmrvp3HW8js9OpZBAwBJUpcnxil6zHBr+R/FvqeTxxNV7K7gaRMAOAwnGwDUYtgAOJ/PX7UNvTEAANyE/NxczX9zmrX8NiMGWr06BYDzdH/mUbXs291a/qw/vKbSsjJr+QCAq+NkA4BaDBsAAAAcaNZ//U5lJSVWssN6dlGPXz5hJRuAs/WeOlkhHaKtZF/MzNSqdxZYyQYAAMCNMWwAAABwmM2rVigx/qiV7OCoCPX+9TNWsgE4X9OQYPV5aYqahbWwkr9n2xYlHj5kJRsAAADXx7ABAADAQTLSUhU7f46V7KYhwerzz1PUrEWIlXwADUNQZLj6vPgza/mLpk9TkavAWj4AAACujmEDAACAg7z52m+sZfeeOlnN27Wxlg+g4Qjt3km9XnjKSnaRq0CLptvbaQMAAICrY9gAOJ/PNy01CeBXAQA4wdKF85R59oyV7JifT7S6+BW+V3wqQxe27dWFbXt9npXzxVc6v2GnXIkp8lS4fZ4HOyKH9lenCf9gJTvx8CHti/vYSjYA4LtqaozsbjayhRrArWlmuwAA+2o8HtsVAMDvpZw4ro0rl1vJbvfASEWNHGwlG75Tkn5e+UePq+jEaRWnmh1ilWddUuaW3Zf/3KJrB7XsG6OIQX0VflsPo13gWx0fHqPSjEzlH0kynr1iwVz1HzZckW2ijGcDAADgSgwbAOcz8hEBAIBds/7wmpXcsN7d1PXJh6xko/6VnstS3t8SlHfomCou5dmuc1npmQsqPXNB2Z/uV2CrMLUeNkCt77pDYT272q6GetDjuUlKeuNtlZ3LNppbUV6uxTOm66U3phvNBQB8V5MmRg4d8GwEaAAYNgDO5/trlMy8MQAAXMOK995R1vlzxnODoyLUe+rTxnNRvzzuSl36/LAu7jqo8qwc23VuqNJVrOydB5S984CCWrdS9Jjhajd2hJqGNLddDXUUEBSo3lOfVuLv56m6rMJodtKRwzq4a6dG3He/0VwAwN9xjRKAWgwbAOfz+au2oTcGAICrOJd+WmuWxRrPDQgKVO9/mqxmoSHGs1E/qopLlb3jr7q4+2+qKi61XadO3HkunV+/Qxe27VX0PUPVftwoBUWG266FOgiOilSvF36i5JmxxrNXLJir/kOHKyyc/3YAwAZONgCoxVZYwPmY3gNAI2br+qQev5iokE7trGTj1lS6ipSxfLOOvvjfytyyu8EOGr7NU+FW9o6/Kv7f/qy0RWtUnu38Exq4Uni/nuoyaZzx3OLCQi2fN9t4LgDgG5xsAFCLkw2A8zG9B4BGat3ypUpPTTGe2+Gh0Yoc2t94Lm5NVUmZLmzdo4u7DspTWWW7js/kHohX7oF4Rd8zVJ1+dL8CI1raroSb0P4Ho1Scdtb4wuhDe3bre2Mf0MARdxvNBQBwsgHA33GyAXA+djYAQCN0LiNdy99daDw3/LYYdZ74gPFc1J3HXanMTbsU//Kbytr+RaMeNHzbpc8P66t/na6zq+NUVVpmuw5uQo/nJql5uyjjuUtmz1RZSYnxXADwd5xsAFCLYQMAdjYAgAVzp/3ReGbT5sGK+cUk47mou8KkVH39yiyd3/SZPBVu23WsyIrbp4T/mKW8L4/ZrgIvBQQFquevfmw815WXq9WL3jaeCwAAgG8wbACcj0kAADQyn+/YrlPHzV4xIkndpzzG8t0GwlPhVvqyTUqeGatKV5HtOtZVlZYpdeFHSn17lapKOOXQELTo2kGdHzd/imrvx1uVeSbDeC4A+DOuUQJQi2EDAACAYUsWzDGe2ebuQWo9bIDxXNy84pQzSvjtX3RpzyHbVRwn71CCEl6dLVfCSdtV4IUOPxytsJ5djecun8OyaAAAABsYNgAAABi0esn7ys/NNZoZ1LqVuj093mgm6ub8hp06Pu1dufNctqs4VlVRiU7OXqYzK7bargIv9PzVjxUQHGQ0MzkhXkf3f2E0EwAAAAwbAAAAjMnPzdXKxYuM5/Z8/kk1DQk2ngvvVZeVK3lmrDK37LZdpcHI3nlAx994h2umHO6bYecjxnNXLpxnPBMAAMDfMWwAAAAwZNnb5h9+dXhotMJ6dDGeC++VncvWsdfmqjAp1XaVBqc47ayOvT5PRae4o9/JokYOUcTg241m5l7M1va1q41mAgAA+DuGDYDz+XzTkqFlTgDg11KTT2jP9k+MZoZ0bKvOE80vaIX38o8k6djrc7k26RZUFZXoxP8sUs7+o7ar4Dpinp2gZi1DjWZu+mCpilwFRjMBwB/V1BjZ3cyDC6ABYNgAOJ/PX7UNvTEAAL/27lszjGfGTJlgPBPey/vymFLmr7Bdo9E4/f46Xdr7pe0auIZmoSGKeGSM0czyslJtXLbEaCYA+CNDH2DkwQXQADBsAAAA8LF9n+3QqeOJRjPb3jdCoT06G82E93IPxCt14Ue2azQ66Us36uJnB23XwFXkuYoUOKC3gmLM/l7avWWTMs9wzRYAAIAJDBsAAAB8bJnhRaWB4WHqMulBo5nwXs6+I0pbtMZ2jUYr48MtyorbZ7sGvqWotEyl5RWSpAgLV7ute3+R8UwAAAB/xLABAADAh3Zs3aSci9lGM7tPeUwBwUFGM+Gd3APxOh273naNRu/s6jiuVHKICnelXEUll//cNDJcLceNMtrhqwP7dSY1xWgmAACAP2LYAAAA4EOrlyw2mhd5Zz9FDOxrNBPeKTyRxokGg9KXblT+kSTbNfxaVXW1cgsKr/j7sNFD1axdG6Nd1se+bzQPAADAHzFsAAAA8JG4TeuNnmoICA5St8njjeXBe6VnLujUnOW2a/idlPkrVJx21nYNv+SpqVFOfqE8NVff5xkx0exVbwmHDirtBMMnAAAAX2LYADhfE9sFAAB1s2ap2VMNXSY9qMDwMKOZuLGKS/lKnrFYngq37Sp+6eRbS1Wedcl2Db+TV1Coqurqa/57YKe2Cr17kMFG0sZlS4zmAYC/qLnGYLme8WwEaAAYNgDOZ+RVGwBQv7atW628nBxjec3bR6vtfSOM5cE7ngq3Ts5eqqqSMttV/FZ1abmSZy5RdVm57Sp+I7+wWOXuyht+XcsHRyogJNhAo28kHv6S0w0A4ANNmhiZA/BsBGgAGDYAAADUs0q3W2s/WGo0M2bKY0bz4J2UhR+pPMvc0AlX585zKWXBSts1/EJRSZlKvBzsNAkOMr4sen2s2RNnAAAA/oRhAwAAQD37ZMNaFeTlGstrfddAhfXqaiwP3jm/YadcCSdt18D/KUxK1dk1cbZrNGplFW65iktu6ntaDB+gwA7RPmp0peNfHVHy1/HG8gAAAPwJwwbA+Xx+HtHQkUcA8AvuigqtW77MWF5AUKC6PvkDY3nwTv6RJGVu2W27Bv6frE/2Ke9Qgu0ajZK7skq5BYV1+t7w8ffWb5kb2MTuBgCoV+xsAFCLYQPgfD5/1Tb0xgAA/MKOrZtU6Cowltfx4TEKbNXSWB5urLKwWGnvrbVd4wqh3Tup609+qJhnJ/g8q+Mj9yrm548r/PYePs+6WacXr5c7v24PxXF1VdXVyilw1fn7g7p1VMigvvXY6PqSE+KVfjLZWB4ANHbsbABQi2EDAABAPVr/oblTDUGtW6nDw2OM5cE76bEb5Klw265xWeTQ/hrw+lT1e/V5tbv/e2oW1sLnmQHBgYoaOUR9/+VZDZz2kqJHD/N5prc87kqlx663XaPR8HhqdCnfJY/n1p4BhT90j5oENqunVje2beWHxrIAAAD8BcMGwPm4RgkAGoh9Oz9VXo65ZcDdfvqIsSx4J/9Ikgq+dsYnplvd0Ud3/OlF9XrhKYV0bmetR3BUpLr/7EcaPOPfFfX9IdZ6fJsrMUV5h47ZrtEo5BS4VF3tueWfE9AyVGH33lUPjbxzZP8+ZZ8/ZywPABozrlECUIthAwAAQD0xeaohrGcXRQy+zVgebqy6vEIZH2y2XUPB0ZHq+9IU9fn1M2rero3tOpcFtgpTzLOPq9+rz6tFlw626yhj+WZVl5bbrtGg5RYUyl1ZVW8/L/T7QxQQGlJvP+9G4tauNpYFAADgD/4XAAD//+zd+W+U953A8Y/Hc3p8HxiwAWMDBjs2gZBAILRps8mmaqq2SdNqe6l3u9vtrrS/raqq6p+y0laVVpueSZS2HA0QwNw3JIshAYcWj5nLc1/en0Zq0xBmPPP9PAfv18/heT9iIsZ+Ps/3+2XYAIAzGwCgCc6fOiHvzl5X6w2/+KxaC7WZe+UPUkymLL2H/j3b5JGf/Ug6J8bu/x9Z/LUfHhmSyZ/+i6z61F5L76OUysjt//29pffgZIlUWrJN3i6sxeeV9k/sbOo1P8qh11+VxbjeGTsAAABux7ABAACgCX79i5+rtTonxqRjfL1aDw+Wj8Rk/uAJy/oev0/GvvdFWf/NF8Xj91l2H/UYfuk5Gf+Pb4i3Te9N9g+KHDol+fmoZX2nymTzspjOGrl2+Mmt0trVbuTaH2bfb36p1gIAAHA7hg2A/bHsAABs7tbNG3Lh9Em1Hqsa7Of93+y3rB1aNSCTP/2h9D4xVdsfsNGOx50TYzL5s3+V8Pphy+5h7tfWfXZOlC8UJZpcNNpo/+Quo9f/awd/91spFPJqPQBwI6VzIHk2AjgAwwbA/jggGgBs7pX//i+1Vs+2LRIeGVLr4cGy79+Ve8fPW9LumtokEz/5Z1udzVAvf0+nTPz4+9K3a6sl/eiJC5J9/64lbacplkqyEE8a77TtmJTW3i7jHRGRTGpRDr3+mkoLANyKA6IBVDFsAMCZDQDQgIX5u3Jk/x/VekOf/we1Fmoz96t9lnR7H5+STf/+tfq3TbLp1/7od74gK55+wpL23K9Y3fAg5UpFFmJJtZ8bO559UqUjIvKHV/5HrQUAAOBmDBsAsLIBABqw77XfqbX6dk5LaPUKtR4eLDt3V+Lnrql3+3ZOy9j3v7i8P2zjr/11X/2MrFA8ILgqfu6qZOdY3XA/laUlWYglpFypqDVD0+PiVVqxE41E5NIpva3wAAAA3IphAwAAQAP2Kw4bhj77jFoLtbl74Lh6s3PLqIx+92X1rpZ1X3lBuh/dot614rN0invxpBRLZfVuh+Lg6fDvX1drAQAAuBXDBgBsowQAy3Rm5phEFyIqre7pcQms6FVpoTalTFYih06pNkOrBmTDD7/c2EUc8LU/9r2XJbxutWrz3vHzUs7mVJtOEE0uSr5QtKQdnNoorV0dKq3Thw/JYiKu0gIAAHArhg2A/TngkQAAPJw0VzUMPrdbrYXa3HvrrGqvNRSUjf/2NWkNBhq7kI23Uary+H2y8UdfFW84pNasFIqycPScWs8JEqmMZLJ5S+8h/OSjaq1j+605fwUAnE5pa2aejQAOwLABsD/j39qc2QAA9Usm4nL80J9UWqHhQencPKrSQu3uHpxR7Y394EsSGOhRbVrJ193R+CqOOs0rf6Z2ls7mZDGdsfo2pO3xSWnxeVVah994TaUDAG6jtFsCDy4AB2DYAAAAsAwH39Db33vls3vUWqhN8tpNyc9H1XqDz+ySrskNaj276Ng0Ique36vWy/1lQVKzt9R6dpXN5yWWTFl9GyIi0hIMSNtjkyqtP9+6JbNXr6i0AAAA3IhhA2B/xl8R4MwGAKjfvld/q9LxtoWkf882lRZqFz97Va3l7+uW4ZeeU+vZzfAXnpNAf7daL3ZG77O1o3yhKPfii1bfxt8IK/4beERxkAwAbsE2SgCqGDYA9sc2SgBgM1cvnpc7t3Xefh589kmVDuoTO3NZrTXy9c+Kx+9T69nRyDdeVGtpfrZ2UyyVZCGetPo2/k5rb5cElbaSmzl4QHJZ67ePAgAnYRslAFUMGwAAAOq0/7VX1VorPrFTrYXapN+7I4WYzgPZ7unxh3L7pA/q3LxeerZPqLTykZhk78yrtOykVC5LJJaw7YrX8B6dg6ILhbycPPSmSgsAAMBtGDYAAADUoVgoyLE3D6i0+ndvE297m0oLtdPcQmntP31arWV3a15+Xq0VU/yM7aBSqUgklpBKxZ6DBhER/+ga8a7oU2nNHNyv0gEAAHAbhg0AbPsGGwDY0enjRyWXzaq0Bj6+Q6WD+sTO6TyI7t/9qAQGepp/YYd+7QcGeqR/t87e/fFz11Q6drC0tCSRWELK5YrVt/JAbY8/otK5du6sJGMxlRYAAICbMGwA7M+hjwQAwJ3eOrBPpRNY0SvtY2tVWqhdOZeX7NxdldbKf3zKzIUdvOPxyk/tVemkb85JpVBUaVktEktKsVS2+jZq0rZ9i1rr1GG2UgKAWnFANIAqhg2A/Tn4kQAAuEsum5WTR4+otAY/uUulg/qkZm+rdDonxiQ0NGjm4g7+VT20akA6t+gcFJx5745Kx0oL8aQUis4ZqrQEAxLaOq7SOvHmQZUOALgBB0QDqGLYANifgx8JAIC7nDp6RIqFgkqrf892lQ7qk1YaNgzsfczcxR3+q3r/Uwb/bv5K6uacSscqsWRKcnmdf8+aSWsrpeuXL0l0/uE7KBwAloOVDQCqGDYAAADU6IjSFkp9u7ZKayig0kJ9UjfMDxtaQ0HpfXzKeMeperZPiCfgN97RWsVihWQ6I+lszurbWBb/+mFp7e5QaZ06ckilAwAA4BYMGwD7M/6KgNJbCADgaOlUSk6+dVilNbCXg6HtKjV7y3ijV+nNbafy+LzSu2PSeEfjs7ZCOpuTZCpj9W00JLxrq0rnxJ8OqHQAwOnYRglAFcMGwP6Mf2sr/WAAAI42o3RYaGBFr3SMj6i0UJ9CNCHlbN54p2eb3iG4TtW9dbPxRjG+KOWMM9/+v59cviCxZMrq22hY6LEJlc6777zNVkoAUAO2UQJQxbABsD9WNgCADbyltIXSwMdY1WBXufmo8YYn4JeuqU3GO07XNblBpZOPmP/MtRSKRVmIJ62+jabwtIUkODGm0po5uF+lAwBOxsoGAFUMGwD7Y2UDAFgsn8vJuZMzKq2+nTrbg6B+Gg+e28fWGG+4gSfgl/YNa413ci4ZNhRLJVmIuWPQUBWaHlfpnDl6RKUDAE7GygYAVQwbAAAAHuDsieMqnfYNa8Xf06nSQv3yCisbwuuGjDfcIrxutfFGPhIz3jCtVC5LJJaQisteLglsXi8tPq/xzs23r0k2nTbeAQAAcAOGDQAAAA9wZuaYSqdv57RKB8ujsbIhPGL+AbpbtKkMG5y9sqFULkskmpBKxV2DBhGRFp9XbSulC0oDZwAAAKdj2ADYH/sSAoDFTh87qtLp3fGISgfLk78XN94Irhow3nDLJgShleb/rvILzl3ZUK5UJBJLSLlSsfpWjAkqnW9yUWkbPQBwKs5sAFDFsAGwP5c8EgAAZ3pv9rrEo/eMd7omN4i3I2y8g+WrFIvGG4H+HuMNt/yq7u/rNt4op7PGGyZUKksSiSakXHbvoEFEJLhlVFoCfuOd8zOsbACAj8KZDQCqGDYAAAB8hDNKD5l6n2ALJbtbKpWNXt/XERaP32e04Sa+rnbjjVLGecOGpaUlicQSUiqb/f/VLkJTG403sum0vPvO28Y7AAAATsewAQAA4COcmdHaQmlSpYPlMz1saA2HjF7fjUyvbiinc0av32zVQUOxVLL6VtQEp8dVOhdPnlDpAAAAOBnDBsD+jK9HVFryCACOk02n5cr5c8Y73dPj4lHYCgSNWTL+pjjfx/XytbcZvb7TVjYsxJNSKD48gwYRkcDYGvEEA8Y7DBsA4P44swFAFcMGwP6Mf2sr/WAAAI5z/vRJlU6X0iGnaEzF8MqGFg+/Q9fLa3jYICJSzjpjdcNCPCn5gvlzRewosGmd8caNa1ckm04b7wCAE3FmA4Aqhg2A/fHkAQAsclbpvIYuhT3H0TjTwwCNA6hFxFW/qvu6O4w3WlpbjTcaFU0sSi5fsPo2LBPYaH7YICJy6ZTOABoAnIaVDQCqGDYA9ueiRwIA4CxXLpjfQik42CeB/h7jHTTO4ze71VVF6610F/2q7uvuNHr91lDQ9od2RxOLksnlrb4NSwXGR1Q6/3f5okoHAJyGlQ0Aqhg2APbnokcCAOAci8mE3Ll9y3in6xFWNThFq+FzNco5pTfTXfSresDwAdGBAXsPAuOLqYd+0CAi4gm3iXew33jn+uVLxhsA4ESsbABQxbABsD8XPRIAAOe4dvGCSodhg3N4AmbfcK9obYPjol/Vu7eOG77+ZqPXb0QynZFUxhnnSWgIjpvfSunW7HUpFBjuAMAHsbIBQBXDBsD+jH9rK/1gAACOclVp2NCxeVSlg8Z5DK9sEBHJR2LGG27i6+qQ9tE1xq7fu2PS2LUbkcrkJJnKWH0btqJ1bsPslcsqHQBwElY2AKhi2AAAAPAh3lHYLqNzYkw8Pq/xDprD9DZKIiKFWMJ4w21WPv+Uket2TW2S0NCgkWs3IpPLS3wxZfVt2I5/dI20eM0f5n39MsMGAACA+2HYAAAA8CGuXjxvvMEWSs7i6zF7GLGISH4+arzhNj3bJ6RtzcqmX3f4c880/ZqNyuTyEk0sWn0btuXfsNZ4Y/YqwwYAAID7YdgA2J/x9YhKSx4BwDHevnRRpdOxaUSlg+YIDvQab6Ru3DbecKP1336pqdtcrX7haWlbt7pp12uGbL7AoOEBAiPDxhtsowQAf48zGwBUMWwA7I8zGwBAmcaqBo/fJ+GRIeMdNE9goMd4I31zznjDjdqGV8qGH3ypKdfq3/2oDNlsVUM2X5B78aTVt2F7vnWrjDeymYzM3bxhvAMATsKZDQCqGDYA9sfKBgBQprGyoX3M3KG2MCOgsLIhc/svUs7kjHfcqGtqk2z5z++Kt71t2ddY/cLTsv5bLzXxrhqXKzBoqJV/rflhg4jIdVY3AMDfYGUDgKr/BwAA///s3VuMnHUZx/Hfzs7Mdmd3u4eedrdlt7RbKG1TChSqKCAESAkqRDCKJhDUmCDemKjxBvHGaIIhEUQjAkFD0JgK6IUXgAlBLJAihZae6Ha73Xa3uzOzcz6f1ot2Qk2Bnvb/f9935vu53r6/J2m778z7vM//odkAuB+TDQBg2X4bzYaRYeMZmF82mg2SlNwzaiWnEXWuHtL6hx9Uz6a15/Tngn3duuQH97luoqFQKikap9FwLoIWJsYO799nPAMAvITJBgB1fqcLAAAAcJNkPK5UMmE8p2sNzQav8QUDCvZ1qxRLGs1J7R1V39UbjGY0smDvQq35/jeV3DOqmVffVHL3h5/4s6EV/Vp07Sb13/o5ixWeHRoN5yc4PKDS+KTRDI5RAgAA+Hg0GwAAAE4xYekhEscoeVPn6iHFYmYnX+I792nlfXcazWgG3etH1L1+RNV8UZmxoyrHUyqnMmpd0KZAT5dCFw1Y2cNxPoqlMo2G8xQcMr/Ye2riiPEMAAAAL6LZALgfOxsAwKLxQweNZ4SGB+VrCxrPwfzrHBlSbIfZZkMlk1PivX3q2XSZ0Zxm0drepu71I06XcdaKpbKi7Gg4b8GLzR+jVC6VNH3sqPpX0DQGAImdDQA+ws4GwP3Y2QAAFk2MHTKe0TUyZDwDZtj6u4u8sdNKDtylWD7RaOBFkPPX0haU38J+lcnDh41nAIBXsLMBQB3NBgAAgFMcOWS+2dCxirdhvSo0PChfMGA8J/HePhWjceM5cI9i+cTRSTQaLlxwqN94xlH2NgAAAJyGZgMAvtQCwCkmxs0/QApdZP5BGMzptDTdMPPKm2YuzG3fdWg0zC9//xLjGZMW7hUAAABeQ7MBAADgpKmjEyqXSsZz2geXGs+AOT2XX2olJ/Lvd1TJ5KxkwTmlcoVGwzwLDCw2nnGMY5QAAABOQ7MBcD++eQKAJeOHRo1ndAwPGs+AWX2bN1jJqZXKmnzp1fm/MCceu0apXFEknqTRMM/8/eabDZHjUyoWCsZzAMALWBANoI5mAwAAwEk2lkOHhgaMZ8CsQHeXQpaaRuHXdig/FbaSBbtoNJjja1+g1u5O4zlTR8aNZwAAAHgJzQbA/Yy/ImDpLQQAcL2j4+aPxWhfscx4Bszr3bTWWtbhZ1+0lgU7yjQajLOxt+H4xITxDADwAkv3Mx5cAB5AswEAAOCk8PRx4xmhi5hsaAS9V66zlpUdO6aZfxlaFg3rmGiwI2DhKKXojPl7BgAAgJfQbADAl10AOGl6ctJ4RmhFv/EMmNe+fJk6Ll5hLe/YtpdVDMfm52Lc9h1zYhl0UjU+exlnZ28DzQYAAIBT0WwAwDFKACApm8kol80YzQgu6lFraIHRDNiz7KYt1rJq5YoOPv6casXShV+M274jiqWyIjQarAkMmG82zIZnjGcAAAB4Cc0GAAAA2TlCacHSPuMZsKd38warzaP88YjGnv6btTzMn3qjgWlSe/xLzP++jc5MG88AAADwEpoNgPsZ/1bKF18AkMLHp4xntC3uNZ4Be3wBv5Zcv9lqZvzdvSyM9ph8saRIPOl0GU3J19Vh9PqxcNjo9QHAKyydlsCDC8ADaDYA7mf8rs0xSgBgZ7IhuKjHeAbsWnrDNdYzo2+8q/E//d16Ls5dvlDUbCLldBlNy9+70HgGexsAwNoLjDy4ADyAZgPgfkw2AIAFYQsPjJhsaDxtS3q1+NpN1nMjr7+jsae2Wc/F2cvmC5pNpp0uo6m19nQZz4jO0GwAACYbANTRbADcj8kGALBgZmrSeEYbkw0NafmdNzuSO/vW+xr97Z8dycany+TyiqfMLpzHmbX2mJ9siE6ztwEAmGwAUEezAXA/JhsAwAIrxygx2dCQgn3dWvqFqx3Jjr+7V/t+8aSq+YIj+ThdKptTIp11ugxIarVwjBJLogGAyQYAH6HZALgfkw0AYEE0Yn7RZ9DCgy84Y/BLNzqWnTl0VHt//qSK0bhjNeCERDqrVCbndBk4ycZkQzwSMZ4BAG7HZAOAOpoNAJhsAABJ+azZN5HblvQZvT6cFeju0sDW6xzLL0xH9MFDj+n4P18/8w9z2zcikcook8s7XQZO0dprfmdDOpk0ngEAAOAVNBsAMNkAoOklYrPGM9oWs6+h0Q1++UYF+7ody6+VKzr2wiv64KePKzM68ck/yG1/3sWSaWU4ysp1bEw2ZNMsAQcAAKij2QAAAJpeysKbqYGFncYz4CxfMKCV997hdBnKT4W175d/0KHf/1WlGG9dmzabSClXKDpdBj5GS8Cvlrag0Yxsmv9jAAAAdTQbAPdjQTQAGJZOmX9Y5O/sMJ4B53VvWKNFWzY6XYYkKbZjt97/8a90+JkXVJiOOl1OQ4omUsoXS06XgU/hCy0wev1MKmX0+gDgBSyIBlDnd7oAAAAAp9k4c9vfFTKeAXcYuud2JXZ/qGrOHcfqRLfvVHT7TvVsvFTLbv6s0+U0hLm5OUUTKRVLZadLwRn4Qu2qxs01BDhGCQAA4CM0GwD3M/6KADsbADS7VCJhPMPfSbOhWfg7Q7r4/q9o9InnnS7l/yR2HVBi1wH+LV6g2tycovGUSmUaDV7g6zA72SCdmG7oXGh+PwQAuJWl0xJ4cAF4AMcoAe7HMUoAYJidY5R4wNtMeq+4TMtuudbpMj5WJZNzugTPqtVqisSSNBo8xNfebjwjY+EeAgBuxjFKAOpoNgAAgKaXtnDmNjsbms/Q125Tx8rlTpeBeVKpVhWOJVWuVJwuBefAxmRDlr0NAAAAkmg2AF7AqCAAGJZOmj9GKcBkQ1Ma+d49am03/7DTbTIHJ5TaN6Zag+w0KFcqCseSqlSrTpeCc+QL2ZhsoNkAoLlxjBKAOnY2AFCLj74jgOaWzWSMZ/i7mGxoRsG+bo088HUdePRZp0uxqr4fQpI6Vi5X1yUr1blmWN3rR+QLBhyu7tyUymVF4imOnfQoX4f5ZkM2w5JoAAAAiWYDAElztZrTJQCAo6oWjkVpDTXf2+04YeG61Vr1nbs19tQ2p0txRHZ8UtnxSenl/0iSFm3ZqN4r16n3qvUOV3ZmhWJJ0QRvrXuZz8JkUT6bNZ4BAADgBTQbAAAALPAF+NjVzBZ95nIVZxOafPFVp0tx3OzbuzT79i75ggH1bd6gJddvVufIkNNlnSaXLyqW4o11r2tpMz9JU8jnjWcAAAB4Ad96AfdjZh8ADON4FNgwePsNKs0mFHn9HadLcYVaqazo9p2Kbt+pztVD6t/6efVecZnTZUmS0tm8khneVm8ELW1B4xlFmg0AmlxLi5V1CnxgBzyAZgPgfsbv2pY+GACAa9FsgC0r771DtXJFs2++53QprpI5NKHRJ57XgmWL1L/1Oi257irHakmkM8rkCo7lY361WNgRks/RmALQ3FgQDaCOrbCA+xm/a/OQDQAAe1Z9+y4NbL3O6TJcqTAzq/E/vqRdP3lUs2+9bz0/lkzTaGgwPhuTDQUmGwA0NyYbANTRbAAAAE1vju8usGzF3bdq+BtfdLoM1ypG4xp7apv2/OwJJXYdMJ43NzenaDypXKFoPAt2WdnZkKPZAAAAINFsALyAY5QAoAHUyhWnS4DLLL1pi1Z/96tOl+FquWPTOvjYc9r/yNMqRuNGMmpzc4rEkyqUykauD2e1BM1PNhTyOeMZAOBmHKMEoI5mA+B+HKMEAIbN1cz/HvQFWJWF0/Vds1HrHnpAwd6FTpfiaukD4/rg4d8o/NqOeb1utVZTOJZQiWZgw2qx8LuXyQYAzY5jlADU0WwAAACwgMkGfJKO4UGtf/hBLVy7yulSXK1WLOnIc//Q/keeUTmRvuDrVapVhWMJVSrVeagObtZieG8Dkw0AAAAn0GwA3I9jlAAAaHD+zpAu/eH9GrjteqdLcb30gcPa/dCvFf/vnvO+RrlcUTiWULVam8fK4Fa+BTQbAMAkjlECUEezAXA/jlECAMP8fvPHbMzx9jTOwoq7btHaH31LgZ4up0txtWq+qNHf/UXHtr18zn+2UCorHE+qZuH4NAAAmgHHKAGo+x8AAAD//+zda4xcdRnH8V93Z3b2NrOXbnfb7rZ76ballC0FUjFgtYoQGlCpqJBgRCSa8EIJGkn0FUbUqphAQuILiQRq4gvjBY2JSLwihFQuCVBaeqPb7bbd7e7szM59zpkZX5TBUkpb2v3/zzkz38/L7u55nhdtz875nef5EzYAAIC6ZyVsKBE24PxE1w5r7MF71XPtlV634nvH/vKs9vz4MbmpzHl9fzZf0Mxckhct6kzFNTvBEg6HjV4fAAAgKAgbAP9jVBAADAtZeFDEmQ34IBqbIxq+a5tWf+OLCkfbvG7H11L7xvX6A48qO3H8rN83n84qnrz4sx4QPKbD3sYQYQOA+sYaJQBVhA2A//HqHQAYZiNsYLIBF6Jzw1qN/eg+Lb95ixoMH3IbZE4yrT0/eUyZQ5Nn/Ho8mdJ8hr36dcvw/79MNgCod6xRAlBF2AAAAOqelbCBMxtwgRqbI+q/5Tpdvv2b6v341V6341ulXEF7fvpLpQ8cfufPKpWKTswllc0XPOwMXqsYniyzcQ8BAAAIAsIGwP8YFQQAw8IWVmCUXdYo4eKEom0avONmbdj+LS3ZfJXX7fhSuVDUmw89rtSbb6lULms6nlCh6HjdFmpciDVKAOoca5QAVBE2ALA18ggAvhUKWzggmskGLJBIT6eG7rxFGx+6X8u2blZjc8Trlnyl7Lja+/AOTby8Sw7/7uqe6akGSQo1ETYAAABIhA0AAAAKhc3vwufMBiy0cGdUA7feoI0/u18rb9uqSE+n1y35RtlxNPvEU3JPxL1uBR6rWJgqY40SAADASeZf4wMAAPA5G4d7MtkAUxoiTeq7/hr1XX+NMgePaPa/r2nuxddVnJv3ujVPlXMFxR//vXruuV0N0Tav24FX3LLxEoQNAAAAJxE2ALC1XxEAfCsUMv8rkZvJGa8BtI0MqG1kQCtv26rUvnElXtmtxKt7lT9+wuvWPFFKphV/4g9a/NXPa1HE/AQT/KeczxuvwZkNAAAAJxE2AODMBgB1r7m11XgNwgbYFl09qOjqQa34wo0qxpNKvLpX87sPaH73AZWy5h/A+oVzbEZzv/6zur+8zetW4IGyhb/rzS0txmsAAAAEAWc2AP5nfOyAyQYA9S4a6zBew81kjdcA3k9Td4d6t2zS6D23a+TuW71ux7rCvsNKPf0fr9uAB2yEDe0d5u8hAOBnll5g5MEFEACEDQAAoO5FLTwoKqWZbAC8lP73S8rv2u91G7CsbGGqrD0aM14DAAAgCAgbAABA3WOyAagPid88LXdqxus2YBGTDQAAAPYQNgD+Z3wekTMbANS7aMz8W6lumrAB9WPx1Ru0ZPNVavDZocwVx1V8x59UcVyvW4El5az5/3vbLdxDAMDPLK1m5sEFEACEDQAAoO7ZmGxwCBtQR1oG+jR05y264uHvaPiuz6q5r8frlt5RmptX6m8veN0GLKlkC8ZrtFu4hwAAAAQBYQMADogGUPdsvJVaImyAX1i87TeEQ+q59gqN/eBejd5zuyK93faKn0Xm2ZfkHGOdUj0oZy2c2cBkAwAAgCTCBgBijRIASFKso9Po9VmjBN/w6LbfddV6bfjhfRr43A1qaAp708Qpkr97xusWYIGVA6KZbAAAAJBE2AAAACDJ/JupTipj9PpAUCy7cbPGHrxX7SMrPO3DOTqtzHMve9oDzCsl08ZrtLS1Ga8BAAAQBIQNAAAAkqId5t9MzU/NGq8BBEFTd4fWffdrWn7TxzztI/X3narkze/0h3dKyZTR68e6uoxeHwAAIEgIGwAAACR1dpnfJV84ETdeAwiS/m2f1Jr77lRjS8ST+pV8QelnmW6oVe5swniNWCdhAwAAQBVhAwAOiAYASb1LlxmvUZgx/+ALOCef3fY71o/qsu99XS39fZ7UT/9zp8oZzlSpRaX4vPEaPX1LjdcAAAAICsIGwP989kgAAGrTEgthQ3F2zngN4Jw8OiD6bJq6O7T2219R04BHgcO/XvSkLswqJSyEDUsJGwBg0SIrv1zwbAQIAMIGwP98+EgAAGpPr4UHRkw2wBd8+FHdcV3N5PLqvvtWNa00H/ydLvPcKyqnmW6oNaV40niNxUw2AICtbQk8GwECgLAB8D8fPhIAgNrTu2y58RqFGSYb4AM++6ieyxc0HU+qVC5rUVNYXV/6jEKLO633kd35mvWaMKs0Z36yYcky++EYAPgNkw0AqggbAP8zfte29IsBAPiajTMbioQNwLsk0xnNJlPveiOyoSWi7ru2qaG1xWovGcKGmuNaCBt6LNw7AMDvmGwAUEXYAIADogFAUktrq6KxDqM1nFRG5ULRaA3gnHxw269UKppJzCuVyZ3x641dMXXdcZPVnsqpjPK79lutCbNKFgJeG+f9AAAABAVhA+B/PngkAAD1wcZ0Q25y2ngN4Kw8fi/QLZU0FU8of47grWmoX7FPbbHT1NsyL7xqtR7MKaezKucLRmu0x2KKNDcbrQEAQcAaJQBVhA2A/zEqCACWLLFwSHT2yHHjNYCz8vCjeqHoaHo2Idctndf3t334ckXWDJlt6hTFgxNyZznIvRY4x2eM1+BwaAA4iTVKAKoIGwD/I70HAEv6LBwSzWQDPOfRR/VUNqcTc0mVP+ADiY5t12lRU9hQV+/FKqXa4FoIG1ihBAAnMdkAoIqwAfA/DogGAEuW9g8Yr5GbZLIB9aVSqWg2Ma9kKnNBP98Ya1ds6+YF7ur95d84YK0WzLEx2dC7vN94DQAIAiYbAFQRNgD+Z/yuzQHRAHDS4Mgq4zWyE4QNqB9uqaTpeEK5izwYvfVDYwr1di9QV2fnTBxX+QKDEfiHO2U+bBgYHjZeAwCCgMkGAFWEDQAAAG8bGh01XsPN5OQkU8brAF7LF4qamk3IOc/zGc6l49OfWJDrnI/87oPWasEM5+gJ4zUGhkeM1wAAAAgSwgbA/1ijBACWRJpbtMTCgZ/ZI1PGawBeyhcczSTmF3R6smm4X5FVKxbsemdD2BBs7nTcSp3lg0NW6gCA37FGCUAVYQPgf6xRAgCLbKxSyk0SNqC2FYqOkeu2feRKI9c9XfGtI1bqwAzHwgqlFRbuFQAQFKxRAlBF2AD4H5MNAGDR4Crzq5Syh48ZrwHUosiaIYWWmD+7oeK4Vnb+wwz36LTxGqxQAoD/Y7IBQBVhA+B/TDYAgEUrLbytmt4/brwGUKtaN623Uqd4mMPcg6o4bj7Q7edwaAB4B5MNAKoIGwAAAE5hY41SYSah4ty88TpALWrZuM5KHWeCsCGoiuNHjddYwWQDAADAe4S8bgDAObFGCQAsWjFk523V9P5xdW8as1ILdiRf36e5l99Q5tCknERKznxa4Y6omrpial89qK6N6xRdO+R1m4HX0NaiyCXDKux5y2id4gTrzoLIRtAgsUYJAE7FGiUAVYQNAAAApxlaNapDB/YbrZHeP0HYUANK+YKm/7FTU888L2c+/Z6vO8mUnGRKmUOTmnrmeUV6OrX0xo+qd8smD7qtHc3rRoyHDe50XBXH1aIwH5mCxEbY0B6LqaN7sfE6AAAAQcMaJQAAgNMMrV5jvAbnNgRf4cScdj3wqI789q9nDBrO+DMzCY3/6o964/s/l5vNGe6wdjWvtfNWeYl1Z4FjI2xYObraeA0AAIAgImwAAAA4zSXrzU8cZMaPqlwoGq8DM/JTM9q9/RcqzCQu6Ocz40e1Z/tjclOZBe6sPjREWxXq6zFepxRPGq+BheVYCBtGL73MeA0AAIAgImwA/M/48kNL+xUBIDAuGdtgpU764BErdbCw3HRWbz70uJxk6qKukzs6rb2P7FC56CxQZ/WlaaDXeA13jrAhSNzpWZVzBeN1Ri9db7wGAASJpXMgeXABBABhA+B/HBANAJatGBpWa1u78TrpfaxSCqK9j+xQcYHW62QOTerQk08tyLXqTXi5+bCByYZgKR6yczj0qnWXWqkDAEHBAdEAqv4HAAD//+zd6ZNU5RWA8TML3T3tMAsDLigKsirDvm+yjEQUETWVlEkqVfmDslU+ulRKrSxGsVyJJGoQhYoMi8KggKwDDLN0T++3+/aaD9qxVAa6Z/o9fe/1+X2zcO7TxZQ1Tp9+z8uwAQAA4AYWdJtfpRQ7ZfYSatTe8P5eSV2s7YmU8H8/lwSDp6o136mxRok7G9zEPtdvvHHv7Dnib2kx3gEAAHAjhg0AWKMEADegMWxInu/nkmCXufbG+0aee+XV94w894Y88mO/qX2y8UYhZRlvoHZshaHdbFYoAQAAjIlhA+B8HnlLAADcRevehngfpxvcItb3leSTZt58Tl24WrPVTLfkkSUETZ1txhuljPn9/6iN7IWrUlK4/2SuwiAaANyGOxsAlDFsAJyPOxsAoA7mLNDZyR3rO6vSwcRFT5wx+vxY31dGn+9FTW23GX1+kWGDa2TOXlTpzHmwW6UDAG7CnQ0Ayhg2AM5n/Kc2a5QA4If8gYDMnr/AeCdy/LTxBmrDujJo9PmpS9eMPt+LGloCRp9fTLBGyS3s05eMNzq6umTKtGnGOwDgNpxsAFDGsAEAAGAMGquUCukMbzK7RD6RMvr87GjM6PO9qDFodtgAdyjEU5IfGTXemdets14PAADArRg2AM7HUUEAqJNFy1aodGInWKXkBoWU2cu8s+Go0ef/n4c+F9gY8BtvFA1/3zFx9hc6d98sWLJUpQMAbsMaJQBlDBsA5/PQWwIA4C6LV6xU6US5t8EVGiY1G31+Qet+AA/9ql7KF4w3GpqbjDcwMZmzl1U6i9esU+kAgNuwRglAGcMGAACAMfgDLbJoufnTDakLVyUXSxrvYGKa/D6jzy/aWaPPL7M8dOlxKZsz3mgw/H3HxJTsrNhnzF8Ofc/MWdLR1WW8AwAA4GYMGwDn89DnDwHAfZYpfZJ1tPekSgfj12j4Tee84XU9hUJRhkejYqW9M2woGh6cmD7NgonLfHlBpdO9crVKBwDciDVKAMoYNgDOx1FBAKij5VrDhiN9Kh2MX6N/kvFGPmkZeW7azspQOCLZXN5Tv6oX42Yv7W7wcarB6TJ9X6l0Fq1eo9IBADdijRKAMoYNAAAANzFj5izpmna78U7yXD+rlByuUeGN52wkVtPnlUolicSTEo7GpajzqUM1pVxeiumM0UaDwoAJ41eysyonG3x+v8xfvMR4BwAAwO0YNgDOZ/wjAkqfQgAA11q+Vul0w+ETKh2MT/NtLcYb2Ui8Zs/K5fMyFI5KyvAb8vVSiNbu72osjS0B4w2MX+YLVigBgBOwRglAGcMGwPmM/9RW+h8DAHAtvVVKp1Q6GB//1E7jDav/ek2ek7DSMhSOSr5QqMnznCg3MGK80TSlzXgD45c+eVals2gVwwYAuBnWKAEoY9gAAABwC0tWrlLpJM+zSsnJ/NOmGG+kLlyd0NcXi0UJRWISS5i9y8AJcjUazNxM85QO4w2MT8nOin3mokpr0SruawAAAKgEwwbA+TgqCAB15g+0SPey5SotVik5l3+a+ZMNyXP94/7ajJ2VoXBUMtnczf9Fj3wuMNs/YLzRNKXdeAPjk+47p9KZcf9s6ejqUmkBgFuxRglAGcMGANzZAAAV2LD1YZVO+FOGDU6lcbIhb6XFulzdm+jlS6BD0bgUisVbf4EHfuwXU2mVNUrNXQwbnCrz+RmVzsqHtqh0AAAAvIBhAwAAQAXWb9mm0klduibW1UGVFqrj69TZ3x87VfkntrO5nKcvgR6Lfe6ySqeJNUqOVIjExT4//lNA1Vi9eatKBwAAwAsYNgDggmgAqEBrW5ssWalzSejIR70qHVSvdfa9xhvRCi+9jSVTMjwaq/4SaA/82LdPm9/V3xhskab2VuMdVM/q7VPpzJw3X6bddZdKCwAAwAsYNgDO54G3BADAGzb2bFfphA59ptJB9Vrnmh82JL+6LHYoMuaf5/IFGQpHJZFKjy/g8jVKpWxO0icqG8hMhG/W3cYbGB+r96RKZ7XSiTYAcDul1cy8NwK4AMMGAACACq1TWqdRtLMSOnRcpYXqTJ5jftggIhIeY+CUsNIyFI5ILp9XeR1OlFba1e+7b7pKB9XJfHFeipbO2rC1W3tUOgAAAF7BsAFwPuMfEeCCaACoTEswKCvXbVBpjRw4otJBdVrn3KfSGfnk6Hf+uVAoyvBoTGKJlErfySylS9R997E+x4m0VijNXdgtbZ2dKi0AcDul1cy8cQG4AMMGwPmM/9TmzgYAqNyGbQ+rdJLn+iUzFFJpoXLNrUEJ3NFlvJMdjcnoN6tiUumMDIYjks3ljHedLnvhquSujxjvNDQ3yaR77jTeQXUK0YTYZy+ptFihBACVY40SgDKGDQAAAFVYtWGTWmt4PxdFO1Hbg7NVOtf3HpBQNC6ReJIPBnwj+b0TH6b4FC4CR/Wso6fUWis2PqTWAgAA8AqGDYDzsUYJABykJRiUtQ9tUWmFDh6TYpZPsztNx9IHVDrWlUGJfn5apeUG2f7rYp+5pNIKKA2UUB2ti6EfXLacFUoAUAXWKAEoY9gAOB9rlADAYbY+ulOlU7AyEjrIRdFO075wjjS1+FVa8bf3q3TcIP7mh2qtwEKGDU6TPvalFBOWSmv99h0qHQDwCtYoAShj2AA4H9N7AHCYles2SMcU83v7RUQG932s0kF12hfNV+kUoglJ1vqycBf+qm719kluUOcOE9/Mu6WxJaDSQuVq/t/BGIKtrbJ2W49KCwC8gpMNAMoYNgDO58K3BADA+3oee1ylY4eiElHcU47KdC7XWaUkIpLYd1AKkXjtHuiyX9UL8aTE9x5Q67FCyXnss5ckPzKq0lq77WGVDgB4CScbAJQxbACcjzsbAMCBeh7bpda6rvhGKyrTsWieNAV0VimJiERf+5day2lib3wgJcW7SwLdc9VaqEzy42NqrU07HlNrAYBXcLIBQBnDBsD5uLMBABzojunTpXvZcpVW6vKAJM/1q7RQmUa/T7rWLVXrZS9dk+T+XrWeU6QOfaZ2KbTI16camtpb1Xq4tfxQWLIXrqi0Zs6bLzPu52QLAFSLkw0Ayhg2AAAAjJPm6YbBfZ+otVCZO7evV+0l/n1I7PM/nqFT9vKAxN/9SLUZXLtEtYdbS+4/rNbiVAMAAMDEMGwAnI81SgDgUOs2b5XgbTqfgo4c/1IyQ2GVFirjv32KTJ4/S7UZ+eteyV0fUW3WQ34oLJGX31ZtNk/tFP/sGapN3FwhmpD0ibNqvdVbtqm1AMBLWKMEoIxhA+B8rFECAIea5PPJ5p88otbj7gbnuWPbGtVeKWPL6AuvS34opNrVlB+JSPiFPVJMZ1S7nGpwnuSBI2qtDdsfkZZgUK0HAF7CGiUAZQwbAOfjZAMAOFjPzifUWqGDx8QORdR6uLXOFQvFP7VDtVlMZyT83B7JDXjvhEPuekjCz74qxVRatdvYEpDgigdVm7i5QjQh1qcn1HobWaEEAOPGyQYAZQwbAOfjZAMAONisOXNlzoIH1HoDb/9HrYXKTH+iR71ZTGck/PxrkrsyqN42JXd1UMLPvSpFS3fQICLSunmlNPgmqXcxtuRHehei3z1zlsxd2K3WAwCv4WQDgDKGDYDzcbIBABzup7/+jVordPC42MOjaj3c2tT1S6Xlrmnq3ZKdlfALe8Q+c1G9XWv26YsSfn6PlOysertxclCC65aqdzG2QjQh1uGTar2dz/xSrQUAXsTJBgBlDBsA5+NkAwA43OoNm2T6jHvVegPv7FdroTJ3P6l/ukFEpJTLy+hLb4l19FRd+rVgHT0loy+/JaVcvi79yVvXSENzU13auLHk/sNqrY6uLi6GBoAJ4mQDgDKGDYDzcbIBAFzgyWd+pdYKHeJ0g9O0L3tAfNNvr1s/9vr7EnvzQyll7Lq9hmqV7OzXr/v19+v2Gpo62yS4ZnHd+vihQiQuVm+fWu/Rn/9CrQUAXsXJBgBlDBsAAABqoGfnLmnr0LsoeOAd7m5wiqSVkcFQRCY/vrmur8M6fFKG//CSpE+erevrqET6xBkZ/t2LdT+R0bazvt8z/JDmqYZga6ts4mJoAACAmmHYAAAAUCO7fvaMWit06DPJDIXUevihXD4vQ6NRiSaSUiyVxHffdAmuqu8ls8WkJdG//1PCz++R/IjzTr/kh0ISfvZVib7ynhRTVl1fS6B7rgQeuL+urwHfVYgmxDqiN4Dq2f2U+Px+tR4AAIDXMWwAAACokUd2Py2TfD613pV/7FNr4VulUkmiiZQMhaOS+949A5N3bJTGycE6vbJvZS9elZE/viyxNz6QQiRe75cj+XBUonv+JSN/+otkLw/U++VIg98n7Y9vqffLwPfE3/1Itdez+ynVHgAAgNcxbAAAAKiR21pbZcfup9V60c9PS+zUObUeRNIZWwZDEUla6Rv+eWPAL+27tiq/qrFZvX0y/Ns/S/SV98Q+36/et8/3S+Rve2Xk9y9K+tiX6v2xtD26yRFDIXwre+GKZL44r9bbumu3tLa1q/UAAAB+DP4HAAD//+zdeZDU5Z3H8c9c3XN0Dww93IERjIKioiiKirccKoNcI3KoiAMiCequqyxqYiW7qUpl94+tvWKpObZMgoQYXRPPhCSuV7IxurLqCkpUUGaG6fu+e/+gJikNOMw4/Tzd0+/Xnxy/z6f4p4fft5/nW2u7AIASwIJoABgyizpW6mc7HzGWt3/7kzr1728zllepsrmcAuGoUulMv3+2fsYXVX/y8UZfnPYnsXuPErv3qNrdqLqxrUXPS769T/Hf7VYuFCl61kA5pk6yft0V/lLoCbN7aOYv6zCaBwAAUAk42QCUvkLRA/L5YkcAQMVoHTNW89qvNpaX7Paq+7mXjOVVonAsrh5f8JgGDX1GLJ+nmpbmIrYanHwkrtR7xT/hkPmouyQHDdWuRrWsXGi7Bj4l9vLryvYGjOWdN2++Ro8fbywPAIa7KjNfYCz6uxEAnx/DBgAAgCG2Yu06o3kHn/i1spGY0cxKkM5k1O0NKByNq1AY2P9vq+udalnTXqRmGKyWNYtU7eL6pFKSjycU+eVvjWa2r77eaB4AAEClYNgAAAAwxFrHjtUCg7sbcsmUDjz6nLG84S6fz8sfiuiQP6RsLjfo59SNb9WI9ouHrhg+F/f88+WYzLfZS03k2ZdUSKWN5V2w8EpONQAAABQJwwag9BX9PKKhI48AUFFWXLfOaJ73xdcU++Bjo5nDUTSeULc3oHgyNSTPa5wzU/WnnDAkz8LgOadNkeuis2zXwKdkPu5R/NW3jGa2r+FUAwAMtYGeAB0kXlwAZYBhA1D6ir+zwcwPBgBQUUa1tupKwwtIP3z4CaN5w0kmk1WPL6hgJKb8EH8ujlwxX3WTxg3pM3Hsasd61HLtFbZr4AhCj+8ymnfxVe0aNXq00UwAqATsbADQh2EDAABAkSwz/A3a2IcH1fOLl41mlrt8oaBAOKoef1CZbLYoGVV1tRp1wxLVekYW5fk4upqRbnnWL1OVo852FXxK7KXXlTnYazSzfS2nGgAAAIqJYQMAAECRtHg8WrRipdHMjx77pdKBsNHMchVLJNXtDSiWSBY9q7rBqVHrl6m6saHoWTisut4pz03LWQhdgnLhqCKGB6OXXb1UI1pGGc0EAACoNAwbgNLHzgYAKGPL194gh9NpLC+fznCdUj8y2ZwO+UMKhKPK5/PGcmtGujVq/VJVOR3GMitVlaNOo9YvVc2oEbar4AhCj+1SIVOck0RHc+W1q43mAUAlYWcDgD4MGwCwswEAiqh55EhdsXSF0czg7j3yv/qm0cxyUCgUFIzE1OMLKJ3JWOlQN360PJ0rVN3ECYdiqW5wytO5XHUTx9qugiNI7N6r1N4PjGbOX97BqQYAAAADGDYApY9JAACUuY7r1snldhvN3L/9SeXixb8eqFzEkyl1ewOKxhO2q6huwmi13nKtalqabVcZdmpGutW6eRWDhhJVSKYU/tmvjWY2utxazK4GACgqFkQD6MOwAQAAoMgampq0esMmo5mZUFQHHn3OaGYpSmeyOuQPyh+KKGfwyqT+1LQ0q/WWlaqbMNp2lWGjdoxHrZtXcXVSCQs//YLyhoegS9fdqPoG9nYAAACYwLABKH3sbACAYWDB4qWaPGWq0cze53+v8DvvG80sFfl8Xv5QRIf8QaUN3w1/rKqbGuXZ0KH6k4+3XaXs1Z80Va2bruF6qhKWem+/4q++ZTRzQttxumTR1UYzAaASsbMBQB+GDUDpK/qnNjsbAMCMztvvMJ75xwd/rGw0bjzXpkgsoS5vQPFkynaVflU56tSyZpGaF861XaVsueedp5a17SzeLmH5eELBHc8Yz7325s3GMwGgEnGNEoA+DBsAAAAMmTHzDJ055zyjmZlQVPse+LHRTFsSqbS6vQGForGyG6Q3XXCmPDctU3Vjve0qZaO6oV6ezhVyXTzbdhX0I/jI08ob3pdy2tlzdPKsM41mAgAAVDqGDUDp46ggAAwj6750q/HM8Nv71LPrFeO5pmSzOfUGQvIFw8rmcrbrDJpj6iS1fnmNHG0TbFcpeY62CWq9dY0cUybaroJ+xF74g1L7DhjPvWaj2T05AFDJuEYJQB+GDUDpK6+vZgIAPtOESZN11fIO47n7tz+lxMc9xnOLKZ8vKBCOqtsXUCqdsV1nSNSMcMmzsUPNV16oqtoa23VKTlVdrZqvvFCejR2qaXbZroN+ZLp6FX7mReO5ly9ZpnFfmGQ8FwAqFdcoAejDsAEAAMCwa9Z1qqGpyXjue//+iPKptPHcYojEEur2+hVLJG1XKYqm889Q661rVTdxjO0qJaNu0ji1blmjpvPPsF0Fx6CQSivww58bz210ubV47fXGcwEAAMCwASgHHBUEgGHG5XZr3eYtxnOTPV59uP1J47lDKZ5MqcvrVygaU77M9jIMVK1npFo3r5J7wdyKXn5c5XSoeeFctW5aqVrPSNt1cIxCj+9SLhA2nnvNhpvV6HIbzwWASsY1SgD61NouAKBfw/tNCgBUqMuvWqznn3tGb7/xP0ZzvS++pubpU+WZM9No7ueVSmcUjMSUyWZtVzHOdeGZapx9iqLP/7fir7yhQrZ891IMRFVdrZrOnammi2arut5puw4GIP77N5XYvdd47kmnz9LcBVcYzwWASsc1SgD6cLIBAADAki3bviKH0/xL1D8+9BMlunqN5w5GJpuTNxhWbyBUkYOGPtUNTjUvvECj77hRjWfNsF2n6Bpnn6Ixd94o94K5DBrKTObgIYUe32U81+Fwav2dW43nAgAA4M8YNgAAAFgyZtx4rd242Ur2u//yg5Le35DL5xUIR9XjCyhZwj1Nq2lu0oill2vMnevVeM5pqqobPgeVqxx1ajr3dI256yaNWHKZqpsabVfCABWSKSt7GiSpY8PNavG0WskGAADAYQwbAAAALLpqeYdOOMn8N9VTh/za98BO47n9KRQKCkfj6vYGhu3y56FQM9KtEYsv0ZitnXJfNkfVTQ22Kw1atbtR7nnnaezWm9S86CLVjHDZroRBCvzoKeWCEeO5U6ZN1yXtVxvPBQAAwCcNn69CAcNX0S8/NHS/IgDgKLZsu1e3Xr/KeG7wjXfU/eyLGrdgrvHsI4nGEwrHEsrn87arlI3qBqdcl54j16XnKPHa/ynxv3uU2vuh7VrHpH76VNWfdqIaZk6zXQVDIPqr3ym1b7+V7A1b77aSCwA4jAXRAPowbABKX9E/tQ39YAAAOIqJk9u0ZsMm/fDB+41nH9j5rFxfbJPr+EnGs/vEEkmFY3HlcgwZPo+GWSepYdZJKiRTSrz5rpK79yq174DtWp/gPLFNDadOU/2M41XldNiugyGS2rdfkV2/tZK9onOjxkyYaCUbAHAYC6IB9GHYAJQ+TjYAQAVYtuZ6vfybX+n9d/caz37v336kGfd9SXWGr6+JJ1MKR+PK5nJGc4e7qnqnGs86RY1nnaJCKq30/i6lPzio9P6DyuzvUiFr7t/bcdxEOdomyDHlC3K0jVeVo85YNszIhSIKbn/KSvZxJ07TwhUrrWQDAP6Mkw0A+jBsAAAAKBG33XOfbl+3xnhuJhzVu//8sKZv7VS1gZfBiVRa4WhMGYMvvStVldMh5wltcp7Q9qdfi73yhsI//01Rc5vmzFRz+8VFzYB9hVRa/u//p/KJlJX8zjv/1kouAAAAjowF0UDp4xolAKgQk46bonWbt1jJjn14UPvu31HUjFQmo0P+oHzBMIMGi2pa3EXPqG5myXMl8D/8hLKHfFayV2/eonGTJlvJBgB8EtcoAejDsAEAAKCEtF+zSjNOn2UlO7h7jz569Lkhf246k1VvIKRef0jpTHbInw/AvNBPf6H0+x9byZ526kxduniJlWwAAAAcHcMGAACAEvNXX/maGpqarGR3Pf2CvC+9NiTPymSz8gUjOuQPKpXODMkzAdgXe+l1xf/wtpXsRpdbG7fdYyUbAAAAn41hAwAAQIlp8Xi06a/vspb//vceU2TPB4P++9lsTr5QRD2+oBIpO3e5AyiO1DvvK/zUf1nLv+lvtmrEKI+1fAAAABwdwwYAAIASNPeyeTrvksus5b/7rz9Qsmdgd7Fnczn5QxF1+wJKJBkyAMNNpturwCNPWcs/f/5CzZxzrrV8AAAAfDaGDUDpK/qmJUPLnAAAA7Tpjq0a1TraSnYukdLef/oPZUKR/v9sPq9AOKpub0BxhgzAsJTzh+T//mMqWNq70jp2nFbf8mUr2QCAz1YoGNndzIsLoAwwbABKX9E/tQ39YAAAGKAml0u333uftfxUb0DvfOs7ykZiR/z9viFDV69fsUTScDsApuRCUfke+onykbi1Dhu33SNnQ4O1fADA0Rn6AiMvLoAywLABAACghM04fZY6blhvLT/Z4zs8cIgl/vRr+XxeoUhM3d4AQwZgmMuFovI9uFO5UNRah+U3dmrq9JOt5QMAAODYMGwAAAAocdfe2KnTzpxtLT/R1as9//BdZWIJhaIxdXkDisQTnIwDhrl8JH540BAIW+sw6/wLdMXKVdbyAQAAcOwYNgAAAJSBO7/+DY2bMNFafvyjbr31rYcUDoQZMgAVIB9LWB80jJs0WZ13bbOWDwAAgIFh2AAAAFAGGptcuvub/yhnfb21DpmPD8n33Z+qkM5Y6wCg+PKJpHwP7lTWF7TWwdnQoNu+/g05nE5rHQAAADAwDBuA0lf0TUuGljkBAD6niZPbdOvdX7XaIXOgW/7vPaZCKm21B4DiyMeT8n/nUWV7A1Z7bLr7qxo9foLVDgCAY2Po1CsvLoAywLABKH1F/9TmOgwAKB9zLrxYS1attdohvb9Lvgd2Kh9nOTQwnORCEfnu36FMl9dqjyXXr9Ops8+22gEAcOwMfYGRFxdAGWDYAAAAUGauu3mzTp55utUOmW6vfPfvUC4cs9oDwNDI+oLyfnuH1auTJOm0s+do0errrHYAAADA4DBsAEofRwUBAH9h6999U2MsXzGS9QUPDxz8Ias9MEB8LxCfkunyyvftHcpH7A4Px0+erJu33Wu1AwBg4LhGCUCf/wcAAP//7N15dJT1vcfxD0symSSTFcISCEtYwyKLC6KiPUdr3Xra6tV7ta3a21q34xEQRW3RekuBAAIiHkVRb6XuVCt1u9YrLldEVBSwoGyyqiQBksz6PPM8c/+AoFSQJMzk90zyfv3JIc+8/5vJfPP7fRk2AN7HVwIAgO/IzcvTlJlzlBsIGO1wautVff/Tiu/eY7QDTcCv6vgWe8dXqnnwGbkRs9ei5RUWasK0mfL5/UY7AABNxzVKABowbAAAAEhT3Xr01G3TZ5vOkBsKq+aBp2Xv3G06BUATWJt3qOahJcYXvmdm+jRh2kwVFncy2gEAAIBjw7ABAAAgjQ0cMlST7vqT6Qy50ZhqHnpW1uYdplMANEJ03WbVLFqihB03naJrfn+HevTuYzoDAAAAx4hhAwAAQJobM+4M/fyqa01nKGHZqlm0RJHVn5tOAfA9witWa+/ipaYzJEm/vGG8hp1wkukMAAAAJAHDBsD7Un75YQvdrwgASKGfXvpznXnej01nSJL2PfWyQu+uMp2BI2jXsWPqXyOjQ8pfA81T98rbqn3hDdMZkqRzLv53jTv3fNMZAIBjxIJoAA0YNgDel/J37Rb6YAAASCE3kdDlN05UxajRplMkSXUvvqX6V98xnYHD6BDITv1r5OWm/DXQdHufeEmhtz8ynSFJGjX2VF34q9+YzgAAJAELogE0YNgAeB8nGwAAR+S4rkK2pdpYVDEnruum3KWefctNZ0mSgm99qH3Pvmo6A/+ifV4g5a/RIT/1r4HGS1i29jzynKJrN5hOkSSVD67QtVP+YDoDAJAknGwA0IBhAwAAQBqyXUf1Vkx1VkyW4xz8d19WliZMq1SX0lKDdd+IrFqvPY8+p0TMMp2CA9r7fcro1jllz2/ny1RGz64pez6axg1FVPPgM4pt3GY6RZJUVt5PN06dYToDAAAAKcCwAfA+rlECABxkOY7qYjEFLUtx1z3s/wnkF2hS5RwVdU7dF8pNEduwTdULnlD862rTKTgga0i/1D27whsnayBZW3ep6p7FsndVmU6RJHUrK9PE6bPkz079VV4AgJbDNUoAGjBsAAAA8LiEpGg8rtpYVCHbkpM4/JDh2wqKizWpco4KiotTH9gI8Zp9qr7vSYVXrjWdAknZxw9J2bNzxgxP2bPReME33lfNwmfkBsOmUyRJnbp21c0z5ygnwBVbAAAArRXDBgAAAI9yEwmFbVu10YgicVtuE0+ide7WTZMq71ZuXl6KCpsmEXdU+/zr2vf0K0pYtumcNq19IEc5Jx+X9OdmDeqrjB5coWSSG46oZtES1f9juemUg/KLinXzzLkK5BeYTgEAAEAKMWwAvI8F0QDQxtiOo6D1zdLnYzkz3qW0hyZMmymf35+0vmMV+eQzVd/7ONcqGZb7g5OSusi5nS9TgXNOTdrz0HTWFztVdc9fZG3eYTrloNy8fN080zvXugEAko8F0QAaMGwAAADwgISkmLP/qqSgbcl2naP+TGOVlffTxGmVyvT5kvbMY3XwWqUPuFbJlPY5fhVd8RO1y8xIyvOKfnGBOnYqTMqz0HTBZStV8+CzcutDplMOys4NaFLlbM8srAcAAEBqMWwAAAAw6NtXJYXtpl+V1Fh9B1Xo+jv/mJJnN1ci7qj2ude198mXlIhZpnPapI4lRSq+6t/UIS+n2c9o7/ep+DcXKbNPjySWobGcupBqFv1V9a+9azrlEFn+bE2cPlOlvfuYTgEAAEALYdgAoKWOPAIAvsV2k3dVUmNVjBylidNnKiMzswVerfGiazao6p7Fsrd/ZTqlTcro1lmdrr9Uvv69mvyzmb26q9P1lymzN3+5bkJ0/WZVz3tM1ubtplMO4c/J0U0zZqlXv/6mUwAAANCCGDYAYGcDALSQhquS6mJRBa3kXpXUWINHjPLcDgdJcvbVq/r+pxRc9r7plDapfU62iq74iQovO18dS4qO+v87FOWr4KKz95+KKEje3gc0Xt3fl2nvY0vlRmOmUw6REwjoltnz1HvAQNMpAAAAaGEdTQcAAAC0dm4ioWg8LquFTjAcTf8hQzVxWqXm3D5ZkZB37neXpPrXliu2cbsKLv7RMV3tg+bJqihXVkW54rv3KLp+i5w9++TWh5VIuOoQyFWHwjz5BvZWRjeW/ZoSr9qrvU+85MkF64GCAk2qvFvdy5p+SgYAAADpj2EDAABAitiuo1jcMXKC4Wj6DqrQTTNma/bkSQoH603nHMLaskPV9yxW/kVnKWtQX9M5bVLHkiLlNuKEA1pWeMVq1b7whumMwyos7qRJM+9WSXeu1AIAAGiruEYJ8L6U/xEsOxsAIHm8cFVSY/Xq11+TZ89Vbl6+6ZTvcCNR7X1sqfY9+z+euyYGaGlObb32PPycZwcNRSUlunXOfAYNANBGtdDVzHxxAaQBhg0AAABJEHddhWxLtdGIwrYtJ00Gud179dbku+cpr7DQdMphRVatU9WcPyv2+RemUwAjwu+vUdW8xYpt2mY65bA6de2q2+bcq6KSEtMpAAAAMIxhA+B9bG8GAI9KHNjFUBuLqt6KyXKctPyTq649euqWWfNU1Nmb9/C7wbD2/PffOOWANmX/aYa/qvZv/6tEzDKdc1g9evfR7XMXqKC42HQKAMCgFrotge9GgDTAsAHwvnT83goAWjXbdRS0LO2LRRWJ23LT5BTD9+lSWqopCx5Qr/4DTKccEacc0FaEV6xW1dzHFNu03XTKEQ0ZfYJunTNfgYIC0ykAAMO4RglAA4YNgPcxvQcAD3ASCUXitmrTYBdDc+Xm5Wvy7Hkafeo40ylH9M0ph1fl1IVM5wBJFa/ao5pFS1T7whtKWLbpnCM6/dzzNX7qdPn8ftMpAAAP4GQDgAYdTQcAOCqm9wBgSEKS7TiKOXHFXdd0TovIyMzUNb+7Q0seeUgvP/WE6Zwjiqxar+jajcoZO1K5px+vdr5M00lAszl1IQX/sVzhDz81nXJUl1x1jc762UWmMwAAHsLJBgANGDYAAAD8i7jrynIcWU68zf5Wc+GVv1a3nmV6eNYM0ylHlLDjCr65UuGVa5T7gxOVM3ak6SSgSRIxS8FlKxVa/rESdtx0zvfK9Pl09W1TNPykMaZTAAAA4FEMGwAAALT/+HfswIDBaQU7GJJh7Jk/VFHnEs2/83eKRSKmc47IDUdV9+JbCr37sQI/HCv/8IGmk4CjCv3fRwq+sVJuJGo65ajyCgs14U+V6tGnr+kUAAAAeBg7GwDvS/l5xBY68ggAnmS7joL2N8ueGTQcatBxI3T7vAUqKikxnXJUzt467XvqFVXf+xfFNmw1nQMcVmTVeu2uXKS6l95Oi0FDz77l+v299zNoAAAcETsbADRg2AB4X8rftVvogwEAeMZ3lj07rW/ZczJ1L+ulO+97UINGpMc1RfaX1drz6POqWfiM7J1fm84BJEnRf25S1bzF+5eb1wZN5zTKCaefoVvnzldhcSfTKQAAD2NnA4AGXKMEAADahEQiIct1FHMcOW1k2XMyZefm6qbpszy/OPrbrK27VH3fk8oa3FeBH52qjp0KTSehDbK27lLdi2+l3eDrkt9eq7N+eqHpDAAAAKQRhg0AAKBV27/o2ZHtcnohGS688tfqM2CgFs2crljU+1fASFJ03WZF122Wf+QgBc4cqw4FAdNJaAPsXVWqf+UdxTZtM53SJIH8Al37+zvVf+gw0ykAAABIMwwbAO/jXkIAaKK46x4YMsQ5b50Co045TV17lmn+Hber6ssvTec0WmTVekVWrVfOmOOUc9pohg5ICXtXlYJvrVR0zQbTKU3WZ+AgXX/HXcovKjadAgBII+xsANCAYQPgfXxPBgCN4CYSshxHMScul100Kde9rJemLFioB2dM1eoV75nOaZLQe58o9N4nyhraX7njRiujtIvpJLQC0XWbFXrnI1lf7DSd0izjzj1fv7xhvOkMAEAaYmcDgAYMGwDvS/m7dgt9MACApEtIspy4LMdRnD0MLc6fna0b/jBVf3/8MT3/50dN5zRZdO0GRdduUGZZN+WMO15Zg/uaTkKaSdhxRVatU+idjxSv2Wc6p9kuH3+TTjv7HNMZAIA0xckGAA0YNgDel/J37Rb6YAAASWO7B/YwOA5/4uQB51/6Cw0eMUoLp09Vze70WoIrSda2L2UtXqqOxQXKGTtC/tFD1C6Dj8k4MjcUUWj5xwqvWCM3HDGd02xl5f3029umqEtpqekUAEAa42QDgAb8FgUAANKC47qKOY4s12FI6kHlFUN01wOL9MT9C/TOqy+bzmmWeM0+1S5dpvrXlss/arCyTxqujp0KTWfBQ6wvdiq8Yo0iqz8znXLMzr3kUv3syv80nQEAAIBWhGEDAADwrIY9DJYTl8OAwfN8fr+uGH+TRp58ih65u1LBujrTSc3iRmMKvfuxQu9+rMw+pco+abj8wwaYzoIhiZil8Ef/VPj9NYrv3mM655gVl3TRVZNvV3nFENMpAAAAaGUYNgAAAE/5ZsDgyEmwhyEdHTfmZP3Xwke0aNZ0rf1gpemcY2Jt2Slry07VLX1T2cdXKPvE4epQEDCdhRZg7/hK4ffXKLL6cyXsuOmcpDj17HP0H1dfJ5/fbzoFAAAArRDDBsD7WBANoNVzXFeWu38HAycYWodAQYFu/ON0LXtxqRbPn2s655i5obCCb36g4JsfyFfeU1nDBsg/rL/aZflMpyGJnNqgIp+sV/STz2R/VW06J2lyAgFdOWGSRpx8iukUAEArxIJoAA0YNgAAACPirntw0bPLgKHVOuO8C1QxcpQemV2pDZ+uNZ2TFLFN2xXbtF21z78u34BeyhrST/5hA9TOl2k6Dc3g1AYVXf2ZIms3yt7xlemcpDv+tNN12XU3KFBQYDoFAAAArRzDBsD7Uv4NHItWAbQUBgxtU0n3Ut0ye56WvbhUSxYtVCQcNp2UNLHPtyr2+VbVPve6fIP6yD90gLKGlKtdZobpNHwPpy6k6JrPFFmzQfb21jdgkKT8omJdfuMEDT9xjOkUAEAr10K3JfDLA5AGGDYAAICUiruuLMeR7TJgaOvOOO8CjTx5rB6eXalPP/zAdE7SxdZvUWz9FulZKbNPqXz9yuTrV6aMHl1Np7V5CTsu64udim3cJmvjtlZ1RdLhjDvnPF181dXK8mebTgEAAEAbwrABAAAkne26sh1HlutwegqHyC8q1vipM7TyzWV6/L75qq/dZzopJRoWS9e/tlzt/T5l9u15cPjQoSjfdF6bYO/8WrGN2xTbuF3W5u2mc1pE527d9KuJt6j/0GGmUwAAANAG/T8AAAD//+zdW3CU9R3G8Sdkd2Gz2ZwgR0BAIEGRlkMCKGgChDPISY5FwXY6VSxjtbZXnelNb3rTGWc67bTTjq1jFetUO4ocVERFOxw8jQwKASQoAZIA5gzJ7vu+vdhsTASCRnb/726+n2Hn3WwCPMMNyfvs7/+jbADcjwXRABJC9HikkG1TMOCGysordPvkKfr3X/+s917fbTpOTNmX23XlyAldOXJCkpSak6mBo4fLO7xAvhFF8gzJNpwwOYTO1Krj9NnIBMPnZ+RcaTcdKa4Wr9ugFZt/YjoGAKAfYkE0gCjKBgDcFATQJ47jRCYYbEshy+IQVXxngWBQD/7y15paMVtPP/kHXayrNR0pLqxLjWq71CgdiizMHhBIk29kUeRxS5G8w/INJ3Q/JxSOFAunz6qj+qxCX56TEwqbjmXEqJJx2vTYExo2cpTpKAAAAOjnKBsAMNkA4FuzHFshK1IwhG3bdBwkifFTSvX7p5/V9uee0X//+ZTpOHFnt7b1mHxI8XrkHV4o37B8eYfmyVuU1++PXgqdq1eoplahs/UKnTmvUE2d6UjGpaUHteanP9PM+QtNRwEAAAAkUTYAiSDmbxZmsgFAbyKTCzYLnhFzS9Zv1F2V8/X8X/6kD959x3QcY5xQWB2f99wzMCBtUKR4GJofeRTlKTUraDBl7IRrL6jjTJ1CZ+sUqqlV+Fy9nLBlOparzL53uVZs+rH8gYDpKAAAxOsNjPwgAiQAygYAANCD4zjq6FzwHLY5HgnxlZObq4d/81sd/fgjPfPHJ3X+TP9Y7HsjdtsVtR//Qu3Hv+h6LcXnVWpmUKlZ6ZFrZlADMr9+npoVVIrXXd/u221XZDU2y2pslt3QLKuxpfPjzutXTaYjutqt427T5seeUNGIkaajAAAAAFdx108fAK6FBdEAYs6y7a79CxyPBDcYN3GSfve3f2jXC8/rlX89rfYrV0xHch2nI6Rw/SWF6y9d92tSfF4NCPiVGgwoJW2QUgNpGhDwa0C6XwPS0jQgI00pHo9SUlMlT6pSPKlKSY1cFX3u83b9fY5lSWFLTreHrLCcsCX7crvs1suyW9si15bLstvaItfWy7KaWuL1T5N0MrNztPahLZpaPst0FAAArsKCaABRlA0AOEYJ6IccSWGOR0ICWLB6re6snKsXn/q73nttl+k4CcfpCMnqCDExkKB8AwdqzvKVWrJ+owYOGmQ6DgAAANArygbA/bgDCOCmsB2na/8CxyMhkWRm5+jBx3+lZRs3aftzz+idna+ajgTElD8tTbOXrdD8VWuUlp5uOg4AAL1iZwOAKMoGAACSlCNHYStyPFLYtmQxvYAEl5OXpwcefVxLf3S/Xt32rN7a/rLpSMBNlZYeVOXylZq7YhXLnwEAAJBwKBsAAEgSkaORIsVC5MruBSSn7CG52vjzR7V0w0bteH6b3tm5XaGODtOxgD5Lz8jU3JX3ac6y5RrkTzMdBwAAAOgTygbA/VgQDeC6oqUCi53RH2XmDNb6hx/R4nUbtP25Z7Rv1w5KBySUjOxsLVy9TuVLlsrnG2g6DgAAfcKCaABRlA2A+8X8f20WRAOJw7KjxyKxdwGIysjO1oYtW7Xs/s16/aX/6M2XX1JbS4vpWMB1Dc7L1/z71ujuBYvk9flMxwEA4HthZwOAKMoGAABczHKcrmORQrZNOQj0IhAMavkDm7Vg9RrtfeVlvfbiC2puaDAdC+hSMPwWLVyzTjPmzjcdBQAAALjpKBsAAHAR23F6HItkUy4A39kgf5oWrlmnyuUr9e7undr5wjZdqqszHQv92IgxY7Vw7XqV3l1uOgoAAAAQM5QNAAAYFC0XosciWZQLwE3j9fk0a+kyzVq6TO+9vls7tj2r2pozpmOhHxl7xwQtWrtBE8qmmo4CAAAAxBxlAwAAcWTZtsKO3VUwMLkAxMeMufM1Y+58ffrRh3p31w4dfHuv6UhIUoFgUNNmzdE9i5Zo2MhRpuMAAAAAcUPZAABAjDjqLBc6pxbCts1WM8Cw2ydN1u2TJmvj1l/owN492rdrh744ecJ0LCSB8VNKNXPeQpWVV5iOAgAAABhB2QAAwE3iRI9E6ja5AMCd0tLTu45Y+vLkCe3bvVP739yjtpZm09GQQIYUFGjmvAW6a+4C5eTmmo4DAAAAGEXZALhfiukAAK6NfQtAchg+eow2bNmqDVu2av+bb+jA3j06fOig6VhwqYF+v0pn3qPpcyp128TJpuMAAGCcE5+fg7g3AiQAygbA/bh7CbgE+xaA5Dd9dqWmz65Ua3Oz3t/3tg7s3aOqw5+YjgXDvD6ffjB1uqZWzNKUmfeYjgMAgKukpMSlB+CHLyABUDYAAHANlmPLsiOTC5Hn7FsA+pNAMKjyRUtUvmiJGi5e1MG33tSBvXt0+sRx09EQR+OnlGlaxWxNnjlTg/xppuMAAAAArkbZALhfzN8iEKd3IQCuRbEAoDdZgwdr3qrVmrdqtWpranRg7xv64N19qqk+ZToaYmDsHRM0rWK2Su8pV3pGpuk4AAC4HscoAYiibADcL+b/a8fpGwPAFSgWAHwf+UOH6t6Nm3Tvxk26VF+vTw7u1+FDB/TZRx+qo73ddDz0QTArSxPKpmpC6TTdUVomfyBgOhIAAAmFY5QARFE2AACSFsUCgFjKyc1VxeKlqli8VJJ05IP3dfjQAR0+dEC1NTWG06E3t467TRPKpmlC2VSNLC4xHQcAAABICpQNgPsxKgh8CxQLAEwbP6VU46eUat1Dj+jC+fP6eP//dPLTIzpVdVQXzp83Ha9fG37raI0sLtHY8RP0w+l3KhAMmo4EAEDS4BglAFGUDYD7cb8U6MZ2HFmOIytaKjiObIoFAC4zpKBAlctXqnL5SknS5dZWfX70M1VXHdOpqmOqrjqqhosXDadMTgXDb9Go4hKN7HyMvu1205EAAEhqHKMEIIqyAXA/2nv0S47UWSj0LBbYMQIgEfkDga7Jh6jmhgad/OyIqquqdKrqmE4fr1JLU6PBlIknt7BQI8YUa1TJOI0YW6xRxSUa6PebjgUAQL/CZAOAKMoGwP24s4qk981CwbJt2ZQKAJJcMCtLE++coYl3zuh67VJdnaqPH1N1VZWqj0cKiNbmZoMp3WNIfoFGjC3WyLHFGlFcolHFJSxzBgDABZhsABBF2QC4H+09kgZHIAFA73Ly8pSTl6fJM+7ueq3+3FlVV1WppvqU6s6d1cXa87pQW6vGS8l5DFNuYaEG5xdoSH6B8ouGavjoMRpVMo49CwAAuBSTDQCiKBsAxOtdCOhHbMfpLBYiEwphmyOQAKCvcguLlFtYpLLyiqs+V1tzRhfr6nTh3FldqK3Vhdrz+upCvVqaGtXS1KTmhob4B74On2+gAhkZCgSDysjO1uDcPA0uiJQKQ/ILlJOXr5zcXNMxAQAAAPQRZQMAoM8sx5Zl9ywWLCYVACBu8ocOU/7QYdKkydf9msutrWppalJrc5Nampq6nre1tCjU0aFwqEPhcFjhcFhWKNT5PCQrFLmGw2HJceTxeuXxeJXq9cjr9SrV45XH45HH65PH65HH45FvkF/pnYVCejBDgYwMpWdkKHsIJQIAAACQ7CgbAPeL+X1b3m2O3nSfUogce/R1sQAAcD9/ICB/IKDcwkLTUQAAQBJiZwOAKMoGAIAkphQAAAAAAADQd5QNANBPRCcU7M7dCbYcWUwpAAAAAAAA4CagbACAJOBEiwQ5PUqF7g8AAAAAAAAgVigbAMDlnBuUCI7jcNQRAAAAAAAAjKJsAACDvnmsUdfz7mWC6ZAAAAAAAADADVA2AMBN9nVJEC0P1ONjphEAAAAAAACQbCgbAOBb6D59EC0PehYKjmxFjjwCAAAAAAAA+hvKBgD9giN1ThNEyoLu1+j0wbU+xwQCAAAAAAAAcGOUDQBcL3rD34l80Pn8OqVB96/vdgUAAAAAAAAQO5QNAG6KaxUBUs8yoPNXz9civy3yWo8/g5IAAAAAAAAASBSUDQDUFgqpsf3KVa/3uNX/jRv/1AAAAAAAAAAAov4PAAD//+zcsQkAIAADQXH/mcXGCfxChLsJ0j9EbADGOhdEAAAAAAA35usBAAAAAADA38QGAAAAAAAgERsAAAAAAIBEbAAAAAAAABKxAQAAAAAASMQGAAAAAAAgERsAAAAAAIBEbAAAAAAAABKxAQAAAAAASMQGAAAAAAAgERsAAAAAAIBEbAAAAAAAABKxAQAAAAAASMQGAAAAAAAgERsAAAAAAIBEbAAAAAAAABKxAQAAAAAASMQGAAAAAAAgERsAAAAAAIBEbAAAAAAAABKxAQAAAAAASMQGAAAAAAAgERsAAAAAAIBEbAAAAAAAABKxAQAAAAAASMQGAAAAAAAgERsAAAAAAIBEbAAAAAAAABKxAQAAAAAASMQGAAAAAAAgERsAAAAAAIBEbAAAAAAAABKxAQAAAAAASMQGAAAAAAAgERsAAAAAAIBEbAAAAAAAABKxAQAAAAAASMQGAAAAAAAgERsAAAAAAIBEbAAAAAAAABKxAQAAAAAASDYAAAD//+zde1CV953H8a8xMUtcY8TKNu1mZ7e73e1lc9nEqk3qpZpN2zRtJ7az020n2zTb2Zm9dGc7mSUrSzSx0a51g5pCUARBo8DBg6CBcCQeUQKGE3IoQkTJRBNJ8BIQBAkcSFL3L1ZrSOB4nuf5XZ736+9zfr+vM+qc5/d5vt8fYQMAAAAAAAAAAEgIYQMAAAAAAAAAAEgIYQMAAAAAAAAAAEgIYQMAAAAAAAAAAEgIYQMAAAAAAAAAAEgIYQMAAAAAAAAAAEgIYQMAAAAAAAAAAEgIYQMAAAAAAAAAAEgIYQMAAAAAAAAAAEgIYQMAAAAAAAAAAEgIYQMAAAAAAAAAAEjItaoLADCuSe5v4PoWWmltjMihF6ul8+Rb0t/bIwP9/XLTzJkyfUayfP6vb5VFD3xXPv3Ht6guEwZrrD0gDfv3ydnOTunv7ZXBgQsy41OzJHnWLPmr2+6Qhd9+QGam/JHqMmGwQ/uqJVKzX7rPnJb+3h4ZGhyU5JQUSZ6VIl++c7YsuP/bMn1GsuoyYajhoSFpqAnLq7UH5dy7Z6Wvt0cufvg7uTF5hiTPSpHb5syT+d+8X6ZOm6a6VBhqcGBA6l/cK82H6qWn+13p6+mRSZMmyY0zkmVmSorc9bUF8tV7/1b+IOkG1aXCUBfOn5e6vVXS8kqD9HZ3S19vj0yefK1MT54hn/r0zTJ7/kKZu3iJTJlyvepSYaieri6praqUo7+NSm93l/R0dUnS1KkyfUaypHzmszJn0ddl3uJ7VZfpmYsXL3qxjb8OLgBD8Q8V0Nzdd375v0TkV27u8fMnnpLb533VzS20cKBij7wQKJSerq5xP/uF2++QpT/9mXzuC1/0oDLYIrQzIHtLS+TC+fPjfva2OfPk+4/8TD77p3/mQWWwwXAsJlWBIgnv3iVDg4Pjfv4rCxbJ0p/+o8y6+TMeVAcbDA5ckOcLt8vBiudlZGR43M/fc9835cGfPCI3zZzpQXWwQX9vr5Rvy5faqspxP3vdlCmy4FsPyHd+/JD84Y03elAdbNB99oyUFWyRSE143M9en5QkS777oNz/w78n2MKEne7okNL8XGl+uX7cz06bfpPc++D35b6lP5DrpkzxoDp13j3VKWmP/IPb2wQONR35odubAEgMYQOgOS/Chn974pdyx7y73dxCqRPH2iRv7f/I2c7OuL87e/5C+cl/PCpJU6e6UBlscSTaKAXrnpbe7vGDrCvN/8a35Ef/+u/WP4AgMY0HD8iOrGdkoL8v7u/et/QH8nf/9M8uVAWbHKh8XoK5ORIbGj/IutL3HnpYvvPjh1yoCjZ5fsdz8kKgUN4fGYnre9cnJcnShx+RJd9b6lJlsMXO3E2yN1gS9/emTpsmP/qXn8vcry9xoSrYZOv6p+Wl0Atxf2968kx5+BePyq1fmetCVXogbAAwarLqAgB8sltuTrlHRFztv5yzaLG1Y4NaG1+RDY8vk/4JvGk+llMdJ+W3h+rkb+6+R5JuIHDARzXsD8uzv1whsQm8aT6WjuNvyJHoq3LX1xbIlOtp5cdH7Q2WyLZnMmRkePw3zcdy/GibvHHkNblr/kKZfC0TNPFRwdwc2VWQJx988P5Vfb+9pVlOnTwpsxcsdLgy2CL316slvLtMfvfhh3F/98MPPpDXXm2U/vPn5bY581yoDqZ7f2REMp9Il0P7qq/6+031L8k111wjf3nr7Q5XBxsMvfee/O9jj0pzw6Gr+v7w0JBEasKSPCtF/uQvPu9wdXoYHBiQ8O4yt7d57e3TXaVubwIgMYQNgOZuuTllvrgcNsxdtMTKsKH55Xr5zYr0q3qwvdxAf780HqyR2QsW0eGA3/NS6AXJf/rXCa9z/tw5aX65XuYtXiLXMTsYl6ks2iGl+bkJr9N15rQcbW6SuYuXyOTJBA64ZEfmM7KvPPHn9lMdJ+XN9mO+mk+Nicle9aQ0HjyQ8Dpvvd4u7546JXfeMz/xomCVdWmp0tYUTXidY4ebZSQ2LF+68y4HqoIthmMxWfOfv5C3Xm9PeK3mhkOSdMNU+fMvfsmByvTy3oV+L8KGI2+f7gq6vQmAxFyjugAA43L9pqWL7m/huXfePCE5v1rl2Hrnz52Tdf+dKsOxmGNrwmztrYdl6/qnHVvvzDtvy4bH0xxbD+aL1tVK2dYtjq134thR2bhqpWPrwXzh3WVSU7HbsfVaG1+R/Iy1jq0H85UV5En0pVrH1mvYv08qirY7th7Mt3nNajl2uNmx9ULBgNRXhxxbD+bLWrlc3j7+hmPrBXKypSXS4Nh6upg0yZMp7fYdXAAWImwAYJ2+3h5Zl/bYhC63jMfpjg7JWrnc0TVhprOdnZK5It3xdY8fbZPNa1Y7vi7M89br7ZL91JOOr9sSaXA0wIC52pqiUpSd6fi69dUh2b+n3PF1YZ5ITVgqiwsdX7d8a75E65wLMGCu0M7AhC6Cjld+xlppbz3s+LowT0lOtiNdM1fauGqlvPPmCcfXBQAdEDYAsMrIyLCsS3tM+np7XFm/rSkqJTnZrqwNMwwOXJB1aakydJV3NIwnUhOWUDDgytowQ293l6xPX+ba+pVFO1w5nIE53A7PC5/9jSuHMzCH2+F59lNPOjLSBOZqiTRIMC/HtfUzV6TL2c5O19aH/uqrQ1K9y52JPW4/swKASoQNAKzixVsi1buCtFf72IbH06T77BlX9wjm5ljZXo3xDcdikpGWKgP9fa7us3nNajl+tM3VPaCngf4+yUhzfyxg1srlcrqjw9U9oKfus2c8GQu4Pn2Z9HZ3ub4P9PPOmydcHws4NDgo69JSZXDggqv7QE/trYddHwvoVjc+AKhG2ADAGsE87w5oaa/2Jy8PaGmv9icvD2i9CM6gH68OaL0KzqAXLw9ovQrOoBcvD2i9Cs6gF7fGpY7Fi+AMALxG2ADACpGasIR2ejt6hvZqf6kKFHk6eob2av8JbHrW09Ezbo8Eg368Hj3j9kgw6Mfr30bcp+UvKn4bcZ+Wv6j4beT2SDAA8BphAwDjtbceVvIQQHu1f7REGqQ0P9fzfWmv9o/66pC8WFbq+b5evr0HtfZs36rkUl23LjuHflR1fbY1RSWw6VnP94X3VHV9RmrCUhUo8nxfeE9V16dbl50DgAqEDQCMpvqgjPZq+6lub1a9P9znxVxgnfeH+6J1tbJn+zbf7g/3vVhWqvQ+K9X7w32lWzYrvc+qND+X+7Qsp/o+q81rVjOmF4AVCBsAGEuXESC0V9tLl84CVZ0VcJ/qwHRUfXVI9pXvUl0GXKBLZ4Gqzgq4T5fOAu7TslekJixVJcWqy+A+LYt5PS714zCmF4ANCBsAGEuny01pr7aPbncm6PIQBOfoEpiOKt6Y5emdEXCfbncmeH1nBNyn250JHNTZR6eXenT7bQhn6PRSD2N6AdiAsAGAkVS3uY6F9mq76Pj2mo5/73H1dApMR2WtXC6nOzpUlwEHDMdikpGWKgP9fapL+T3r05dJb3eX6jLggIH+PslIS5XhWEx1Kf+Pgzq76DiuVJeuVzhDx3GlOv69B4B4EDYAMI7OF2jpeECN+O3M3aRtcKTjATXip2twpOsBNeKna3Ck4wE14jcyMqxtcMRBnR1Gu/90DI50PKBG/HQOjnTq6AGAeBE2ADBKS6RBgnk5qsv4WLRXm6++OiR7gyWqy/hYuo3eQfwqiwu1DUxF9Bu9g/gVZWdqPRJLt9E7iN/GVSu1HonFQZ35NjyepvVIrJZIgwRz9X0mwScz4ZktUhOW0M6A6jIAIG6EDQCMYcpbRDq/JYNP1t56WPIz1qouY1y6XCqM+EXraqWsIE91GePS5VJhxO9AxR4J7y5TXca42pqiUpSdqboMXIXyrfnadv9dLlITlsriQtVl4Cro2v13pVAwIPXVIdVl4CqY0o0ezMsx4v9bALgcYQMAI5h2gG9KMIJLTDvANyUYwSWmHeBH62qlfFuB6jIQh7amqGzP3KC6jAkL7y7joM4wkZqwVBRtV13GhJUV5HFQZ5i9wRKtu/+ulJ+xVtpbD6suA3HQeVzqWEwJRgBgFGEDAO2Z0OY6FtqrzWHqaKL66pBU7wqqLgMTYOpooorC54w69PEzU0cT5Wes1XrkEy4xdTSR7iOfcElLpEF25m5SXUbcMlekaz3yCZfoPi51LKY+CwPwL8IGANoz+W0O2qvNYPKlyyU52Ua9neVHpl+6bMo4Cz8z/dJlXS+zxiUmX7qs82XWuMTkruChwUFtL7PGJSZ3BZvW5Q/A3wgbAGgtmGv+nEraq/Vmw0GqyYGcH9hwkGpyIOcHph+kmh7I2c6Gg1TTAznb2XCQanIg5wemjUsdi8mBHAB/IWwAoK366pCEggHVZTiC9mo9hXYGrBgRQ3u1vkpysq0YEWPqqDE/yH7qSStGxJg6aswPbPkNY+qoMdvZ9BvG1FFjtrPpN4ypo8YA+AthAwAtmdzmOhYb3gq0TUukQYJ59typYcNbgbax7U4NG94KtE1F4XMSratVXYZjTLtE3Q9s685sa4pKyeaNqsvAZWzrzozUhK15WcoWtnVn7g2WMKYXgNYIGwBox9YDLdqr9WFrG7Ktfy4T2RaYjrL1z2WiaF2tlG8rUF2G46J1tVJR+JzqMiAi+8p3WXmgVV2608o/l4lK83ONH5c6FhvGwNrChnGpY7EtCAZgF8IGAFqxqc11LLRXq2d7B0BLpEHKCvJUl+Frtgamo+qrQxLeXaa6DF+zvQOgfFuBVR0bJmprikrxxizVZbiGgzr1IjVhqQoUqS7DNbZ1bJjIlnGpH8eWEXcA7EPYAEArtrW5joX2anVsmgv8SSqLC61+uNKZ7YHpqKLsTCvuojCRX+42sOUuChP55W4DDurU8cPLN375zakr28aljoUxvQB0RdgAQBu2trmOhfZqNfz0lpmf/j3pxA+B6aislcvldEeH6jJ8ZTgWk4y0VBno71NdiifWpy+T3u4u1WX4ykB/n2SkpcpwLKa6FNdxUKeGn8aK2t5Nqys/jRX1078nAOYgbACghaqSYt+9ie2ng28dlG7Z7LuAx08H3zrwW8Djt4NvHfgt4PHTwbcu/BbwcFDnLT8GPH46+NaBHwMeP3QKATALYQMA5VoiDVK6ZbPqMjxHe7V3IjVhqSopVl2G5/wy0kcHVYEi3wWmIv4Z6aOD4o1Zvhxd5ZeRPjrw6+gqDuq849fRVX591vGan5+tbL8DBYBZ/g8AAP//7N1vbFXnfQfwb7WqWVWp2qTNkqVZ26vt3dRK3dasytoqCZSioiEhXqwvKrF31Zq0TWsGISQQQkLTmD+BGIzBEIyNjY0xMcWxYxEc+8F3zX1aTI8p0DQuTmqIDa4JfwzJlL04jzP+HN9r33vO+f7Oub+PVKkJ4TwP2D733vN7ft+fFhuUku8z7A1E6Q+/O4/q5+hDLjOshScnrmDTqhUldfombmdPn5LwEOFt1sKX3n8f29Y8xVq+JFjTh9a6WvY2BlkLD587K+E+nmonftGBNw4fYm7hQwDnWIunfVixBAKGcr/v/kehD+qiJ2Ao9zn49zKKY80HYLq7WMuXhB3rn2V3jVO/wVvramH736Kt/8knn8SxTKqfjSiVFlpsUEq+WF61GSYnrmDLUyvx0e3bzG08b6z3VQAnWRsYeed32l4dkfFLF7FtzdPsbTwO4BsAzrA28NtTv0Zd1Yus5VPtvXd/j9oX6MWsJQAeBvAeawPZt3pxpH4va/lUO3v6FPZt2cjexncAzAcwwdrAG4cPob+rk7V8qmX7etHRsI+5hZsAvu3+d5O1ida62pKLW4xL16EW9s/vBPx72HeYm9j90oaSiluMU8uuGpwaoH2cA/z3YI/Af09GU7vheVrB5TOfiaUOkNpnI0qliRYblFIUQtpcO4z1poN6FwIYZm1E26vDJyQXuM5Yb4ux3nUA8wCMszbS39WJ7rZW1vKpJCQX+GljvVZjvXH432PXWRs5Uv8q+2R06lx6/31sfXoVexvLjPVOGOsNw3+tpBFwMjp13jkzhOp19M6kpcZ6g8Z6gwCWMjei87TCN5gZQHNNNXsbC431ho31TgBYxtyIztMKX+Z4DzoPNjG3cB3APGO9cWO9VgC07L/pz9ilNHtHKSWPFhuUUhQCPszd9YHWWG8C/oO6q6wNleKQ7CgJyAU+Yaz36QdaY733ACwg7gdNO14pycz3KAgpmLYa633aFmWsdwbAYuJ+SjbzPQpCZq5UGevVTf+Dsd5JAN8l7kfCvT01hAxHrjTW65j+B/f/K1mbEXJvTw0hw5G/6+5dAAB3T3uJtRkh9/bUEDJzZbF7DwYAMNZ7FgDthM/kxBVUrazErakp1haUUiVOiw1KqdgdrN3BblO/CGC+sd5drfrGeucBLOJsybdzw3ptrw7Bzg3r2adfA7+XjPXeBrm9etva1Ri9cIG5hVQQUDB921jvvu8lY71uAI8R9vOpTatW6Im6EAg4/dptrPfEvf/SWK8BAO3JjpCutcQT8vfYYKx3X8af+3cNhP0AENO1lnhC/h6fd/esuxjr/QRAN2E/AMR0rSWekILp4+69113cezTazLbRCxewbS2twUIpVeK02KCUilV/Vydeb2lmbuEm/EJD4BMcba9Ovq7Wg+wOkQn4rdSBXTKuvZo2sfnW1BSqVlbi2tVJ1hYSr6W2hl0wzdklY6z3MoC6mX49ateuTuqJuiIJKDzn7JIx1nsSQMdMvx41IQ+YEk1Ah8hJY70Zu2Tcr9EC2IWcyE8sIR0id8alBlkM4jyts6dP6TytIggpmNYZ623J8esLQJynNWSzaN65nbW8UqqEabFBKRUbIW+ql7pM4Blpe3VyDWYGJLypXuiyzWdkrLcOxPbqifExbFq1grV8ovV3daKzRUYucK7/yEV4nYhnS/fTE3WFO9q4n10wHYf/PZZv/sdS+JGEFEKiMxJJwOyLYcxu/gd9nlZLbQ1r+UQT0P2Xd/6HlHlaXa0HWcsnmoCC6V1xqUEkzNPqaj3IHs6ulCpBWmxQSsVCSLvwT+/MBc5F26uTR8gpxLtygXNht1cPnzsrYShooggpmN6VC5zHIviRXhRDNovG6q2s5RMp29eLtr272dtY4GbM5OSiCOfDjyakyBzvwdEDtLSdROppb2M/eLoKv5g1ke8/lDBPq7OliV38S5y2PbvY3X+BcalB7pinlfe/jUrzzu3sv6/EkRqXGkTCPC0BBWalVInRYoNSKnJCTuo3GOv9fI6/R9urE0JILvC6oFzgPKjt1dm+XhzeS0vbSRQhBcD/CsoFnomL8poHP9qLoqe9DW92HGEtnyhCCoBL3GyZWXGRhPNBfFDXtmcXsn29rOUTRUgBcJGbkTUrUuZp6YO62RFQAMwZlxrE3fNydkFETUAnSGK83tLMLgDmjEsN4t67UWN6BXSCKKVKiBYblFKREzCD4ESuXOCZ3NFeTdu8tlfnJyQXuNVYb85zGO5or6ad2uxorGd/aBNPSMG02lhv21x/k4v0mk1cSWTqt27GkM0ytyCekGizVW6mzJy4aELqg7rqdWswfO4scwviCYk2W+ZmY82JhHla+qAuPyHRZnnjUoO4zucnI9jPrAh5LyveYGYAB2t3sLeRNy41iIvpfTn87cyOkBkXSqkSocUGpVSkBAy5LOpEnGuvpp7a1Pbq3AScBnvbRSIVxLVX009tkn9ORRNQMO021vt+ob/ZRXsV/D0ahm1rV2P0wgXmFsQSMrS9wVjvuUJ/s3tQ90SI+5mzTatWYGJ8jLkFsYQMbX/RPWwriPu9tHZPfVCXm5Ch7T+ZbVxqEGO99QBobRlCunTFSlpcahBjvcdAjOkV8nOqlCoBWmxQSkXmWFMj+8T0nNtcg0g4tSnggbpIh+roucDTWb9FkXBqU8ADdZEEFGJCyfp1J9afLX47hRHyQF0kAYWYk4V0/93LWK8KAC2XTcgDdZEEFGI6jPUqi72Iu0bBD5OLpQ/qggkpxNQZ671U7EXcvbDgh8nFEvJAXRwhhZhC4lKDUGN6hXQgKaVSTosNSqlIDGYG0FpXy95GQW2uQdxJKdonTG2vvl/meA9+0UTNBb4Ov5g1HsbF3KnNLWFcqxBCooJEETAYdBz+99j1MC5mrLcawJxjcsIiJCpIlOaaanbE1DBCjNky1lsGYM4xOWEREhUkioCIqbAPbCx116TQB3X3ExAxdcLde8KyEP69kWIwM4C2PbtYy4sj5DNQQXGpQe6I6Q3l80MhBMxWUUqlnBYblFKhE3Iqp6g21yDGes9D26tFEPJhf7GLQAqNsd7jILZXCxmCLMJgZgAttTXsbSxwUW6hcZFfsx4AHDYhQ5BF6O/qRNehFuYWrsIvZoU9QHwR/AhDiiGbRXNNNWt5UY7U72UPz74If1hvaFGU7lrzQZynlTneg86WJtbyotRVvcgenh36AHF3T6TO0zp6oIF92EEMAd3dRcWlBnHv7YrujC5G255d7NcHpVSKabFBKRUqIQ/EfxZSm+t9tL2aT0iMwY+N9aIqClDbq8+ePoW6KlostghCfs6WGOtFVRRYAD8CjCLb14uOhn2s5UUQ8nO2yFgv9KKAiy6cBz/KkKLrUAv6uzpZy4uQ7evFkfpXmVu4Cb/QEHpRwF2TOk+rpbaGHeNI193Wyv45CyUuNYi7N+o8LbK0xKUGce/xqPO0BHS+KaVSSosNSqnQ3JqaktDm2mGstzziNbS9mkRQLvDGqC4uob26v6sTPe1trOWphBRM17gZC5Fw0V/z4EeBURx+dU/JnqgT0kG0zM2KiYSLMAwtnqkQAk5c0wjpIFrqZl5FQudpcQ3ZLJp2vMLeRmhxqUF0nhZX2uJSg7j3es9Edf3ZEDDTRymVQlpsUEqFZtva1ewPXbF88NT2ap4U5gIHktBe3Vi9lZ0lHztBucDPRL2IiwArevB0MUrxRJ2Q2Sib3YyYSLkow6IHTxdDwGtG7ITMRlnhZl1Fyq1B+8MKec2InZDZKKHHpQZx98pNUa8zEyGvGbFLa1xqEGO9NSDO07p2dRJVKytxa2qKtQWlVAppsUEpFYrmndvZDyZDzwXORdur4yfglGqsX3MJ7dXb1q7G6IULzC3ESsAp1dBzgXNxUWA/jGu9IKV2ok7AKdVuY73YvuYu0vCFuNa7l5BuuNjcmppC1cpKXLs6ydxGg7FebF9zt5bO04qJkAeTL0QVlxrEWO9H0HlasRESl/qjCONS78OepyWkgKiUShEtNiilitbf1Ymu1oPMLUSWC5yLtlfHp5ufvx1ZLnAu7PZqIQ+uYtG6e2dqc4FzMdbbDCDyU+4zEfLgKhYCCsSUbhZjvRUAIj/lPhMhD65iIaBAfNLNtoqVztOKj4ACcYe7p8RN52nFQEiBuM5Yj9HNQp2nNWSzaKqpZi2vlEoZLTYopYoi5M1vpLnAubj26sjy+/MphfZqIW9+I80FzoXdXi0kkiNSmeM9ONZ8gLmFyHOBc3HRYJHl9+dTCifqjjU1sqPvxuF/j7HmdCyFH3VIISSSI1L1WzezO0yHwZ3TQZ+n1VpXy1o+FgKi72hzOqTM0+puo70djIWA6LtY4lKDSJinJeBwl1IqJbTYoJQqmJC23uVx5ALnYqz3Y2h7dSSEPISMJRc4F3Z7tZBho5EQ8hAyllzgPBbBjwqjGLJZHNi+jbV8pIQ8hFzgZsFQuIjD+fAjDykyx3twrKmRtXykjr/Wjjc7jjC3cBV+MWuCtQEJ87QEFBUjc3hvHbJ9vcwtxBqXGkTCPK2mHa+wi4qRKbW41CAS5mkJ+DoopVJAiw1KqYIIOVHfYKz3M+YG7qDt1SETEq/yfJy5wHlQ26uzfb04Ur+XtXwkhMSrPB5nLvBMXETYPPiRYRRvHD6UuhN1QuJVlrgZMFQu6nA+/OhDita6WnZcWuiGbBb7t21hb2ORm2VFpfO0opE53oOOxnrmFihxqUF0nlY0BJyop8SlBnHvCR9j7kFAh4lSKuG02KCUKoiAWQGUXOCZaHt1uG7fviUlF5j+JHqahPbqI/Wvsk82hkZQLjD9KeE0FxXGjEFJ1Yk6IYNjV7vZLyK4yENKDMo0AYPgQyOk+2+Zm2Elgs7TCpeQ7j9aXGoQd099irV+2uZplXpcahBjvZdBnKcl5D2yUirBtNiglJozAae2hkF+IBZE26vDs/25tSWbC5yLhPZqAZnNoRBwaouWC5yLiwyjFnIFfG2Kdvv2LWxcuRyTE1eY22g11nuWuYEgLvqwkrW+kK9N0YR0/1W52VWiuD1VsdYX0v1bNCHdf5XsuNQgxnrroPO0iiakYEqPSw3Cnqcl5OdfKZVQWmxQSs2JgDxaei5wLtpeXbzDe+vYMRf0XOBcXHv1D5h7ENB1UhQBp+fpUR+5uOiw51jrp+FEnYDT82+7WS8iGeu9CIAWUSek66QoAu7D3cZ6TzA3kIvbm87TKpCQ+3CDu1eIpPO0ijM5cUVCwXS9oLjUINR5WkI6m5RSCaTFBqXUrAkZcikiFzgXba8unOYCz46x3lYQ26uFnKgtSFfrQc0FngVjvVUAaKdJk3yi7mDtDnbBlN5lNxsuCpF2mlTIPI2CCOgwo3fZzZLO0yqQgA4zUXGpOdDnaR3eK665KK/pDjMBcalPMjeQj4R5WpnjPTjauJ+1vFIqobTYoJSaFSEfykXlAuei7dVzJ+T0jKhc4FzY7dVCWt/nZDAzgOad29nbEJULnMdS+JFiFELuCXPS39WJ11uamVu4Dr+YRZsfNEcL4UcjUgxmBtBSW8NaviCv7d/Hnp0zDv97jDY/aLakzNPqOtTCWr4gArr/hiEwLjXIHfO0aAcIOhrr2V3ncyag+09kXGoQCfO02vbuZr/uKKUSRosNSqm8JsbHJMQN/FxiLnAu2l49e0JOMf9EYi5wHtT26iGbRf3Wzazl50RIwVRkLvBMXJTYfPjRYhRJOlEn5BTzYjfbJRFcJCL1QV1nSxO722nWsn29aN+3h72NBW5GVSJImKfVXFPN7naatZ72Q+yfh+nuP5FxqUHcPZcajShgnt6ste3dzf55EB2XGsS9d6RGIwroqFNKJYgWG5RSOU1H8pAHKXYY6/2UuYEiLADx1GYS2quF5ALXGeu9xNxAIe5or6ad2nyz4wiOv9bOWn5WhOSzrxOeCxzIRYrNh39iniIJJ+qE5LN/3810SRQXjUh9UCfgJHdeQg4QLHGzqRJFwjwtASe58xqyWTRWb2NvY6H0uNQgrvN6GXMPm59aifFLolNAJRwgSERcahAX0/sscw8CZgUppRJCiw1KqZwEDBtOTJtrEG2vzk9ALvAJF0mUSK69mnpqc/+2LRiyWeYWZjSdC0wumLYa69HmuBTLRYtR89kln6i7ce1DbFxZiZs3bjC38bKxXjVzA8VwD+qo+ewCXotmJCQa8Un3sCuR3N5p+exCXotmJCQaMVHdf/dyHdhbWOsLeS2akZBoxMTEpQYx1lsNYkxvkme2KaXipcUGpdSMmnduZz9ATFybaxAJpzaltlcLOE1K/9qEQcKpTQGFyUACTpO+7SLVEs2dmH+CuQepJ+oEnCbtNtZ7jLmBMLjOH1oOlZAuu/tMd5heuzrJ3EaDsR79KWGx3J+B1mEmpMvuPkIeIP4sid1/9zLWexwArcNMSJfdfTQuNTzsmF4hhUmllHBabFBKBerv6kRX60HmFhLb5hpE26vvJygXmNZ1EiZ3apM2lEDIA7G7tO3Zxc4FpmeFh8lYrwoALZdNyAOxuwgo5J4BueskTMZ6lQBoD4OEPBC7i4BC7kljPWrXSZjcn4V2el7I/KC7CCjkdhjrLWduIGSL4d+bKYTMD/qUkEJuIuNSc1gA/z0mxZDN4sB2euSaUkowLTYope4j5E1qottcg2h79f8TlAs8zN5EmIz1ngaxvVpI1AcAlwt8gHpI8jr8YhZtnkYUXOTYCdb6kk7UdR5sYkfUjcP/HqPN04jIUvgRihRCoj4AAI3V29gdpsMAFjI3EJGFIM7TGswMoG3PLtbydxEQUZfouNQg7p5MnafV39WJnvZDrOXvIiCiLtFxqUHuiOmlvf6/cZh+aEwpJZgWG5RSdxHSfrsiDW2uQbS9WszDwkTnAufCbq+WMMRUyMPCxcZ6tJONEVsEP4KMYshm0VzDHU8wmBlAy64a6h4ALDDWo51sjIqLTpwPP0qRInO8B50tTazlAYh4WHgVfjFrgrmJKLg/E3We1tEDDexiJdr37UG2r5e5hVTEpQZx92ZqZ6OAYqXGpUbIvcekdjYK+PoqpYTSYoNS6lNCTr43GOu9wNxADEq2vVpIDMqGNOQC50Ftr8729eK1/fsoawuJQfmRm3GQSi56bB78KDKKrkMttBN1QmJQlrhZLankIhTnw49UpGipraHFsAnpMF3kZk6lUqnP02K+TjupiksNUurztAScfE9VXGoQ917zh8w9COhcUUoJpMUGpdSnBGT6pyoXeCal3F4tJBf4v5kbiIOE9mrGiUlBucCbmBuIg4sgo8arME7UCRnwusbNaEk1F6VIjVdhDJiX0IEIYJmbNZVqpTpPS0IHIlIYlxrE3aufYa3PmqclJNM/dXGpQYz1NoM4T2v6vbekmW1KKT4tNiilAIgYcjmMdOYCByrF9mrNBY6XhPbquL/mAk5XpS4XOBcXRUYtEMf5Nb99+xY2rlyOyYkrsaw3g1ZjvWeYG4iTi1SkFYjj/ppfuzopocN0k5sxVRLcn5VWII67q3j80kUJs5WWpzUuNYix3hqU0DwtjUuNH3ue1vR95aOPPmJtQSklzJ+xN6CUyq2ivOwhAI9EucbklSs4laG+H5sE8I00Zk/nMjI69seK8rLfgthibU0fvvTVB/HFv/jLSNc5Ur8Xb3YciXSNPEYBfD2N2dO5jIyO/b6ivGwCxMLWr0w//vnr38Tnv/CFSNd5dctG2P63Il0jj7MAHh4ZHaMeeY/byOjY6YrysgcAPMRY/+OPPsLpX2bw4MOP4nMPPBDpWtufW4tzp6kHcf8HwKKR0bGPmZuI28joWH9FednfAfgSY/1bUzfx21//Cg8+Mg9/9tnPRrrWSysq8f7wu5GukcdRY73vMTfAMDI69npFedk/Afh7xvrXP/wQfzh/Dg8+/Gik69y8cQMvLX8Clz+4FOk6eewx1qtkboChorzsCPzPc3/DWP9Ply9jdOQCvvLQ1yNd58PJP2HDT3+Ia5PUU+4bjPU2MjfAUFFe1gbg3wH8FWP9P12+jPfe/T2ufPBB1Et5I6NjLVEvopQqjhYblBKuorzsa4i42HD5EvVDBwB8y1iPO8GMZGR0zKsoL/sEwDcZ6//vxx/j1MBJ/Osjj+JzD/x5JGtk+3qxf+uWSK49SzfhF7N+x9wEy8joWKaivOxvAXyZsf7tW1P4TfaX+Nqj38JnI3pQ193Wil8c2B/JtWdpAsBDxnr0mynDyOhYT0V52VdAelB349qHOP+bQTz0rW9Htkbr7p14q/NYZNefhfcA/Fuas6dzGRkda68oL5sPoIKx/uTEFYy8+w7+5ZsPR7ZG9bo18LLUMRxnAMwbGR0ryaOpFeVl7fC7Af+asf7Y6Cguf/ABvvzg1yJbY9PK5Rg+T+0wPWmsl8phvfmMjI597L7H/gPAFxl7+OMfhgEA//CP0dVtX6z8MW1GhNNhrPefzA2wjIyO3aooLzsK4HsAPs/YQwyFBgD4zcjoWOqjJJVKOo1RUkqxlUQucC7GemuR0vZqzQWWgd1eHWVL/ZDNomnHK5Fcew5KIhc4j6Xwo8oo3jkzhJ0b1kdy7czxHhxrPhDJtWfpOvwhl7Q5P0IshB+5SDGYGUDr7p2RXLujsT72GTf3GIf/PUab88MmZZ5Wd1s0bwcZM27uMYwSiksNImGe1pH6VyO712hcKp+EeVpKKQVosUEpxVVVSrnAuRjrLQFAO9IYRVEg7ozYGVSWUi5wHosAnGctHsWwQM0FlsNY7yaA+QDinXR6h8zxHhxragz1mlEWMeZgsZvBUtJcDN48ALTujmPNB5A53hPqNbN9vTi8l/5WaEGpRVkGkTBPq2nHK6HP0+ppb0N/V2eo15yjq/CLWSUVZRkkrfO02vftYRdMLwKY796LlDQJ87SUUkqLDUoplm5jvSfYmxBmAfyoDIpsXy/a9+0J5Vo3b9xA1cpKXLtKzWxtMNZ7kbkBSVz8yjz4kT8Ubxw+FNoDj2tXJ1G1shK3pqZCuV6B1hvrNTA3IImx3kX4BQfah/3WuloMZgZCudb4pYvY/NTKUK5VhMeM9brZm5DCWO88/MIpzc4N6/HOmaFQriWk+2+JsR41v0kS93dBm6UFANvWrg4timbIZtFYvTWUaxVhkfvZVQDcPf0HzD1sWrUCE+NjoVwr29eL1/bvC+VaBboJv9BAO+wgjXtv+hx7H0qp0vV/AAAA///t3X2QVtV9B/Bv/k0702mTTtNJmrbaqZk+6bTztJnax7bOVMNryouhGKt9o07rZFqDLwFZQVEERY0LagyW6qrIxmgQBKRVVAZCDjLC6Ug8qDHCMoIudWXLiwvSmbZ/nF+SDbPsPi/33N85534//7rPPT/2ue5zn3vu7/vjZgMRaVB/qidGMbRXb1i9qpAnk+6/eb52ZusOYx2f6jlDDO3VRUU5FPlFuU0bjXU3ahYQI4ksU40xWLH4Vhzcv6+jY5wcGkJ31xwMnTheUFVt6THW3adZQIwkenGWZg3LF3Rh4HBn97Ui6f67yVjH7OszyO9ErW3uo1OnCnlgI5Luv8rHpY7EWHc/ALWWpqIe2Ihkw7TycakjMdbNB8DubiJSwc0GIipb5XOBR5NDezVzgeMWQ3v1/TfPx+FDh9p+PXOB4ybRZV/XWv/06Y/Q3TUXRwePtH2MTs/RAmyVWSs0Aolg/IbW+kMnjqO7aw5ODg219fqibiZ3aI2xbpFmATGT302y87Qi6f67m3GpZ5f6PK2Bw/0xbJgyLnV0qvO0iKi6uNlARGVjLvAYUm6vfmn9OuYCJ0C7vbqTp8bXPdrDXOAEGOvuBqAWMXV08Ai6u+bi9OmPWn7tyqVLtDdM1aOCUmCsux6AWsTU4UOHcP/N89t6bZExOW3aJbOiaBQpz9OKpPtPbdM5IerztHruaT1x9MfXcYxLjVsM87SIqJq42UBEZWIucJNSbK/ea3ej9wH1xA/mAjdJu726nTz8nVtexMZvPx6ooqYwF7gFEmWmNjz74P59WLH41pZe8/yapwofANyiQfgNU7UhyImZDh/NqOLNH7za8o26EAOAW6Q+BDkx6vO01j32SEuvYfdfOobN0xrQquH7z/8Htmx4pqXXRND9x7jUJg2bp8VUASIqDTcbiKgs85kL3JqU2quZC5ws1fbqt1/fi5VLlxT+swExF7h1k+GjzVTs2fkynvq3B5v+2SdXrghc0Zgmy2wVaoJEMqrfqHt+zVNN/+zmtaqXQh/Cb2ap/b5SE8M8rY29q5reBF3/+GPs/kuM/M1X3QBc/c17m94EZVxqeuTalfMSiag03GwgojL0GuvUIlsSNwWKT202014dSS7wXcwFbt2w9mq1pzZ3bnkRz3579ag/004XRADXMRe4dRJpNg7+iX0Vz333yTHj3drpggjgcpmpQi2QaMaJ8J1HKp5cuQJ7dr486s+00wURwHSZDUUtiGGe1sqlS/D263tH/Znd27dh/eOPllTRiNj91ybp/FaNNmsm3o1xqemSmN5rtesgomrgZgMRhcY21w7E0l790vp1Z/3vkeQCz9EsIGVyU0D1qc21jz581icxO5nvUKAeY909mgWkTKLNVJ9CHO1JzE7mOxRokcxSoTbIjTrV2JYVi2/Fwf37Rvxvncx3KNAsudlEbZDfnerQ9uULujBweOT7+J3MdygQu/86IB3garveYw2uZ1xq+ox13VCM6SWi6uBmAxGF1Ae2uXZs2FObanofuG/E9mrmAuchhqc2z3YuRZALvFUizagD8sS+6sbzSOfS6dMfobtrLo4OHlGqCgCwxlinnkOXOuk8ulFr/bOdS0MnjqO7aw5ODg0pVQYAuI/df52T36Ha3daznUuDA+9j2fx5SlX9xDx2/3XOWHczALWstbOdS4xLzYd2TC8RVQM3G4goFLa5FijG9uoNq1cxFzgjMbRXn9klE0Eu8FvwUWZUAHly/06t9UfqkhntafSS7DLWqf5tz4mxbgkAtQ6RkbpkRnsavSSbjXVXaxaQE/ldqnWInNklM9bT6CXpNdbdoVlATuQzYZfW+md2yTAuNUtT4K9xiYiC4GYDEYXCNteCxdRevXv7Njyz6hGtUgDmAgeh3V49/Avti888rZ0LPAi/YXpMs4jcGOvmAlB7+nX4/I+nex4aM2c/MPWutRxJdKPa7Ivh8z+aydkPTL1rLVPToThPa/j8j2Zy9gNjXGoYE6E4T2v39m3YsHoVAMal5mhYTC8fCiSiID6mXQARja5Rr90A4HbtOlp0lbHuQe0ictWo154AcKnW+r92zrnoP/gO/uf0aa0SAOASY91azQJy1qjXXgBwkdb6v/Hb52nHcwHAhcY61dadXDXqtY8D+D6A39eq4ZzP/Q72vaF6E3gIwPnGuh9oFpGrRr32SwBeAXCOVg2/ed7nsP/NN7SWB4APAPyBse6AZhG5atRrvw5gN4BPaNUQwTm2D8AXjHWqOXS5atRrnwewE8DHtWqI4Bx7FcAFxjq1uWI5a9RrfwogtWvd7xjrvqJdBBGNjp0NRPH7P+0CWrScGw1hyQWWWnv1O/ve1t5omMeNhuAugWJ7dQQbDZdzoyEcY90Q/FObap1JyhsNADCNGw3hyM3PCfCRjiqUb9ABwARuNIQjv9sJmjUon2PH4M8xbjQEYqx7DcA0zRqUz7F++HOMGw2BGOu+B+V5Wm1I7d4IUSVxs4GIirTZWDdbu4iKUG2vVsRc4BJUvL36DpktQAFJBNp4+Ei0qpktM1IoIIlyrOrMlRky64kCimGeliLGpZZAPiuq+N2KcaklkWtefrciokJxs4GIisJc4BIZ6wbgbwZX6Wkf5gKXyFjXB2Cydh0l22ism6ddRFUY6/YAmKldR8l6jHXLtYuoCmPdVgCztOso2UKZ8UQlkN/1Qu06SjZL/t+iEshnRtWGI8+UawQqgVz7qs3TIqL8cLOBiIowAD9ItUo3vtUZ66q0wdOH6t34Vmes24H02qvbVcUb3+qMdRsB3KBdR0m2GuuqduNbnbGuB8Ay7TpKssZYd4t2EVUjv/OqbPDcI/9PUYnks6MqGzzz5NqAyjUT/lqYiKhj3GwgoiJMNNZVMdJHnbRXf027jsCOwW9mVTHSR520V6c2pL5V/fDt+lWM9FFnrFsKIPfoqipH+qgz1l0DIPfoql3GuqpG+qiT333u0VWbjXXXaRdRYVOgOE+rJIxLVSLXwOOhOE+LiPLBzQYi6hRzgZUZ6+5F3u3VzAVWZqzrQr7t1cwFjoBEpO3QriOQQfgNU7VhxQTAdwK+rl1EIAfhZzmRrpznaVWpmzZKFZinxbhUZRWfp0VEBeJmAxF14ibmAsch4/Zq5gLHI9f2auYCx2MyfGRabibLDBRSJFGP4+CjH3PyIfxmVm7/ruRkPE+LcamRyHieVh/y/Hclp6LztIioYNxsIKJ2rTHWLdIugn5Gbu3VzAWOSKbt1XOYCxwPiUobBx+dlovLZfYJRUAiH3PrAJguM5woApnO02JcakQynKfFuNTIyLXx17XrIKJ0cbOBiNrBXOAIZdZezVzgCGXWXt1rrLtLuwj6WRKZlstsgyUy84QiItGPuVzDXC2zmygi8p5crV1HQRiXGiH5bFmsXUdBGJcaIWPd3ch/nhYRBcLNBiJqVY5PBWYjk/bqHJ8KzEYm7dXMBY6YRKfN0q6jQxuNdTdqF0EjkwjIBdp1dKjHWHefdhE0MnlvUu/OvJFxqfEy1s1H+vO0GJcascznaRFRQNxsIKJWMBc4AYm3VzMXOAGJt1f3If0NuexJhNo3tOtoUw4bctkz1t0GINUbqVtlVhNFLPF5Wr3GuiXaRdCYZgJItfOEcalpmIy8YnqJqATcbCCiVjAXOBHSXn2bdh1tYC5wIhJtr2YucEKMddcDSC0iph/AeJlxQpGTSMjUbtTlFDVWBSnO02L3XyLks2YifOd5ShiXmohh87R47UxETeNmAxE165+ZC5wWY90CpNVezVzgxCTYXs1c4PRMh49WS8FJ+I2GnIaoV0FKN+oG4TdMcxqinrUE52n1gd1/SZGO83HwHegpYFxqYjKJ6SWiEnGzgYia8S1j3Te1i6C2pNJezVzgdKXSXs1c4ARJpNo4+I6B2M2UmSaUkGE36lK4gT9ZbvpQQhK6Ucfuv0RJ53kKN/AZl5qoxGN6iahk3GwgorFsNtZ9VbsIak8i7dXMBU5YIu3VdzEXOF0SrTYevnMgVtfJLBNKkNyoiz2aaIbc7KEEyXs3Q7uOMbD7L2HSgX6tdh1jYFxqwiSm907tOogoftxsIKLRpPKUDI0i8vZq5gJnIPKnNjca6+ZoF0GdkY6BWIcu9xjr7tEugjojnU+xDl1exO6/9Ml7uEi7jrNg918GjHXdAGJ9uIJxqRkw1s1FWjG9RKSAmw1EdDZsc81IpO3VfYj3BjW1KNL26phvUFOLpHOgS7uOM2w11sV6g5paJB1Q92rXcYY1xrqbtIugYsh7GdvG0TJ2/+VDPpNi2zhiXGpeZsJfYxMRjYibDUR0NmxzzUxk7dXMBc5QZO3V/fDDemOO3qEWGetuB9CrXYd4C/FH71CLjHVfA7BZuw6xy1gXe/QOtUje01ie8N5srLtGuwgq3BTEM0+LcamZkWvr8UhjnhYRKeBmAxGN5DK2ueZJ2qv/VbsOAF9mLnCepL16nXIZJwFMMNbxS1CGJHrte8plDMJvZqUwVJhadwl8lKSmgwAmKddA4UyC/jytvfDnOmVGPpvGAziiXArjUjMl19gTAAxp10JE8eFmA1H8yr6RcYux7omS16QSGev+Cbrt1bOMdS8ork/h/RV026tnGuteVVyfwpsKH8WmZbKxbr/i+hSQse4E/KyjAaUSPoTv/ntfaX0KTN5bzXlaA/AbpieU1qfA5DPqS4ol9IFxqVmTa+1LS172aMnrEVEbuNlAFL8PSlzrCWPdwhLXIz1TodNezVzgCpD26gkA3lNY/gbJ9qeMSQTbOOh86fw7mVFCGZMoyYkATiksP1NmLVHG5D3WmCt0Cr77T7uzggKTz6q/VViacakVIdfcc0tckpvwRAngZgNR/GxJ6+wy1l1W0lqkzFh3FP5GXZlfApgLXCHGuvfgNxzKnJnQa6xbWuJ6pEii2KaWvOwdxrpHS16TlEik5BUlLzvbWLep5DVJibzXs0te9gpj3e6S1yQlxrrHANxe8rJTGJdaHca6O1HePC1GPRMlgJsNRJEz1v0IwLuBlzkA//QeVYixrg/AtJKWew3A9JLWokgY6/YAKCurdztzgavHWLcVwFUlLbfeWDevpLUoEsa6NQAWlrTcQ8a65SWtRZGQ9/yhkpZbIOc0VYixrgvA2pKWu0o+m6lC5Bp8WwlLlbEGEXWImw1EaQj5BeRDABONdVq5xKTIWLcN4W8GD8CfY1q5xKTIWLcW4dur+wBMCbwGRcpY9yCA7sDL7AHwlcBrUKSMdbcACH2Ddqux7srAa1Ck5L0PfYN2jbHutsBrULwuR/h5WsvkM5mqaRrCztP6DqO5iNLAzQaiNKxAuMzgLzMXuNqMdb0I2149ibnA1Sbt1Y8EOvxx+CGX/PJRYca6awE8G+jwh+DzzcuMBKP4XAHg5UDHfgPlR4JRfKbCnwsh7DDWzQh0bEqAfIaNh/9MC2ET41Krbdg8reOBlmBUKlEiuNlAlABj3bsI82Tw1ca65wIclxIj7dVPBzj0pca6VwIclxJjrPt7hHlqc5qx7ocBjkvpuRTA3oKPOQS/Yaox7JwiYqw7BeAvALxT8KGPwHf/aQw7p4jIOTAR/pwoUh/Y/UcAjHX9ACbBf7YVaS/8ZzBVXMB5Wt3Guv8McFwiCoCbDUSJMNbdC2B9gYf8lrHuvgKPR+m7AkCRF3HzjXVPFng8St90AD8q8HhXGuteKvB4lDCJahsPoL/Aw14ms0eIIJGT4wEcK+iQpwBMlRlKRD+epzUVxXU0H4XfMGVcKgH4yTytImMBD8N3/50o8JiUMGPdFgD/UOAhX5EOViJKBDcbiNLy1wBMAcfpMdZ9tYDjUEakvfpCAFsKONy1xrrFBRyHMiLt1X8MYHcBh/sbY11ZAzUpERLZdj6ANzs81EkAXzLWFbnJTxmQ6MkL4G+wdWIQwEXGuu2dV0U5kXPiInS+qXUIwJ8wLpXOZKzbAGByAYd6E8D5xrqiO74occa6hwHMLuBQDr6rkIgSws0GooQY644BuBjA6g4Os8JYN6ugkigzxrrjxro/B7CyzUP8N4AZxrrQw1opUfJ05Z8B+G6bhzgM4GJj3ariqqKcGOsOAGgAeKHNQ+wHcKGxLtQMCEqcse41AH8IYGebh3AAGsa6Ih4goQzJuXE+gHY3CnbA3wR+rbiqKCfGuk0A/gjAgTYPsRn+71hfYUVRVox1y9HZhsMmABcY6zrd3Ceikn1MuwAiak+jXpsI4Cb4LyLN2A7gemNdu1+MqWIa9doXATwM4DNNvuQZAP9orPuvcFVRThr12l8CeADAJ5t8SQ+Aa5htTs1q1GtXAugG8PNNvmQZgC4Og6ZmNeq16wDc3cJLbjHWLQxUDmWoUa8tAjC/yR8/Bf83jA99UFMa9drPAbgdwL80+ZJj8N8p230wiSqmUa+dC+AOAM0Oqf8hgAWM4yVKFzcbiBLXqNc+D2ACfEv/eQA+C+B/4TOrD8A/2fksn2yidjXqtYvh21e/AODT8OfYUfhzrA/+yaZNbNOndjXqtUnwwyt/D35z6zPwESP9AN4G8ByAjXx6jtohN1K+CD8z5HcBfArArwL4AP4cewt+JtImPj1H7WjUa78Afy12Cfy12KcA/AqA9wG8B3/jZB2AfzfWFT38lyqgUa99En549HQAvwV/jv0y/N+wfvgBvWsBPC+d0EQtadRrn4a/3p+An55jnwDwLvw5tgf+79hmY13RA6apAhr12mfx03PsXPhz7Bfhr/XfAvAygBcZL0iUPm42EBERERERERERERFRR/4ff+UHt7ykAEUAAAAASUVORK5CYII=;" vertex="1" parent="1">
          <mxGeometry x="-50" y="127" width="203" height="203" as="geometry" />
        </mxCell>
        <mxCell id="ICoC3vKATYcrF40Dt-nO-72" value="" style="edgeStyle=elbowEdgeStyle;elbow=vertical;strokeWidth=4;endArrow=block;endFill=1;fontStyle=1;strokeColor=#23445D;" edge="1" parent="1">
          <mxGeometry x="22" y="165.5" width="100" height="100" as="geometry">
            <mxPoint x="113" y="179.7788888888889" as="sourcePoint" />
            <mxPoint x="240" y="178.89" as="targetPoint" />
          </mxGeometry>
        </mxCell>
      </root>
    </mxGraphModel>
  </diagram>
</mxfile>
